<?xml version="1.0" encoding="utf-8"?>
<!-- Generator: Adobe Illustrator 23.1.1, SVG Export Plug-In . SVG Version: 6.00 Build 0)  -->
<svg version="1.1" id="圖層_1" xmlns="http://www.w3.org/2000/svg" xmlns:xlink="http://www.w3.org/1999/xlink" x="0px" y="0px"
	 viewBox="0 0 50 50" style="enable-background:new 0 0 50 50;" xml:space="preserve">
<style type="text/css">
	.st0{fill:#2F6E35;}
</style>
<title>圖稿</title>
<path class="st0" d="M44,30.7h-1.1V11.2H44c0.4,0,0.7-0.3,0.7-0.7c0-0.4-0.3-0.7-0.7-0.7c0,0,0,0,0,0H25.9v-2c0-0.5-0.4-0.9-0.9-0.9
	s-0.9,0.4-0.9,0.9v2H6c-0.4,0-0.7,0.3-0.7,0.7c0,0.4,0.3,0.7,0.7,0.7h1.2v19.5H6c-0.5-0.1-0.9,0.3-0.9,0.8C5,32,5.3,32.4,5.8,32.4
	c0.1,0,0.1,0,0.2,0h3.9l0,0h12.8l-8.6,7.8c-0.3,0.3-0.3,0.7-0.1,1c0.1,0.2,0.3,0.2,0.6,0.2c0.2,0,0.4-0.1,0.5-0.2l9.2-8.3v9.4
	c0,0.4,0.3,0.7,0.7,0.7c0.4,0,0.7-0.3,0.7-0.7c0,0,0,0,0,0V33l8.7,8.3c0.1,0.1,0.3,0.2,0.5,0.2c0.2,0,0.4-0.1,0.5-0.2
	c0.3-0.3,0.3-0.7,0-1l-8.1-7.8h13l0,0H44c0.5,0.1,0.9-0.3,0.9-0.8c0.1-0.5-0.3-0.9-0.8-0.9C44.1,30.8,44.1,30.8,44,30.7L44,30.7z
	 M10.2,12.4H40v17.3H10.2V12.4z"/>
<path class="st0" d="M13.6,19.3c-0.5,0.5-0.8,1.3-0.8,2c0,0.7,0.2,1.4,0.7,1.9c0.5,0.5,1.2,0.7,1.9,0.7c0.5,0,1-0.1,1.5-0.3v-0.8
	c-0.4,0.2-0.9,0.4-1.4,0.4c-0.5,0-1-0.2-1.4-0.5c-0.3-0.4-0.5-0.9-0.5-1.4c0-0.5,0.2-1.1,0.5-1.5c0.4-0.4,0.9-0.6,1.4-0.6
	c0.4,0,0.9,0.1,1.3,0.3v-0.8c-0.4-0.2-0.9-0.2-1.3-0.2C14.9,18.5,14.1,18.8,13.6,19.3z"/>
<polygon class="st0" points="19.2,18.6 18.3,18.6 18.3,23.9 21.3,23.9 21.3,23.2 19.2,23.2 "/>
<path class="st0" d="M24.1,18.6l-2,5.3H23l0.5-1.4h2.2l0.5,1.4h0.9l-2-5.3H24.1z M23.7,21.8l0.8-2.1c0-0.1,0.1-0.3,0.1-0.4l0,0
	c0,0.1,0,0.3,0.1,0.4l0.8,2.1H23.7z"/>
<path class="st0" d="M30,20.9c-0.3-0.1-0.6-0.3-0.9-0.5c-0.1-0.1-0.2-0.3-0.2-0.5c0-0.2,0.1-0.4,0.3-0.5c0.2-0.1,0.5-0.2,0.8-0.2
	c0.4,0,0.9,0.1,1.2,0.3v-0.8c-0.4-0.2-0.8-0.2-1.2-0.2c-0.5,0-1,0.1-1.4,0.4C28.2,19.2,28,19.6,28,20c0,0.3,0.1,0.6,0.3,0.8
	c0.3,0.3,0.6,0.5,1,0.7c0.3,0.1,0.5,0.2,0.8,0.4c0.1,0.1,0.2,0.2,0.3,0.3c0.1,0.1,0.1,0.2,0.1,0.4c0,0.5-0.4,0.7-1.1,0.7
	c-0.5,0-1-0.2-1.5-0.5v0.9c0.2,0.1,0.4,0.2,0.6,0.2c0.3,0,0.5,0.1,0.8,0.1c0.5,0,1-0.1,1.5-0.4c0.4-0.2,0.6-0.7,0.5-1.1
	c0-0.3-0.1-0.6-0.3-0.9C30.8,21.3,30.4,21.1,30,20.9z"/>
<path class="st0" d="M35.7,21.7c-0.3-0.3-0.7-0.6-1.1-0.7c-0.3-0.1-0.6-0.3-0.9-0.5c-0.1-0.1-0.2-0.3-0.2-0.5c0-0.2,0.1-0.4,0.3-0.5
	c0.2-0.1,0.5-0.2,0.8-0.2c0.4,0,0.9,0.1,1.3,0.3v-0.8c-0.4-0.2-0.8-0.2-1.2-0.2c-0.5,0-1,0.1-1.4,0.4c-0.6,0.4-0.7,1.2-0.3,1.8
	c0,0,0,0,0,0.1c0.3,0.3,0.6,0.5,1,0.7c0.3,0.1,0.5,0.2,0.8,0.4c0.1,0.1,0.2,0.2,0.3,0.3c0.1,0.1,0.1,0.2,0.1,0.4
	c0,0.5-0.4,0.7-1.1,0.7c-0.5,0-1.1-0.2-1.5-0.5v0.9c0.2,0.1,0.4,0.2,0.7,0.2C33.4,24,33.7,24,34,24c0.5,0,1-0.1,1.5-0.4
	c0.4-0.3,0.6-0.7,0.5-1.1C36,22.2,35.9,21.9,35.7,21.7z"/>
</svg>
