<svg id="圖層_1" data-name="圖層 1" xmlns="http://www.w3.org/2000/svg" viewBox="0 0 310 40"><defs><style>.cls-1{fill:#2f6e35;}.cls-2{fill:#74cf64;}</style></defs><title>FOIS_Web</title><polygon class="cls-1" points="19.49 8.99 19.49 5.13 2.35 5.13 2.35 35.14 6.96 35.14 6.96 22.39 18.96 22.39 18.96 18.54 6.96 18.54 6.96 8.99 19.49 8.99"/><path class="cls-1" d="M56.38,32.93,51,28a6.88,6.88,0,0,1-3.68,3.32l4.86,5.56a3,3,0,0,0,4.3.18A2.81,2.81,0,0,0,57.3,35,2.78,2.78,0,0,0,56.38,32.93Z"/><path class="cls-1" d="M52.56,20.17l-.4,0a3.84,3.84,0,0,1-3.16-1l-.34-.33-.11.47a10.81,10.81,0,1,1-.47-6.26l0,.1.89.47.14-.12a3.8,3.8,0,0,1,2.71-.9l.4,0-.13-.37a14.89,14.89,0,1,0-7.43,18l0,0s1.09.89,3.13-.45a7.85,7.85,0,0,0,2.11-2,2.09,2.09,0,0,0,.34-2.54,14.56,14.56,0,0,0,2.15-4.81Z"/><path class="cls-2" d="M57,5.3a3,3,0,0,0-2.4,4.88L52.54,13l0,.05a3.54,3.54,0,0,0-3.44,1L45.17,12c0-.12,0-.24,0-.37a3.91,3.91,0,0,0-7.81,0,3.86,3.86,0,0,0,.8,2.35l-1.27,2,.23.15a2.33,2.33,0,0,1,.55.45,4.68,4.68,0,0,0-.76-.27,5.33,5.33,0,1,0,4,5.16,5.27,5.27,0,0,0-1.48-3.68l1.3-2.33a3.8,3.8,0,0,0,3.3-1.1l4.08,2.19a3.5,3.5,0,0,0,7-.09,3.44,3.44,0,0,0-.31-1.6L57,11.36h0A3,3,0,1,0,57,5.3Z"/><rect class="cls-1" x="64.78" y="5.13" width="4.61" height="30.01"/><path class="cls-1" d="M93.84,20.88a15.84,15.84,0,0,0-3-2c-1.07-.55-2.07-1.06-3-1.53s-1.73-.89-2.4-1.25A7,7,0,0,1,83.92,15a3.42,3.42,0,0,1-.8-1.19,4.07,4.07,0,0,1-.25-1.52c0-2.62,1.66-3.89,5.08-3.89a13.83,13.83,0,0,1,3.61.48,15.28,15.28,0,0,1,3.17,1.22l.31.16.88-3.77-.18-.1a15.45,15.45,0,0,0-3.58-1.31,16.71,16.71,0,0,0-8.08,0A8.84,8.84,0,0,0,81,6.6a7,7,0,0,0-2,2.53,8,8,0,0,0-.72,3.48A6.68,6.68,0,0,0,79,15.68,8.38,8.38,0,0,0,80.74,18a13.14,13.14,0,0,0,2.5,1.81c.94.52,1.92,1,2.92,1.49s1.71.81,2.49,1.19a9.87,9.87,0,0,1,2,1.27A5.7,5.7,0,0,1,92,25.33a4.15,4.15,0,0,1,.47,2.06,3.74,3.74,0,0,1-1.65,3.3,7.87,7.87,0,0,1-4.49,1.17,16.2,16.2,0,0,1-3.9-.48,20.36,20.36,0,0,1-3.56-1.22L78.57,30l-.93,3.76.2.09A17.12,17.12,0,0,0,82,35.22a22.71,22.71,0,0,0,4.42.45,14.05,14.05,0,0,0,4.12-.59,10.49,10.49,0,0,0,3.36-1.68,8.29,8.29,0,0,0,2.29-2.65A7.38,7.38,0,0,0,97,27.21a7.07,7.07,0,0,0-.92-3.63A10.91,10.91,0,0,0,93.84,20.88Z"/><path class="cls-1" d="M105.12,23.93h1.54a.73.73,0,0,0,.82-.76l.25-2.82h23l-.24,2.76a.8.8,0,0,0,.16.61.75.75,0,0,0,.59.21h1.5a.74.74,0,0,0,.86-.76.87.87,0,0,0,0-.18c0-.23,0-.78.16-2.58l.08-.88a7,7,0,0,1,.12-.83c0-.14,0-.25.05-.33a.72.72,0,0,0-.16-.58.79.79,0,0,0-.63-.21H133l-1,0,1-7.2c.18-1.23.35-2.49.65-3.83a.73.73,0,0,0-.79-.85h-.25c-.28,0-.87.06-2.21.06h-1.94c-1.36,0-1.93,0-2.2-.06H126a.74.74,0,0,0-.85.75l-.11,1.23a.75.75,0,0,0,.16.61.79.79,0,0,0,.62.21h.24c.27,0,.85-.06,2.19-.06h2.17l-.21,1.33h-2.28c-1.08,0-1.53,0-1.78-.06h-.22a.75.75,0,0,0-.83.79L125,11.62a.72.72,0,0,0,.15.58.78.78,0,0,0,.6.21l.24,0c.25,0,.72-.05,1.78-.05h2.07l-.22,1.32h-2.07c-1.08,0-1.53,0-1.78-.06h-.22a.74.74,0,0,0-.83.76l-.09,1.12a.72.72,0,0,0,.15.58.78.78,0,0,0,.6.21h.23c.25,0,.73-.06,1.79-.06h1.84l-.21,1.46h-6l.2-.19.67-.65a.88.88,0,0,0,.32-.64.73.73,0,0,0-.34-.54c-.43-.32-.93-.67-1.52-1.08.25-.19.53-.41.79-.63a1.75,1.75,0,0,1,.54-.28.86.86,0,0,0,.67-.76,1,1,0,0,0-.38-.77,6.15,6.15,0,0,0-.76-.55,1.34,1.34,0,0,0,.61-.43l.55-.53a1,1,0,0,0,.38-.68.69.69,0,0,0-.33-.56c-.46-.35-1-.71-1.49-1.08l.78-.59a1.89,1.89,0,0,1,.52-.31.86.86,0,0,0,.66-.74.91.91,0,0,0-.37-.77A7.59,7.59,0,0,0,123.27,5l-.4-.22-.28.38a6.12,6.12,0,0,1-1.13,1.21l-.7.53c-.74-.46-1.55-.92-2.49-1.41a.88.88,0,0,0-1.07.22l-.6.53a.89.89,0,0,0-.39.74.67.67,0,0,0,.44.53l.49.27c.38.2.77.41,1.15.63a21.44,21.44,0,0,1-3.24,1.29l-.35.11-.11,0-.15-.1,0,.09h-.28c-.23,0-.7.06-1.79.06h-2.07l0-.79c1.13-.29,2.25-.64,3.6-1.11A3.38,3.38,0,0,1,115,7.67a.88.88,0,0,0,.92-.76,1,1,0,0,0-.3-.76,10.38,10.38,0,0,0-1.4-1.3l-.32-.22-.31.25a4.47,4.47,0,0,1-1.27.74c-.89.37-1.69.65-2.74,1A5.45,5.45,0,0,0,108,6.1L107.25,6l.15.75a15.89,15.89,0,0,1,0,3.49l-.34,7.42-1.16,0h-.34a.73.73,0,0,0-.82.72v.34c0,.2,0,.5,0,1l-.07.75c-.15,1.76-.24,2.29-.28,2.56,0,.09,0,.14,0,.2a.8.8,0,0,0,.16.61A.75.75,0,0,0,105.12,23.93Zm10-12.25.08-.9a3.11,3.11,0,0,1,.4.41l0,.07a1,1,0,0,0,.82.53,2,2,0,0,0,.73-.21,24.76,24.76,0,0,0,3.46-1.73c.57.39,1.12.81,1.65,1.24l-.22.31A4.68,4.68,0,0,1,121,12.59c-.23.19-.47.39-.74.59-.82-.52-1.67-1-2.53-1.45a.87.87,0,0,0-1.1.27l-.58.56a.87.87,0,0,0-.29.7.66.66,0,0,0,.46.52c.52.29,1,.58,1.56.88a21.44,21.44,0,0,1-3.11,1.24.91.91,0,0,0,.14-.43l.1-1.13a.8.8,0,0,0-.16-.61.79.79,0,0,0-.59-.21l-.26,0c-.24,0-.7.05-1.73.05h-2l.08-1.25h2c1.07,0,1.53,0,1.79.05l.25,0A.72.72,0,0,0,115.1,11.68Zm-5.15,6,.08-1.53h2c1,0,1.46,0,1.71.06h.06l-.34.1,1,.59a2.23,2.23,0,0,1,.68.62l0,.06.08.1Zm7.23,0a19.49,19.49,0,0,0,2.9-1.49c.6.42,1.32.94,2,1.46l0,0Z"/><path class="cls-1" d="M133.31,26.75h-.22c-.44,0-1.61.06-4.18.06h-7.59a33.18,33.18,0,0,0,4.19-2l.08-.05a6.21,6.21,0,0,1,1.2-.59,1,1,0,0,0,.76-.87c0-.42-.19-.74-.71-1.39s-.78-.83-1.21-.83a1.42,1.42,0,0,0-.53.12,6,6,0,0,1-.68,0h-9.51c-2.68,0-3.82,0-4.19,0h-.21a.73.73,0,0,0-.82.72l-.1,1.23a.74.74,0,0,0,.15.61.76.76,0,0,0,.6.21h.22c.43,0,1.58-.06,4.18-.06h7.11c-.81.38-1.66.74-2.51,1.06l-2.23-.41.07.7a10.49,10.49,0,0,1,0,1.57h-8.9c-2.56,0-3.74-.05-4.19-.06h-.21a.74.74,0,0,0-.82.76L103,28.9a.68.68,0,0,0,.75.83H104c.44,0,1.61-.06,4.17-.06H117l-.23,2.65c-.05.63-.17.78-1.08.78a28.65,28.65,0,0,1-3.41-.16l-1-.11.49.88a4,4,0,0,1,.47,1.24c.16.89.36,1.06,1.29,1.06,3.12,0,4.08-.12,4.9-.63a2.92,2.92,0,0,0,1.36-2.61c0-.36.07-.85.1-1.35l0-.34c0-.42.06-.82.09-1.11l0-.3h8.72c2.55,0,3.74,0,4.18.06h.21a.73.73,0,0,0,.82-.76l.12-1.4a.66.66,0,0,0-.75-.82Z"/><path class="cls-1" d="M166.76,8.9a12.76,12.76,0,0,1,1.84,4h0a.71.71,0,0,0,.67.59,1.64,1.64,0,0,0,.65-.22l.87-.42a.79.79,0,0,0,.47-1.14,15.54,15.54,0,0,0-2.14-4.2.74.74,0,0,0-1.15-.2l-.71.37a1.09,1.09,0,0,0-.64.62A.7.7,0,0,0,166.76,8.9Z"/><path class="cls-1" d="M171.11,15.36h-.21c-.41,0-1.69,0-4.56,0h-.67c.08-1.79.22-3.77.43-6.21a9.19,9.19,0,0,1,.4-2.76.87.87,0,0,1,.07-.17,1.7,1.7,0,0,0,.18-.61c0-.47-.41-.78-.88-.85a19.18,19.18,0,0,0-2.08-.21l-.59,0,.05.59a26.16,26.16,0,0,1-.06,4.08c-.16,2.14-.28,4.21-.39,6.16H160c.4-.83.79-1.69,1-2.32a1.75,1.75,0,0,1,.26-.48l.07-.07a1,1,0,0,0,.31-.64c0-.39-.19-.67-.66-.83l-.12,0c.58,0,.93,0,1.13,0h.19a.73.73,0,0,0,.82-.76l.11-1.19a.81.81,0,0,0-.16-.62.78.78,0,0,0-.59-.2h-.22c-.34,0-1.14.06-3.06.06h-.31l.07-.77a4.54,4.54,0,0,1,.27-1.52l.08-.16a1.18,1.18,0,0,0,.18-.47.85.85,0,0,0-.82-.89h-.11c-.55-.07-1.13-.13-2-.16l-.64,0,.1.64a10.44,10.44,0,0,1,0,2.49l-.08.88h-.16c-1.81,0-2.63,0-3,0h0l.52-.78-.68.53.1-1.05a.79.79,0,0,0-.16-.61.72.72,0,0,0-.56-.21h-.23c-.36,0-1.21.06-3.12.06H145c-1.95,0-2.77,0-3.18-.06h-.19a.73.73,0,0,0-.79.76l-.12,1.36a.81.81,0,0,0,.16.62.7.7,0,0,0,.56.2h.16l.83,0-1.69,19.23c-.55.1-1.05.17-1.72.23l-.57.05.09.56c.13.8.25,1.39.38,1.89s.41.81.8.81a1.33,1.33,0,0,0,.77-.3,4.37,4.37,0,0,1,1.21-.43c1.2-.33,2.86-.85,4.51-1.4l-.17,2c-.16,1.87-.29,2.91-.35,3.37a2.07,2.07,0,0,0,0,.24.77.77,0,0,0,.15.62.79.79,0,0,0,.6.21h1.36a.75.75,0,0,0,.86-.76s0-.12,0-.27c0-.39.07-1.44.24-3.34L150.1,17.9a.51.51,0,0,0,.09.13.69.69,0,0,0,.55.21H151c.52,0,1.74-.06,4.23-.06h7.46a45,45,0,0,0,.44,9.31,24.71,24.71,0,0,1-3.05,3.09c0-.39.07-1.53.38-5l.21-2.49c.13-1.49.24-2.31.3-2.78,0-.14,0-.23,0-.29a.76.76,0,0,0-.16-.61.77.77,0,0,0-.59-.21H160c-.33,0-1,.06-2.53.06h-2.42c-1.49,0-2.19,0-2.54-.06h-.25a.74.74,0,0,0-.83.75v.27c0,.38-.06,1.38-.25,3.56l-.25,2.79c-.34,3.93-.49,5.12-.54,5.52l0,.14a.75.75,0,0,0,.16.61.74.74,0,0,0,.59.21h1.19a.74.74,0,0,0,.83-.75l.15-1.7h4v.13a.88.88,0,0,0,.17.7.76.76,0,0,0,.57.23h.72a28,28,0,0,1-3.23,2.1l-.85.46.84.45a1.88,1.88,0,0,1,.66.63c.22.37.44.72.9.72a1.19,1.19,0,0,0,.59-.22l.18-.1a28.66,28.66,0,0,0,6-5c.9,3.08,2.16,4.58,3.86,4.58s2.86-1.63,3.62-5.62c.18-.71.23-1.07-.49-1.48a2.92,2.92,0,0,1-.89-.73l-.72-1.34L169,27.61c-.56,3.45-1,4.18-1.12,4.32-.42-.07-1-.88-1.71-4.11A33.25,33.25,0,0,0,169.05,23a9.09,9.09,0,0,1,.68-1.26,1.7,1.7,0,0,0,.58-1,.92.92,0,0,0-.56-.9,11.23,11.23,0,0,0-1.73-.79l-.56-.19-.12.59a11.82,11.82,0,0,1-.93,2.69,17.72,17.72,0,0,1-.8,1.65,53.59,53.59,0,0,1-.07-5.64h.62c2.82,0,4.08,0,4.55.06h.22a.74.74,0,0,0,.82-.79l.12-1.3a.8.8,0,0,0-.15-.59A.78.78,0,0,0,171.11,15.36Zm-13.05,6.49-.15,1.7h-4l.15-1.7Zm-.37,4.23L157.52,28h-4l.17-1.93Zm.94-15a7.33,7.33,0,0,1-.3,1.3c-.35,1-.74,2-1.19,3h-1.21a.76.76,0,0,0,.13-.65,14.26,14.26,0,0,0-.91-3.58l-.09-.16h3.58Zm-11.8,11.76-.35,3.94c-1.11.36-2,.63-2.82.86l.42-4.8Zm.6-6.89-.36,4.12h-2.75l.36-4.12Zm.6-6.89-.36,4.12h-2.75l.36-4.12Zm2.84,0,.64,0-.32.52.43-.31-.08.91a.68.68,0,0,0,.75.83h.23l.34,0a.71.71,0,0,0-.31.31.8.8,0,0,0,0,.65,15.32,15.32,0,0,1,.8,3.27s0,.07,0,.11c-1.17,0-1.85,0-2.19,0h-.26a.71.71,0,0,0-.63.29Z"/><path class="cls-1" d="M207.07,7.15h-.23c-.47,0-1.71.07-4.31.07H194a4,4,0,0,1,.22-1.14l.08-.14a1.55,1.55,0,0,0,.23-.66c0-.34-.15-.77-.8-.86l-.28,0c-.61,0-1.19-.11-1.91-.14l-.64,0,.1.63a12.35,12.35,0,0,1,0,2.37h-7.75c-2.55,0-3.74,0-4.27-.07h-.26a.72.72,0,0,0-.82.75l-.12,1.3a.79.79,0,0,0,.16.61.75.75,0,0,0,.59.21h.26c.51,0,1.69-.06,4.28-.06h7.7L190.67,11H187c-2.78,0-4.13,0-4.57-.06h-.26a.72.72,0,0,0-.82.75c0,.06,0,.14,0,.27,0,.3,0,1-.16,2.53l-.26,3c-.13,1.47-.23,2.18-.28,2.5,0,.12,0,.21,0,.27a.76.76,0,0,0,.16.61.77.77,0,0,0,.59.21h.29c.51,0,1.85-.06,4.56-.06h3.61l-.13,1.44c-2.71.11-5.73.18-9,.22-1.07,0-2.16,0-3.32,0l-.6,0,0,.6c.06.69.18,1.44.26,1.87s.39.88.86.88a2,2,0,0,0,.73-.2l.09,0a8.11,8.11,0,0,1,2.38-.2c4.72-.15,9.6-.38,14.56-.7v0a12,12,0,0,1,0,1.71H180.83c-2.58,0-3.74-.05-4.17-.06h-.22a.73.73,0,0,0-.82.75l-.12,1.34a.71.71,0,0,0,.15.58.76.76,0,0,0,.6.2h.23c.45,0,1.65,0,4.17,0h2.94l-.85.5a.88.88,0,0,0-.52.69.77.77,0,0,0,.39.69,14.52,14.52,0,0,1,3.12,3.06.77.77,0,0,0,.61.35,1.21,1.21,0,0,0,.68-.28l1.07-.75a1.08,1.08,0,0,0,.53-.69.73.73,0,0,0-.22-.61,18.41,18.41,0,0,0-3.25-3h10.33l-.23,2.62c-.05.59-.17.81-1.22.81-.4,0-1.47,0-2.88-.13l-1-.09.51.87a4.86,4.86,0,0,1,.46,1.32c.17.78.41,1,1.24,1h.52c2.48,0,3.4-.25,4-.63a2.89,2.89,0,0,0,1.44-2.59c0-.5.08-1,.12-1.6s.08-1,.12-1.56h2.75c2.5,0,3.66,0,4.19,0h.24a.68.68,0,0,0,.79-.72l.11-1.33a.64.64,0,0,0-.71-.82h-.26c-.43,0-1.59.06-4.18.06h-2.67a1.65,1.65,0,0,1,.15-.46l.08-.14a1.55,1.55,0,0,0,.24-.66.76.76,0,0,0-.4-.71l2.63-.19a16.07,16.07,0,0,1,1.19,1.39.77.77,0,0,0,.61.37,1.19,1.19,0,0,0,.68-.29l.87-.55a1,1,0,0,0,.53-.63.77.77,0,0,0-.23-.66A18.94,18.94,0,0,0,202,21.07h0a.74.74,0,0,0,.82-.76s0-.1,0-.24c0-.34,0-1.05.16-2.52l.26-3c.13-1.5.24-2.22.29-2.56a1.62,1.62,0,0,1,0-.23.78.78,0,0,0-.16-.61.75.75,0,0,0-.59-.21h-.28C202,11,200.7,11,198,11h-4.32l.09-1.08h8.62c2.65,0,3.9.05,4.31.06h.22a.73.73,0,0,0,.82-.76L207.83,8a.78.78,0,0,0-.16-.61A.76.76,0,0,0,207.07,7.15Zm-13.75,7.6.1-1.19h7l-.1,1.19ZM198.73,22c-2.13.14-4.16.25-6.07.32l.12-1.33h6a.75.75,0,0,0-.23.45A.67.67,0,0,0,198.73,22ZM193,18.5l.12-1.29h6.94l-.11,1.29Zm-2.86-1.29L190,18.5h-6.27l.12-1.29Zm.32-3.65-.11,1.19h-6.26l.11-1.19Z"/><path class="cls-1" d="M241.26,7.45H241c-.49,0-1.79.06-4.44.06H229A5.47,5.47,0,0,1,229.26,6a1.5,1.5,0,0,1,.09-.18,1.72,1.72,0,0,0,.22-.64c0-.42-.29-.74-.82-.82s-1.46-.14-2.28-.17l-.65,0,.1.64a11.49,11.49,0,0,1,0,2.76h-7.16c-2.66,0-3.95,0-4.43-.06h-.27a.73.73,0,0,0-.82.75,2.47,2.47,0,0,0,0,.32c0,.26,0,.71-.08,1.46L213.05,11c-.2,2.31-.31,3.05-.35,3.33,0,.1,0,.16,0,.21a.72.72,0,0,0,.16.58.77.77,0,0,0,.6.21H215a.72.72,0,0,0,.82-.72l.38-4.29h22.49l-.37,4.23a.72.72,0,0,0,.16.58.79.79,0,0,0,.59.2h1.57a.72.72,0,0,0,.82-.73v-.21c0-.33,0-1.08.24-3.33l.11-1.29c.05-.6.12-1,.15-1.2s0-.26,0-.33a.68.68,0,0,0-.75-.83Z"/><path class="cls-1" d="M233.56,23.42a40.4,40.4,0,0,0,3.9-3.19A7.79,7.79,0,0,1,239,19a1.16,1.16,0,0,0,.68-.86,1,1,0,0,0-.38-.84A11.88,11.88,0,0,0,237.71,16l-.43-.3-.3.45a10.81,10.81,0,0,1-1.14,1.47,29.6,29.6,0,0,1-3.5,3.24A27.15,27.15,0,0,1,231,15.51h1c2.81,0,4.07.05,4.48.06h.22a.75.75,0,0,0,.83-.79l.11-1.27a.85.85,0,0,0-.16-.64.75.75,0,0,0-.59-.21h-.22c-.47,0-1.73.06-4.49.06h-9.89c-2.68,0-4-.05-4.45-.06h-.25a.74.74,0,0,0-.82.79l-.12,1.26a.88.88,0,0,0,.16.65.79.79,0,0,0,.59.21h.26c.48,0,1.74-.06,4.45-.06h1.26a36.21,36.21,0,0,1-10,3.72l-1,.25.79.65a2.83,2.83,0,0,1,.79,1c.42.82.77.8,1.53.56a44.34,44.34,0,0,0,7.5-3,16.82,16.82,0,0,1,1.1,1.51,39.62,39.62,0,0,1-12.27,5.15l-1.09.28.91.64a2.27,2.27,0,0,1,.74.91c.17.33.38.75.88.75a1.59,1.59,0,0,0,.58-.14l.14-.06a45.09,45.09,0,0,0,11.29-5.17,14.4,14.4,0,0,1,.54,1.7c-4.42,3.51-9,5.68-15.64,7.5l-.94.25.71.63a3.53,3.53,0,0,1,.84,1c.16.35.36.8.89.8a2,2,0,0,0,.69-.2,46.2,46.2,0,0,0,13.84-6.86,13.17,13.17,0,0,1-.05,1.64c-.34,3.81-1.47,3.81-2.3,3.81a24.63,24.63,0,0,1-3.42-.23l-1.08-.16.54.93a3.79,3.79,0,0,1,.43,1.28c.11.86.3,1,1.13,1.08a17,17,0,0,0,2,.11c3.8,0,5.23-1.69,5.67-6.69a16.18,16.18,0,0,0-3.59-11.92c.72-.46,1.49-1,2.44-1.7,1.4,8.31,4.45,13.53,10.47,18l.12.09a1,1,0,0,0,.64.28c.41,0,.63-.31.93-.74a4.47,4.47,0,0,1,1.18-1.2l.62-.46-.64-.4A20.79,20.79,0,0,1,233.56,23.42Z"/><path class="cls-1" d="M274.89,20.75h-.26c-.49,0-1.65.06-4.21.06h-8.69l1-11.45h7.12c2.76,0,4,.05,4.44.06V9.16h0l.06.28h.15a.74.74,0,0,0,.83-.76l.13-1.56a.81.81,0,0,0-.15-.62.79.79,0,0,0-.59-.21h-.22c-.41,0-1.65.06-4.46.06H253.17c-2.84,0-4.07,0-4.48-.06h-.22a.73.73,0,0,0-.82.76l-.14,1.57a.79.79,0,0,0,.16.61.75.75,0,0,0,.59.21h.16V9.17h0l.08.26c.46,0,1.7-.06,4.48-.06h6.51l-1,11.45H250c-2.62,0-3.82-.05-4.21-.06h-.22a.73.73,0,0,0-.82.76l-.14,1.6a.73.73,0,0,0,.16.61.74.74,0,0,0,.59.21h.24c.39,0,1.61-.06,4.2-.06h8.41l-.67,7.67c-.17,1.93-.3,2.95-.35,3.33V35c0,.09,0,.16,0,.19a.77.77,0,0,0,.15.62.81.81,0,0,0,.6.21h1.81a.74.74,0,0,0,.82-.76s0-.12,0-.28c0-.44.07-1.47.24-3.33l.67-7.74h8.76c2.56,0,3.71,0,4.2.06h.26a.73.73,0,0,0,.82-.76l.14-1.6a.66.66,0,0,0-.75-.82Z"/><path class="cls-1" d="M270.35,10l-.54-.19-.14.56a7.82,7.82,0,0,1-.62,1.6,34.28,34.28,0,0,1-4.53,6.54l-.53.61.75.22a3,3,0,0,1,1,.51l.14.09a1.1,1.1,0,0,0,.63.27c.38,0,.59-.25.93-.64a46,46,0,0,0,4.31-6.28,2.26,2.26,0,0,1,.55-.76,1.14,1.14,0,0,0,.55-.78.86.86,0,0,0-.53-.86A15.09,15.09,0,0,0,270.35,10Z"/><path class="cls-1" d="M253,19.89h0a.6.6,0,0,0,.27.06,1.79,1.79,0,0,0,.63-.18l1.19-.48a.82.82,0,0,0,.63-1,30,30,0,0,0-3.38-7.65.74.74,0,0,0-1.14-.26l-1,.51c-.29.14-.6.28-.7.61a.65.65,0,0,0,.12.59,29.22,29.22,0,0,1,3,7.28A.76.76,0,0,0,253,19.89Z"/><path class="cls-1" d="M307.49,17.54l0,0A48.19,48.19,0,0,0,299.79,9a.93.93,0,0,0-1.25.09l-.81.52a1.08,1.08,0,0,0-.56.71.74.74,0,0,0,.28.64,44.22,44.22,0,0,1,3.34,3.37c-3.71.38-8.2.75-12.24,1,1.61-2.4,3-4.9,4.35-7.27a7.38,7.38,0,0,1,.91-1.36,1.4,1.4,0,0,0,.49-.85c0-.24-.05-.69-.78-1a14.51,14.51,0,0,0-2.22-.61l-.52-.1-.1.52a10,10,0,0,1-.77,2.18,77.34,77.34,0,0,1-5,8.65l-2.16.09c-1.11,0-2.25,0-3.46,0l-.61,0,.05.61c.08.8.21,1.73.33,2.3a.9.9,0,0,0,.86.81,1.64,1.64,0,0,0,.85-.27,4,4,0,0,1,1.47-.21c5.95-.3,14.24-1,20.68-1.84.61.82,1.19,1.66,1.7,2.5a.78.78,0,0,0,.64.41,1.46,1.46,0,0,0,.72-.29l1.06-.66C307.37,18.6,307.92,18.23,307.49,17.54Z"/><path class="cls-1" d="M302.39,21.16h-.23c-.47,0-1.73.06-4.44.06H288c-2.67,0-3.95-.05-4.44-.06h-.26a.73.73,0,0,0-.82.75.17.17,0,0,0,0,.08h0v.18c0,.44-.07,1.47-.27,3.76l-.26,3c-.38,4.35-.53,5.55-.58,6l0,.16a.76.76,0,0,0,.16.61.77.77,0,0,0,.59.21h1.6a.74.74,0,0,0,.83-.76l.11-1.25h14.31l-.1,1a.81.81,0,0,0,.16.62.71.71,0,0,0,.56.2h1.64a.74.74,0,0,0,.85-.76v-.16c.05-1,.2-3,.46-5.9l.29-3.31c.18-2,.31-3,.35-3.35,0-.12,0-.19,0-.23a.8.8,0,0,0-.16-.61A.81.81,0,0,0,302.39,21.16Zm-2.62,3-.59,6.71H284.87l.59-6.71Z"/></svg>