<svg id="圖層_1" data-name="圖層 1" xmlns="http://www.w3.org/2000/svg" viewBox="0 0 960 540"><defs><style>.cls-1{opacity:0.2;}.cls-2{fill:#030000;}.cls-3{fill:#cd9975;}.cls-4{fill:#cdcecd;}.cls-5{fill:#28626d;}.cls-6{fill:#dfdfdf;}.cls-7{fill:#327180;}.cls-75,.cls-8{fill:#cb5a29;}.cls-9{fill:#b74d2b;}.cls-10{fill:#ab795a;}.cls-11{fill:#ecb864;}.cls-12{fill:#333739;}.cls-13{fill:#290703;}.cls-14{fill:#fff;}.cls-15{fill:#edbd74;}.cls-16{fill:#fcfdfd;}.cls-17{opacity:0.5;}.cls-18{fill:#eaf4f6;}.cls-19{fill:#080509;}.cls-20{fill:#c7c5ca;}.cls-21{fill:#e2dfe7;}.cls-22{fill:#f1ca99;}.cls-23{fill:#31090b;}.cls-24{fill:#3d0d0c;}.cls-25{fill:#0b2130;}.cls-26{fill:#4f1619;}.cls-27{fill:#c79942;}.cls-28{fill:#071a24;}.cls-29{fill:#e9b7a2;}.cls-30{fill:#a9442c;}.cls-31{fill:#efc4b0;}.cls-32{fill:#c49687;}.cls-33{fill:#cc9e8c;}.cls-34{fill:#2d0707;}.cls-35{fill:#331208;}.cls-36{fill:#e18a44;}.cls-37{fill:#6c3f24;}.cls-38{fill:#230607;}.cls-39{fill:#4a1110;}.cls-40{fill:#1c4953;}.cls-41{fill:#36798f;}.cls-42{fill:#999899;}.cls-43{fill:#74599b;}.cls-44{fill:#8065a2;}.cls-45{fill:#4e3a73;}.cls-46{fill:#f2d0c1;}.cls-47{fill:#152f41;}.cls-48{fill:#10222e;}.cls-49{fill:#06131a;}.cls-50{fill:#cbcbcb;}.cls-51{fill:#802826;}.cls-52{fill:#9e2f2a;}.cls-53{fill:#2b0504;}.cls-54{fill:#363536;}.cls-55{fill:#f6f6f6;}.cls-56{fill:#183646;}.cls-57{fill:#e6b19c;}.cls-58{fill:#37434a;}.cls-59{fill:#eee;}.cls-60{fill:#d79e8c;}.cls-61{fill:#d79d8b;}.cls-62{fill:#cf9382;}.cls-63{fill:#11171b;}.cls-64{fill:#bfd5e5;}.cls-65{fill:#233a3c;}.cls-66{fill:#274446;}.cls-67{fill:#182b2c;}.cls-68{fill:#dca950;}.cls-69{fill:#af472b;}.cls-70{fill:#e9e9e9;}.cls-71{fill:#c5c5c5;}.cls-72{fill:#da6b3a;}.cls-73{fill:#ab472c;}.cls-74{fill:#e4f1fa;}.cls-75{font-size:16.61px;font-family:SentyTEA;letter-spacing:0.2em;}.cls-76{letter-spacing:0.3em;}.cls-77{letter-spacing:0.2em;}</style></defs><title>FOIS_Web-關於我們-4</title><g class="cls-1"><path class="cls-2" d="M883.86,459.28c-3.85-7.86-42.35-14.19-91.47-15.2,1.8-1.23,2.82-2.63,2.82-4.12,0-5-11.49-9-25.67-9-11.58,0-21.37,2.7-24.57,6.41a91.57,91.57,0,0,0-16.3-1.34c-14.78,0-26.76,2.91-26.76,6.51,0,2.08,4.05,3.94,10.34,5.13-24,3.05-39.27,7.72-39.27,12.95a3.67,3.67,0,0,0,1.19,2.5c-25.3.53-44.12,2.53-44.12,4.92,0,2.8,25.74,5.07,57.5,5.07,6.75,0,13.22-.11,19.24-.3,18.84,2.76,44.06,4.44,71.79,4.44,28.67,0,54.67-1.8,73.69-4.72a221.91,221.91,0,0,0,22.87,1.11c23.76,0,43-3.24,43-7.24C918.17,462.87,903.44,460,883.86,459.28Z"/><ellipse class="cls-2" cx="821.16" cy="438.34" rx="23.14" ry="3.98"/></g><polygon class="cls-3" points="816.8 424.36 817.63 428.92 813.25 430.06 812.11 425.37 816.8 424.36"/><path class="cls-4" d="M817.73,427.83l3.44,7.83s-.79,4.26-6.91,5c-5.89.64-3.07-3.4-1.75-4.46s.67-5.89.67-5.89Z"/><path class="cls-5" d="M817.73,427.83l2.79,8.38a8.43,8.43,0,0,1-7.37,3.71c-5.19,0-.39-4.71-.39-4.71L813,429Z"/><polygon class="cls-4" points="817.29 429.4 813.17 430.27 813.39 431.14 817.47 430.67 817.29 429.4"/><polygon class="cls-4" points="817.33 431.66 813.19 431.89 813.4 432.75 817.51 432.91 817.33 431.66"/><polygon class="cls-4" points="817.18 433.63 812.95 433.48 813.16 434.35 817.35 434.86 817.18 433.63"/><polygon class="cls-3" points="824.12 426.18 823.84 430.82 819.32 430.88 819.32 426.06 824.12 426.18"/><path class="cls-6" d="M824.41,430.44l1.28,7.76s-1.79,3.95-7.9,3.18c-5.47-.76-1.27-3.94-1.27-3.94l2.67-6.37Z"/><path class="cls-7" d="M824.41,430.44l.51,8.14s-2.42,1.91-7.13,1.4-1.14-2.92-1.14-2.92l2.54-6.62Z"/><polygon class="cls-6" points="823.39 431.2 819.19 431.07 819.19 431.96 823.27 432.47 823.39 431.2"/><polygon class="cls-6" points="822.9 433.41 818.83 432.64 818.83 433.54 822.78 434.66 822.9 433.41"/><polygon class="cls-6" points="822.29 435.28 818.21 434.13 818.21 435.02 822.16 436.52 822.29 435.28"/><path class="cls-8" d="M801.88,391.19c.59-4.14.17-17.08,1.53-26.73.51-3.67,1.12-9.73,2.29-13.75,2.07-7.13,16.06-10,19.48-4.78,8.4,12.8,4,21.44,4,21.44l-4.13,29.18s1.34,10,1.1,13.6c-.27,4.22-2.15,17.6-2.15,17.6l-4.76-.18L818,400.41,815.7,367s-.64,9.12-5.42,25a9.64,9.64,0,0,0,.33,5.83s2.3,4.37,3,5.87c2.4,5.1,2.4,17.35,3.39,21.82,0,0-4.33.73-4.67.94-2-5.51-7.43-22.14-8-23.77C803.71,400.71,801.23,395.73,801.88,391.19Z"/><path class="cls-9" d="M801.88,391.19c.59-4.14.17-17.08,1.53-26.73a126.74,126.74,0,0,1,2.08-13c1.27,2.19,9.74,13.38,10.65,14.82,1.3,2.08,3.42,22.48,3.21,27.06-.07,1.62-1.1,3.76-.41,5.28a4.68,4.68,0,0,0,3.82,2.8c-.4,1.67-1.74,4.61-1.91,6.34-.2,2-.3,4-.37,6-.12,3.77-.39,8,.91,11.62a24.27,24.27,0,0,0,1,2.3l-3.09-.12L818,400.41,815.7,367s-.64,9.12-5.42,25a9.64,9.64,0,0,0,.33,5.83s2.3,4.37,3,5.87c2.4,5.1,2.4,17.35,3.39,21.82,0,0-4.33.73-4.67.94-2-5.51-7.43-22.14-8-23.77C803.71,400.71,801.23,395.73,801.88,391.19Z"/><path class="cls-10" d="M830.08,334.31a94.65,94.65,0,0,1-3-15.37,15.4,15.4,0,0,1,5.9-2.41s.66,6.2.73,9.4S833.79,336.13,830.08,334.31Z"/><ellipse class="cls-11" cx="817.43" cy="298.58" rx="13.62" ry="21.67"/><path class="cls-5" d="M828.31,310.34c.8.29,4,.33,5,8.52a42,42,0,0,1-8,2.41S826.23,309.57,828.31,310.34Z"/><path class="cls-5" d="M827.77,322.73l-20.17.43v3.64c2.31,3.37,4.4,12.16-1.52,23.43,0,0,3.06,2.29,11.08,2.48a33.48,33.48,0,0,0,11.75-1.88C819.07,332.85,827.77,322.73,827.77,322.73Z"/><path class="cls-7" d="M809.19,329.18h15c8.4-3.81-.58-11.32,4.36-18.72L821.83,308l-8.45-.16a69.3,69.3,0,0,0-8.83,2.84C809.12,319.31,801.8,325.77,809.19,329.18Z"/><polygon class="cls-3" points="813.59 302.13 813.77 307.87 812.69 308.15 817.02 321.58 822.22 308.03 820.88 307.45 821.08 302.13 813.59 302.13"/><polygon class="cls-10" points="813.59 302.13 813.77 307.87 812.69 308.15 817.02 321.58 814.39 310.89 817.32 309.66 821.36 303.64 821.08 302.13 813.59 302.13"/><path class="cls-3" d="M827.61,291.46a1.14,1.14,0,0,0-.82.19c-.12-5.85-1.07-12.82-9-12.86-7.59,0-9.18,7.32-9.34,13.2a1.39,1.39,0,0,0-1-.38c-1,.17.28,6.94,2.21,4.84-.21,4.59,6.56,10.07,7.94,9.91,1.55-.17,8.27-4.73,8.1-9.92C827.61,298.15,828.57,291.65,827.61,291.46Z"/><path class="cls-10" d="M823.25,290.69c0,.17-1.07,0-2.39.05s-2.34.33-2.38.15.78-.9,2.09-1S823.2,290.34,823.25,290.69Z"/><path class="cls-12" d="M823.22,290.54c.07.35-1.14-.14-2.45-.08s-2.25.64-2.32.29.88-1,2.2-1S823.15,290.19,823.22,290.54Z"/><path class="cls-10" d="M811.85,290.65c0,.18,1.07,0,2.39.06s2.34.33,2.38.15c.08-.33-.78-.9-2.09-1S811.9,290.31,811.85,290.65Z"/><path class="cls-12" d="M811.88,290.51c-.07.35,1.14-.14,2.45-.08s2.25.64,2.32.29-.88-1-2.2-1S812,290.16,811.88,290.51Z"/><path class="cls-13" d="M815.36,294.62a.86.86,0,0,1-.86.84.84.84,0,0,1-.84-.85.85.85,0,0,1,.85-.85A.86.86,0,0,1,815.36,294.62Z"/><path class="cls-13" d="M821.64,294.79a.85.85,0,1,1-1.69,0,.85.85,0,0,1,1.69,0Z"/><path class="cls-14" d="M815.13,294.23a.28.28,0,0,1-.33.21.26.26,0,0,1-.2-.32.27.27,0,0,1,.53.11Z"/><path class="cls-14" d="M821.49,294.45a.28.28,0,1,1-.21-.33A.28.28,0,0,1,821.49,294.45Z"/><path class="cls-10" d="M816.75,298.55a.85.85,0,0,0,.88.62.86.86,0,0,0,.88-.61Z"/><path class="cls-10" d="M814.78,300.91c.91.09,1.33-1.3,2.89-.6,1.46-.75,2,.52,3.72.26A12.25,12.25,0,0,1,814.78,300.91Z"/><path class="cls-10" d="M816.05,302.08a3.2,3.2,0,0,0,3.74-.76C817.45,303.9,817.45,303.12,816.05,302.08Z"/><path class="cls-15" d="M820.59,278.14s7.26,1.24,6.78,13.28c-1.38-.05-1.64,4.15-1.64,4.15s-.24-8.74-4.44-11.41S820.59,278.14,820.59,278.14Z"/><path class="cls-16" d="M825.51,292.58c-2.5,0-6.82.13-7.11.86-.15.36-1.16.4-1.28,0-.26-.74-5-1-7.22-.89-1.2,0-.79.81-.22.81a16.41,16.41,0,0,0,1.06,3c.48.84,3,.77,4.26.69s1.43-1,1.74-1.69a1,1,0,0,1,1.94,0c.29.74.48,1.61,1.74,1.69s3.77.15,4.25-.69a16.61,16.61,0,0,0,1.07-3C826.31,293.39,826.71,292.56,825.51,292.58ZM816,296.42c-.49.74-4,.39-4.33.29-.95-.27-1.25-1.92-1.62-3.47-.2-.38,6.08,0,6.31.43A3.17,3.17,0,0,1,816,296.42Zm7.8.29c-.34.1-3.83.45-4.32-.29a3.14,3.14,0,0,1-.36-2.75c.23-.46,6.5-.81,6.31-.43C825,294.79,824.72,296.44,823.77,296.71Z"/><g class="cls-17"><path class="cls-18" d="M816,296.42c-.49.74-4,.39-4.33.29-.95-.27-1.25-1.92-1.62-3.47-.2-.38,6.08,0,6.31.43A3.17,3.17,0,0,1,816,296.42Zm7.8.29c-.34.1-3.83.45-4.32-.29a3.14,3.14,0,0,1-.36-2.75c.23-.46,6.5-.81,6.31-.43C825,294.79,824.72,296.44,823.77,296.71Z"/></g><g class="cls-17"><path class="cls-18" d="M811.11,296c-.52-2.8,2.3-1.15,3-2.55-.92-.09-2-.15-2.93-.15a6.4,6.4,0,0,0-1,.05c0,.1.05.2.08.3A8.65,8.65,0,0,0,811.11,296Z"/></g><g class="cls-17"><path class="cls-18" d="M819.7,296.38c-.91-2.9,2.79-1.24,3.7-3.1a16.9,16.9,0,0,0-4.1.48,3,3,0,0,0,.35,2.57S819.71,296.41,819.7,296.38Z"/></g><path class="cls-15" d="M823.84,282.34c-.48,1.72-2.67,6.12-8.88,9.84s-4,10.79-3.1,14.23c-2-.67-7-3.16-6.65-13.33.16-5.05,5.3-20.83,16.43-14.46C822.68,279.21,823.84,282.34,823.84,282.34Z"/><path class="cls-19" d="M826.48,327.14c-.14.51.14.7.62.44l11.84-6.44a2.61,2.61,0,0,0,1.12-1.38l5-18c.14-.5-.14-.7-.62-.43l-11.83,6.44a2.63,2.63,0,0,0-1.13,1.38Z"/><path class="cls-20" d="M826.56,327.21c-.14.5.14.69.62.43L839,321.2a2.61,2.61,0,0,0,1.12-1.38l5-18c.14-.5-.13-.69-.61-.43l-11.84,6.44a2.61,2.61,0,0,0-1.12,1.38Z"/><path class="cls-21" d="M826.56,327.21l5-18a2.61,2.61,0,0,1,1.12-1.38l11.84-6.44c.3-.17.52-.15.61,0a.81.81,0,0,0-.29.11L833,308a2.67,2.67,0,0,0-1.12,1.39l-5,18a.57.57,0,0,0,0,.43C826.6,327.8,826.46,327.59,826.56,327.21Z"/><path class="cls-10" d="M842.25,308.08a12.5,12.5,0,0,1,2.67-3.47c.43-.3-.27-.81-.87-.6a4.88,4.88,0,0,0-1.75,1.18Z"/><path class="cls-3" d="M836.55,304.12c0-.65.9-1.12,1.09-1.13a1.68,1.68,0,0,1,1.46-1,1,1,0,0,1,1.26-.44c1.16.3,1.63.21,2,.85a20.61,20.61,0,0,1,1.31,3c.08.52-1.07,1.83-1.91,3.77a15.16,15.16,0,0,1-2.28,3.32c-2.17,5.23-2.69,14.63-3.31,18.14-.27,1.5-4.23,5.48-5.36,4.8-.54-.32-2.66-5.52-1.57-7.7,4-8,5.76-11.75,7.53-16,.47-1.12-.9.11,1.06-5.16a2.32,2.32,0,0,1-.13-1.1,2.46,2.46,0,0,1-.74-.05l-1.31.71A2.88,2.88,0,0,1,836.55,304.12Z"/><path class="cls-10" d="M839.1,302l2.23.77c.42.15,1,1.75,1.34,2.4-.54-.66-.87-1.86-1.56-2.25S839.7,302.3,839.1,302Z"/><path class="cls-10" d="M837.67,303c.07-.57,1.45-.26,2.16.11.4.21,1.3,2.27,1.63,2.92-.54-.66-1.15-2.44-1.87-2.75A4.14,4.14,0,0,0,837.67,303Z"/><path class="cls-10" d="M836.55,304.12a7.26,7.26,0,0,1,2,0,10,10,0,0,1,1.48,2,7.29,7.29,0,0,0-1.39-2.23A3.79,3.79,0,0,0,836.55,304.12Z"/><path class="cls-10" d="M829.2,327.7c4.11-7.91,6.29-13.24,7.53-16,.5-1.1-.9.11,1.06-5.16a2.32,2.32,0,0,1-.13-1.1,2.46,2.46,0,0,1-.74-.05l-1.31.71a3.11,3.11,0,0,1,.07-.44c.4-.26.88-.6,1.17-.57a6.13,6.13,0,0,0,1.21,0,5.84,5.84,0,0,1,.23,1.6,10.3,10.3,0,0,0-.68,2.1c-.22,1.33-.59,2.2.32,3.2-1.42,1.62-6,10.27-7.18,14.5-.17.58-1.1,4.73,1.32,7.15.56.56,3.63-2.61,4-2.72-1.14,2.16-4.35,5-5.26,4.49C830.23,335.08,828.08,329.87,829.2,327.7Z"/><path class="cls-3" d="M792.81,330.28c.81-1.88,4.14-9.14,6.71-12.19,1.78-4.58,3.65-5.63,5.33-6.77a13.12,13.12,0,0,1,1.25,7.84c-.62.68-1.08,1.13-1.61,1.73-3.24,3.64-5.28,8.64-6.45,10.24,1.12,1.52,1.94,15.11,3.58,16.36l.42,0c.06,0,2.14-1.86,2.62-2.22a1,1,0,0,1,1.18-.67,8.94,8.94,0,0,0,2,.07c.86-.1.87-.08,1.14.2.43.45,1.14,1.23,1.46,1.61.61.73,1.3,1.33,1.39,1.44s-.6.88-1.43.14-.88-1-.88-1-1.19-.82-1.3-1a9.78,9.78,0,0,1-1.54.11,4.81,4.81,0,0,1,2.21.77,9.71,9.71,0,0,0,1.29,1.58c.48.39.66.88,1.11,1.26s-.21,1-1.06.29a4.65,4.65,0,0,1-.89-.94c-.77-.61-1.39-1.22-1.58-1.2a17,17,0,0,1-2-.18c.86.45,1.85.77,2.1.89a15.23,15.23,0,0,1,1.23,1.34c.32.3.94,1,1.13,1.14.39.33-.27,1.37-1.77-.54-.82-.54-1.14-.85-1.23-.88a14,14,0,0,0-1.79-.4,19.58,19.58,0,0,1,1.91.77c.26.2,1,1.19,1.21,1.32a3.9,3.9,0,0,1,.91.74c-.58.64-1.58-.11-1.82-.46a4.6,4.6,0,0,1-1.11-.83,6.73,6.73,0,0,0-1.58-.09c-1,.11-2.8,1.27-4.75-.66a2.17,2.17,0,0,1-.46-.51l0,0a2.79,2.79,0,0,1-.52-.86C796.93,344.52,791.36,333.61,792.81,330.28Z"/><path class="cls-10" d="M808.42,350.6c-.82-.54-1.14-.85-1.23-.88-.86-.21-1.65-.41-1.78-.41.3-.52,1.09.12,2,.12a5.92,5.92,0,0,0,1.26,1c.75,1.06,1.31,1,1.66.82C810.43,351.7,809.75,352.3,808.42,350.6Z"/><path class="cls-10" d="M810.25,350.09a4.65,4.65,0,0,1-.89-.94c-.77-.61-1.39-1.22-1.58-1.2s-1.7-.1-2-.16c-.1,0-.09-.2-.06-.27.16-.36.73-.09,1.24,0a1.6,1.6,0,0,0,1.08-.12,2.32,2.32,0,0,0,.66.87,2.54,2.54,0,0,0,1,.66,1.45,1.45,0,0,0,.52.86.88.88,0,0,0,1.15.14C811.5,350.5,810.89,350.63,810.25,350.09Z"/><path class="cls-10" d="M808.49,345.49a3.14,3.14,0,0,0,1.39,1.31,1.29,1.29,0,0,0,.72,1,1.78,1.78,0,0,0,1.27.23c-.09.3-.77.65-1.45,0s-.88-1-.88-1-1.19-.82-1.3-1a6.49,6.49,0,0,1-1.54.11c0-.29.52-.3.79-.36A6.53,6.53,0,0,0,808.49,345.49Z"/><path class="cls-10" d="M804.43,350.33a2.75,2.75,0,0,1,2.24.23,3.43,3.43,0,0,0,1,.88,1.42,1.42,0,0,0,1.72.69v0c-.58.64-1.58-.11-1.82-.46a4.6,4.6,0,0,1-1.11-.83,6.73,6.73,0,0,0-1.58-.09c-1,.11-2.8,1.27-4.75-.66a2.17,2.17,0,0,1-.46-.51l0,0a3.13,3.13,0,0,1-.46-.72C800.65,350.19,802.46,351.17,804.43,350.33Z"/><path class="cls-5" d="M804.61,310.89c-.8.3-3.3,1.72-5.4,7a20.26,20.26,0,0,0,5.09,3.62c.51.25,1.75-2.17,1.75-2.17A12.32,12.32,0,0,0,804.61,310.89Z"/><path class="cls-22" d="M822,279.21c.87,3.45,1.32,5.31-2.63,9s-11.63,5.08-8.18,17.26c-2.63-4.27-3.5-10.77.18-13.72S822.93,283.43,822,279.21Z"/><path class="cls-22" d="M821.61,278.75c-.82,3.27-2,4.23-6.09,7.23s-8.08,7.35-7,11.9c-1-3.41.09-8.27,2.82-10.59S820.34,281.16,821.61,278.75Z"/><path class="cls-22" d="M820.87,278.41c-2.71,1-14.66,5.34-13.65,15.51C806.12,289.34,808,279,820.87,278.41Z"/><path class="cls-23" d="M714.15,390.35a2.12,2.12,0,0,1-.91,1.64c-.38.26-3.34,3.83-3.83,3.8l-3.87-27.56a48.31,48.31,0,0,1,4.14-4.18,2.14,2.14,0,0,1,1.48-.49l2.27.12a2.14,2.14,0,0,1,2,2.25Z"/><rect class="cls-24" x="693.42" y="378.43" width="28.73" height="6.55" rx="2.14" transform="translate(289 1068.21) rotate(-86.95)"/><path class="cls-8" d="M714.23,363.83c0-.2-.54-.53-.94-.55l-2.27-.12h-.14a2.65,2.65,0,0,0-1.67.59,43.78,43.78,0,0,0-3.91,3.93,2,2,0,0,0-.24.33s0,0,0,0v0a2.64,2.64,0,0,0-.4,1.27l-1,19.35c-.06.48.49.75.53,0l1-19.36a2.14,2.14,0,0,1,2.25-2l2.27.12a2.15,2.15,0,0,1,.95.28l.06-.14h.06S714.16,364,714.23,363.83Z"/><path class="cls-25" d="M705,368h0Z"/><path class="cls-2" d="M710.28,367.34,707,367a1.33,1.33,0,0,0-1.46,1.19l-.23,2.22a1.33,1.33,0,0,0,1.19,1.46l3.28.34a1.34,1.34,0,0,0,1.47-1.2l.22-2.21A1.33,1.33,0,0,0,710.28,367.34Zm.4,1.39-.23,2.21a.53.53,0,0,1-.53.48h-.06l-3.28-.34a.52.52,0,0,1-.36-.19.5.5,0,0,1-.11-.39l.22-2.22a.54.54,0,0,1,.53-.48h.06l3.28.34a.56.56,0,0,1,.36.19A.58.58,0,0,1,710.68,368.73Z"/><path class="cls-2" d="M710.38,367.28l-3.28-.34a1.33,1.33,0,0,0-1.46,1.19l-.23,2.22a1.33,1.33,0,0,0,1.19,1.46l3.28.34a1.34,1.34,0,0,0,1.47-1.19l.22-2.22A1.32,1.32,0,0,0,710.38,367.28Zm.4,1.38-.23,2.22a.54.54,0,0,1-.53.48H710l-3.28-.33a.57.57,0,0,1-.36-.2.5.5,0,0,1-.11-.39l.22-2.22a.54.54,0,0,1,.53-.48H707l3.28.33a.57.57,0,0,1,.36.2A.55.55,0,0,1,710.78,368.66Z"/><rect class="cls-26" x="707.08" y="369.97" width="1.96" height="3.66" transform="translate(254.71 1030.63) rotate(-83.17)"/><path class="cls-27" d="M703.63,387.24a.24.24,0,0,1-.26.23h0a.25.25,0,0,1-.23-.26l.34-5.29a.25.25,0,0,1,.26-.23h0a.25.25,0,0,1,.23.26Z"/><path class="cls-25" d="M737,427.66a15.59,15.59,0,0,0,.83-2.05l2-32.39a7.45,7.45,0,0,0-.48-2.25l.16,0c.15-3.58-.39-21.64-1.17-25.46s-3.85-11.4-3.85-11.4h-.68c.37-1.28.58-2.06.58-2.06h-19.8s-2,10.09-2.51,14.12c-.49,3.74,1,19.44.22,25.6a7.29,7.29,0,0,0-.21,1.15s0,.08,0,.11h0c0,.07,0,.15,0,.22l1.94,32.39a16.55,16.55,0,0,0,.84,2.05,8,8,0,0,1-1.24,2.21l.92,2.3,0,5.19,9.25.3.85-5.69,1.3-2,1.3,2,.85,5.69,9.25-.3,0-5.19.92-2.3A8,8,0,0,1,737,427.66Zm-11.1.87-.42-1.39.42-.66.42.66Zm1.24-6.76c0,.41-.68,1.11-1.24,1.88-.56-.77-1.21-1.47-1.24-1.88-1.29-16.85,1.72-24.8.23-31.65h0c0-2.53-.08-6.75-.25-9.28a8.55,8.55,0,0,1,.36-3.51c.64-.1,1.09.36,1.08,2.06,0,3.25.77,10.88.93,12.36,0,.15-.08.31-.11.47C725.39,399.07,728.41,404.92,727.12,421.77Z"/><path class="cls-28" d="M731.5,435.87c-1-.9-2.13-2.18-1.94-3.62s1.56-2.54,2.87-3.25a19.84,19.84,0,0,1-4.12-1.48.22.22,0,0,1,0-.34c.72-.53,1.2-1.24,1.93-1.74-2.4-2.34-1.4-6.46-1.24-9.42.23-4.11-1.13-8.15-.53-12.36,0-.25,1.86-6.83,3.1-5.29-2.58-3.22-4.24-7.06-3.79-11.32.35-3.37.25-7.47,1.81-10.56.43-.86,1-1.17.34-1.93-1.15-1.26-6.5-.71-7.85-.15s-.45.82.26,1.85c2.15,3.11,1.21,7.62.93,11.15-.26,3.26-.57,6.34-2.43,9.14-1.12,1.67-.61,1,.53,2.26,2.38,2.61,0,8.85.06,12,.07,3.55,1.16,7,1.19,10.57,0,1.46.45,3.82-.34,5.12s-2.34.6-3.4,1.53c-1.43,1.25,3.66.83,4.26,1.12,2.38,1.19-1.24,2.4-2.3,2.35s-3.78-.67-3.56,1.07c2.18-.26,3.75,2.3,3.32,4.23-.05.24-.12.48-.18.71l3.32.11.85-5.69,1.3-2,1.3,2,.85,5.69,5.53-.18A15.87,15.87,0,0,1,731.5,435.87Zm-5.62-7.34-.42-1.39.42-.66.42.66Zm1.24-6.76c0,.41-.68,1.11-1.24,1.88-.56-.77-1.21-1.47-1.24-1.88-1.29-16.85,1.72-24.8.23-31.65h0c0-2.53-.08-6.75-.25-9.28a8.55,8.55,0,0,1,.36-3.51c.64-.1,1.09.36,1.08,2.06,0,3.25.77,10.88.93,12.36,0,.15-.08.31-.11.47C725.39,399.07,728.41,404.92,727.12,421.77Z"/><path class="cls-28" d="M737.67,363.13c-1.18-3.95-3.25-9.05-3.25-9.05h-.68c.37-1.28.58-2.06.58-2.06h-19.8s-.93,4.7-1.68,9C724.94,369.59,734.52,364.71,737.67,363.13Z"/><path class="cls-6" d="M724.65,444.22a35.87,35.87,0,0,0-.57-6.73c-5.48-1.6-9.59-.54-9.89,1.29-2,1.29-6.05,3.55-4.63,5.49Z"/><path class="cls-14" d="M724.36,444.22c-.37-3.71-1.66-6.15-2.37-6.79-2.14-.92-5.51-1.05-7.2-.24,0,0-.38.74-.9,1.59-2,1.29-6,3.55-4.62,5.49Z"/><path class="cls-6" d="M725.05,444.82a.67.67,0,0,1-.66.66H709.23a.67.67,0,0,1-.66-.66h0a.66.66,0,0,1,.66-.66h15.16a.66.66,0,0,1,.66.66Z"/><path class="cls-6" d="M721.88,438.59c-.09-.37-.21-.74-.32-1.11a11.1,11.1,0,0,0-2-.53,8.76,8.76,0,0,0-4.72.3c-.16.37-.32.74-.46,1.11,1.05-.66,3.11-.67,5.24-.3a7.94,7.94,0,0,1,2.31.78Z"/><path class="cls-6" d="M722,439a23.17,23.17,0,0,0-2.87-.7,9.35,9.35,0,0,0-4.87.28l-.58.58c1-.66,6.38-.35,8.61.87C722.38,439.85,722,439,722,439Z"/><path class="cls-6" d="M727.82,444.22a35.87,35.87,0,0,1,.57-6.73c5.47-1.6,9.59-.54,9.89,1.29,2,1.29,6,3.55,4.63,5.49Z"/><path class="cls-14" d="M728.11,444.22c.36-3.71,1.66-6.15,2.37-6.79,2.13-.92,5.51-1.05,7.19-.24,0,0,.39.74.9,1.59,2,1.29,6,3.55,4.63,5.49Z"/><path class="cls-6" d="M727.42,444.82a.66.66,0,0,0,.66.66h15.16a.67.67,0,0,0,.66-.66h0a.66.66,0,0,0-.66-.66H728.08a.65.65,0,0,0-.66.66Z"/><path class="cls-6" d="M730.59,438.59c.09-.37.21-.74.32-1.11a11.1,11.1,0,0,1,2-.53,8.76,8.76,0,0,1,4.72.3q.24.56.45,1.11c-1-.66-3.1-.67-5.23-.3a7.84,7.84,0,0,0-2.31.78Z"/><path class="cls-6" d="M730.45,439a23.17,23.17,0,0,1,2.87-.7,9.35,9.35,0,0,1,4.87.28l.58.58c-1-.66-6.39-.35-8.61.87C730.09,439.85,730.45,439,730.45,439Z"/><path class="cls-29" d="M741.26,315.9c1.4.87,3.33,3.5,3.85,8.75s7.71,14,4.9,19.26-7.26-.88-7.52-3-1-7.18-1.84-8.93-3.07-5.16-3.07-5.16Z"/><path class="cls-9" d="M737.19,327.22l2,3s6.2-2.13,7.64-4.62c-.39-3.24-3.21-9.33-5.51-9.66A81.25,81.25,0,0,1,737.19,327.22Z"/><path class="cls-29" d="M709.3,318.14s-5.43,1.21-5,9.74c.37,7.05-.18,10.3-.18,14.85,0,1.22.89,5,2.09,6,4.07,3.44,7.75-4.11,6.44-5.59-1.88-2.12,0-4.3-.68-13.5a36.81,36.81,0,0,1,.18-4.9Z"/><path class="cls-9" d="M713.39,327.23l-.43,2.85s-7.6-.58-9.24-4c-.24-4.32,3-10.27,5.36-10.4C709.56,318.68,712.89,326.32,713.39,327.23Z"/><path class="cls-9" d="M713.28,360.07c-1.63-.57,1.72-1.82,0-5-.23-.42,1-1.59.22-3-1.07-2,.63-.63.63-4a136.56,136.56,0,0,0-2.66-27.27h26.48s-3,22.49-.7,39.48C727.07,365.84,713.28,360.07,713.28,360.07Z"/><path class="cls-8" d="M716.34,312.37H733.6c3,1.24,8.08,3.38,7.83,3.7-1.25,4.53-3.46,15.23-10.57,15.23h-12c-8.06,0-9.16-10.76-10.41-15.29C708.36,315.76,713.36,313.62,716.34,312.37Z"/><path class="cls-30" d="M713.57,355.26a50.61,50.61,0,0,0,11.74,5.13C721.7,360.35,715.4,359.46,713.57,355.26Z"/><path class="cls-26" d="M707.06,368.14l27.79-55.59s3.74.53,4.55,2.14c-1.21,3.2-28.34,52.65-29.4,54C707.72,368.28,707.06,368.14,707.06,368.14Z"/><path class="cls-24" d="M729.51,323.22l-16.36,32.72.68.27c.87.35,1.73.75,2.6,1.12,5-9.11,12-21.83,16.94-31C732.1,325.25,730.82,324.23,729.51,323.22Z"/><polygon class="cls-31" points="729.14 306.63 730.25 310.8 733.39 312.44 724.89 319.25 716.17 312.44 719.52 310.81 720.63 306.63 729.14 306.63"/><polygon class="cls-32" points="729.14 306.63 730.25 310.8 733.62 312.37 724.89 319.25 724.85 313.18 719.94 309.24 720.63 306.63 729.14 306.63"/><path class="cls-31" d="M714.58,295a1.17,1.17,0,0,1,.85.21c.17-6.06,1.42-12.22,9.68-12.22,7.87,0,9.55,6.19,9.69,12.28a1.26,1.26,0,0,1,.94-.27c1,.19,1.08,1.86.72,3.81s-1,3.43-2,3.24a1.17,1.17,0,0,1-.76-.55c0,4.63-4.85,9.42-8.57,9.42s-8.53-4.63-8.53-9.33a1.15,1.15,0,0,1-.69.46c-1,.19-1.52-1.3-1.88-3.24S713.58,295.2,714.58,295Z"/><path class="cls-33" d="M716.58,301.72a1.13,1.13,0,0,1-.69.46c-1,.18-1.48-1.41-1.88-3.25.78,1.58,1.48,3.05,2.28,1.64.06-.1-.17-4.6-.06-4.62s-.76-.48-.8-.63c.11-3.73.62-7.5,2.94-9.84a31.94,31.94,0,0,0-1,8.27c0,9.11,3.54,15,7.77,15s7.53-5.9,7.53-15a32.13,32.13,0,0,0-1.06-8.37c2.23,2.15,3.16,5.63,3.25,10l-1,.68c.12,0-.17,4.2-.13,4.31.4.93,1.32,1.08,2.49-.41-.36,1.59-1.07,2.33-1.78,2.2a1.2,1.2,0,0,1-.76-.55c0,4.63-4.85,9.3-8.57,9.3S716.58,306.42,716.58,301.72Z"/><path class="cls-33" d="M719.55,294.49c0,.25.85,0,1.91,0s1.91.34,1.91.1c0-.46-.74-1.21-1.8-1.23S719.54,294,719.55,294.49Z"/><path class="cls-33" d="M730.58,294.6c0,.24-.89-.14-1.94-.14s-1.87.38-1.88.14c0-.84.82-1.38,1.87-1.38S730.72,293.84,730.58,294.6Z"/><path class="cls-34" d="M719.55,294.3c0,.48.89-.25,1.94-.23s1.88.78,1.89.3-.84-1.29-1.89-1.31S719.56,293.81,719.55,294.3Z"/><path class="cls-35" d="M730.59,294.3c0,.48-.89-.25-2-.23s-1.87.78-1.88.3.83-1.29,1.89-1.31S730.58,293.81,730.59,294.3Z"/><path class="cls-13" d="M728.37,297.54a.88.88,0,1,0,.88-.88A.88.88,0,0,0,728.37,297.54Z"/><path class="cls-14" d="M728.55,297.28a.44.44,0,0,0,.44.44.44.44,0,1,0,0-.88A.44.44,0,0,0,728.55,297.28Z"/><path class="cls-13" d="M721.42,297.68a.88.88,0,1,0,.88-.88A.88.88,0,0,0,721.42,297.68Z"/><path class="cls-14" d="M721.54,297.42A.45.45,0,1,0,722,297,.45.45,0,0,0,721.54,297.42Z"/><path class="cls-33" d="M726.72,303.29a1.94,1.94,0,0,1-3.28,0Z"/><path class="cls-34" d="M735.33,294.35s3.65-6.53-1.39-12.44c-6-5.78-7.43-7.67-7.51-9.22a13.9,13.9,0,0,0-4.15,4.63c-.49-.16-.82-1.15-.58-1.8a9.34,9.34,0,0,0-3.93,4.51.9.9,0,0,1-.25-1,12.51,12.51,0,0,0-2.37,15.37l1.06.73.07,3.53,1.16-4s-1.42-6.81,1-5.87c3.3,1.25,9.82.88,12.94-.19s1.45,5.65,1.45,6.15,1.07,3.85,1.07,3.85l.19-3.46Z"/><path class="cls-35" d="M735.86,287c-1.72,1.47-6.23,3-11.07,3s-14.69-1.56-7.71-9.35c-.17.57-1.32,9.51,17.72,6.31-4.76.25-22.81-1.23-13.62-9.84-.08.82-2.13,5.09,12.14,9-4.92-2.13-14.27-6.48-7.22-12-.25,1.14.74,4.75,3.86,6.8S735.55,285.09,735.86,287Z"/><path class="cls-36" d="M716.72,296.71a24.22,24.22,0,0,0,1.12,3.84c.51,1.07,3.16,1,4.5.87s1.54-1.2,1.84-2.14c.41-1.24,1.62-1.25,2.05,0,.33.93.51,2,1.84,2.14s4,.2,4.5-.87a23.43,23.43,0,0,0,1.13-3.84c.6,0,1-1-.24-1-2.33-.1-7.36.2-7.63,1.13-.13.47-1.19.42-1.35,0-.31-.92-4.88-1-7.52-1.09C715.69,295.67,716.11,296.71,716.72,296.71Zm9.95.35c.24-.58,6.87-1,6.67-.54-.4,2-.71,4-1.72,4.39-.36.12-4.06.56-4.57-.37A4.62,4.62,0,0,1,726.67,297.06Zm-9.59-.54c-.21-.48,6.43,0,6.67.54a4.62,4.62,0,0,1-.38,3.48c-.52.93-4.21.49-4.57.37C717.79,300.56,717.47,298.48,717.08,296.52Z"/><g class="cls-17"><path class="cls-18" d="M726.67,297.06c.24-.58,6.87-1,6.67-.54-.4,2-.71,4-1.72,4.39-.36.12-4.06.56-4.57-.37A4.62,4.62,0,0,1,726.67,297.06Zm-9.59-.54c-.21-.48,6.43,0,6.67.54a4.62,4.62,0,0,1-.38,3.48c-.52.93-4.21.49-4.57.37C717.79,300.56,717.47,298.48,717.08,296.52Z"/></g><g class="cls-17"><path class="cls-18" d="M732.19,300c.55-3.54-2.44-1.45-3.22-3.22a29.47,29.47,0,0,1,3.1-.19,5.23,5.23,0,0,1,1,.06c0,.13-.05.26-.08.39A13,13,0,0,1,732.19,300Z"/></g><g class="cls-17"><path class="cls-18" d="M723.1,300.49c1-3.66-3-1.57-3.91-3.91a14.87,14.87,0,0,1,4.34.6,4.37,4.37,0,0,1-.38,3.24S723.09,300.52,723.1,300.49Z"/></g><circle class="cls-13" cx="725.81" cy="306" r="0.55"/><path class="cls-29" d="M727.32,349.54a8.06,8.06,0,0,0,3.26-2.61c.79-1.13,1.35-1.08,2.06-.34s-.19,2.57-1.28,3.37C730.56,350.55,727.32,349.54,727.32,349.54Z"/><path class="cls-29" d="M724.21,354.62c1.09.23,7.21.09,8.07-3.4-.86-1.25-6.22-1.17-7.82,1S724.21,354.62,724.21,354.62Z"/><path class="cls-31" d="M712.54,342c3.21,1.58,7.48,7.68,11.51,9.09.85,0,1.65-.81,2.72-1.35a14.12,14.12,0,0,0-2.81,4.37c-.23-.07-.35-.09-.79-.19-3.34-.71-2.11-1-12.38-3.39-2.72-.63-6.21-3-5.72-5.87C705.53,342,708.54,340.08,712.54,342Z"/><path class="cls-29" d="M710.58,341.29c-4.9.47-5.51,4.7,5.86,9.19,9.85,3.89,5.72,1.33,7.83.64.78-.09,1.53-.85,2.5-1.34a14.11,14.11,0,0,0-2.8,4.36c-.23-.07-.36-.08-.8-.18-3.34-.71.06-.25-10.21-2.6-2.73-.63-8.43-1.49-7.89-6.66C705.15,343.93,705.88,340.37,710.58,341.29Z"/><path class="cls-31" d="M734.38,350.31c.21-.7-.28-.64,0-1.3a11.86,11.86,0,0,1-1.77-1c-1.31-1-2,0-3.06.27s-1.28.91-2.26,1.12c-.76.16-1.09,1-1.66,1.47-2.17,1.65-1.74,2.73-1.73,3.29l1.32-.68a14.8,14.8,0,0,1,2.45,1.59,4.65,4.65,0,0,0,.59,1.67c0,.56.43,1.95,1.59,1.8.32,0,.41-.53,0-1.53-.13-.29-.32-1.77-.44-2.17a24,24,0,0,0-1.63-2.19,16.78,16.78,0,0,1,1.81,1.72c.09.09.2.65.7,1.82.07,3.09,2.18,2.31,2,1.67-.08-.32-.38-1.28-.48-1.83a20.75,20.75,0,0,0-.47-2.32,28,28,0,0,1-1.74-2.47,19.86,19.86,0,0,0,2.34,1.68,8.79,8.79,0,0,1,.82,2.41A4.88,4.88,0,0,0,733,357c.39,1.37,2,1,1.86.32s-.07-1.1-.29-1.86a15.25,15.25,0,0,1-.32-2.74c-.16-.89-1.38-1.87-2-2.41C732.88,350.58,733.23,350.22,734.38,350.31Z"/><path class="cls-29" d="M725.2,352.62c0,.55,2.41,1.74,2.64,2.05s.31,1.31.71,2.05c.12.89.42,1.42,1.57,1.47,0,.18-.17.33-.26.34-1.16.15-1.62-1.24-1.59-1.8a4.65,4.65,0,0,1-.59-1.67,5.44,5.44,0,0,0-1.5-1,1.87,1.87,0,0,1-2.87,0c-.54-.58.64-1.06.66-1.09C724.28,354.12,725.21,352.36,725.2,352.62Z"/><path class="cls-29" d="M730.27,356.18c-.5-1.17-.61-1.73-.7-1.82-.86-.85-1.64-1.64-1.79-1.73.85-.33,1.22.91,2.31,1.56a6.45,6.45,0,0,0,.61,2c-.06,1.67,1,1.85,1.56,1.89C732,358.61,730.33,358.93,730.27,356.18Z"/><path class="cls-29" d="M733,357a4.88,4.88,0,0,1-.22-1.64,8.79,8.79,0,0,0-.82-2.41,23.25,23.25,0,0,1-2.29-1.62c-.12-.07.07-.27.17-.32.52-.26,1,.43,1.52.9a2.54,2.54,0,0,0,1.43.65,2.44,2.44,0,0,0,0,1.39,2.78,2.78,0,0,0,.6,1.42,1.65,1.65,0,0,0-.16,1.29c.14.73,1,.72,1.62.84C734.46,358.16,733.27,358,733,357Z"/><path class="cls-31" d="M732.6,348a13.7,13.7,0,0,0,3.59,1.09,28.88,28.88,0,0,0,4.29,1.29.9.9,0,0,1,.31,1.49c-.54.51-1.17.51-2.51.1-1.19-.36-1.9-.32-3-.65a17,17,0,0,1-2.89-.91C732,350.12,732.6,348,732.6,348Z"/><path class="cls-26" d="M725.62,319.37l2,13.68c0,.23.39.4.77.4H733c.38,0,.73-.17.77-.4l2-13.68Z"/><path class="cls-26" d="M725.62,318.81l2-2.66a2.13,2.13,0,0,1,.77-.08H733a2.13,2.13,0,0,1,.77.08l2,2.66Z"/><path class="cls-37" d="M729.91,318.55h5.32l-1.61-2.18a3.41,3.41,0,0,0-.6,0h-3.11Z"/><path class="cls-6" d="M736.32,319.12a.49.49,0,0,1-.49.5H725.39a.49.49,0,0,1-.49-.5h0a.49.49,0,0,1,.49-.49h10.44a.49.49,0,0,1,.49.49Z"/><path class="cls-14" d="M735.32,318.86h-5.45v.53h5.45a.27.27,0,1,0,0-.53Z"/><path class="cls-37" d="M727.85,320H726l1.82,12.69c0,.2.36.37.71.37h.38Z"/><path class="cls-37" d="M731.53,320l-.4,13.06h1.72c.35,0,.67-.17.71-.37L735.38,320Z"/><polygon class="cls-34" points="734.36 329.06 735.14 323.63 726.23 323.63 727.01 329.06 734.36 329.06"/><polygon class="cls-38" points="728.18 323.63 726.54 323.63 727.33 329.06 728.59 329.06 728.18 323.63"/><polygon class="cls-39" points="731.47 323.63 731.2 329.06 734.09 329.06 734.81 323.63 731.47 323.63"/><path class="cls-6" d="M725.94,305.7c-.22-.1-.56.31-.22.5,1.06.58,4.73,2.43,4.73,2.43v7.45h.7v-7.93S727.38,306.33,725.94,305.7Z"/><path class="cls-31" d="M748.56,337.67c-2.46-2.28-9.35-3.63-11.91-6.73-.32-.76.2-1.86.35-3.06a16.25,16.25,0,0,1-3.07,4.42,5.63,5.63,0,0,1,.43.64c1.71,2.78,1.62,1.5,7,9.94,1.43,2.24,4.69,4.44,7.14,2.78S751.61,340.52,748.56,337.67Z"/><path class="cls-29" d="M749.53,338.77c1.14,4.7-2.17,7.43-9.87-1.12-6.66-7.4-3-4.69-3.08-6.92a11.13,11.13,0,0,1,.42-2.85,15.9,15.9,0,0,1-3.06,4.4c.14.19.19.3.42.66,1.71,2.78.21-.15,5.62,8.29,1.43,2.23,4,7.1,8.55,4.43C749.2,345.26,751.87,342.7,749.53,338.77Z"/><path class="cls-31" d="M736.75,321.75a12.67,12.67,0,0,1-2.1-1.81,1.4,1.4,0,0,0-1.77-.42c-.76.23-1.71.39-2.3.62-1.12.44-1.86.79-2,.85s-.24,1.75,1.12,1.48,1.61-.62,1.61-.62a18.81,18.81,0,0,0,2-.2c.4.63,1.37,1.13,1.55,1.41-.69-.34-2-1.05-2.83-.82a14.13,14.13,0,0,1-2.59.87c-.76.12-1,.4-1.77.52s-.49,1.79.88,1.57a4.73,4.73,0,0,0,1.56-.49,8.89,8.89,0,0,1,2.45-.27,15.84,15.84,0,0,0,2.26,1.45,21.34,21.34,0,0,1-2.79-.56,22,22,0,0,0-2.26.55c-.53.14-1.49.27-1.81.33-.63.12-.66,2.39,2.17,1.15,1.21,0,1.76-.17,1.87-.13a15.31,15.31,0,0,1,2.14.94,22.08,22.08,0,0,0-2.51-.57c-.4.06-1.81.51-2.11.52-1,0-1.46.3-1.4.61.23,1.13,1.65,1,2.14.7a4.66,4.66,0,0,0,1.71-.16,11.73,11.73,0,0,1,2.21,1.58l-.27,1.59c.52-.23,1.71-.39,2.51-3.07.21-.71.91-1.39.81-2.15-.13-1,.37-1.52.28-2.55S738.07,322.53,736.75,321.75Z"/><path class="cls-29" d="M725.74,320.24c-.51-.3-1-.4-1.22,0a1.77,1.77,0,0,0,1.2,2.69,2,2,0,0,0,.41,0Z"/><path class="cls-29" d="M734.93,330.51c-.49.27-2.35-1.47-2.7-1.56a19.65,19.65,0,0,1-2.09.22c-.84.26-1.41.21-1.83-.83a.58.58,0,0,0-.23.39c.23,1.13,1.65,1,2.14.7a4.66,4.66,0,0,0,1.71-.16,11.62,11.62,0,0,1,2.17,1.55l-.23,1.62a1.78,1.78,0,0,0,1.19-.68C733.86,332,735.16,330.39,734.93,330.51Z"/><path class="cls-29" d="M730.09,327.36c1.21,0,1.76-.17,1.87-.13,1,.43,2,.82,2.14.92,0-.92-1.22-.74-2.16-1.46a5.93,5.93,0,0,1-2,.27c-1.49.76-2-.11-2.21-.64C727.32,326.79,727.57,328.47,730.09,327.36Z"/><path class="cls-29" d="M728.51,325.2a4.73,4.73,0,0,0,1.56-.49,8.89,8.89,0,0,1,2.45-.27,21.17,21.17,0,0,0,2.19,1.43c.11.08.22-.18.24-.3.07-.59-.7-.71-1.3-1s-.71-.57-1-1a2.58,2.58,0,0,1-1.26.58,2.49,2.49,0,0,1-1.48,0,1.77,1.77,0,0,1-1.12.7c-.71.17-1-.58-1.28-1.13A1,1,0,0,0,728.51,325.2Z"/><path class="cls-29" d="M733.41,320.69a3.32,3.32,0,0,1-2.32.54,1.57,1.57,0,0,1-2.66,0,1,1,0,0,0,1.23,1.27c1.31-.26,1.61-.62,1.61-.62a18.81,18.81,0,0,0,2-.2,8.21,8.21,0,0,0,1.55,1.41c.18-.39-.35-.82-.6-1.11A12.84,12.84,0,0,1,733.41,320.69Z"/><path class="cls-40" d="M781.82,443c0,3.56-4.29,6.09-10.43,6.09s-11.83-2.35-11.83-6.09c0-2.39,5.23-4.33,11.13-4.33S781.82,440.56,781.82,443Z"/><path class="cls-41" d="M781.37,442.39c0,2.78-4.15,4.67-10,4.67S760,445.17,760,442.39s4.78-5,10.68-5S781.37,439.61,781.37,442.39Z"/><path class="cls-6" d="M769,413.36V441c0,1.36,3.53,1.28,3.53,0V413.36Z"/><path class="cls-42" d="M768.15,412.3V426c0,2,5.15,1.86,5.15,0V412.3Z"/><path class="cls-40" d="M795,405.74c0,7.79-10.9,9.95-24.34,9.95s-24.34-1.77-24.34-9.95c0-5.24,11.44-9.48,24.34-9.48S795,400.5,795,405.74Z"/><path class="cls-41" d="M794.05,405.74c0,5.23-10.46,7.59-23.36,7.59s-23.36-2.36-23.36-7.59,10.46-9.48,23.36-9.48S794.05,400.5,794.05,405.74Z"/><path class="cls-40" d="M795,365.17c0,25.11-10.9,32.07-24.34,32.07s-24.34-5.69-24.34-32.07c0-16.87,11.44-30.55,24.34-30.55S795,348.3,795,365.17Z"/><path class="cls-41" d="M794.05,367.21c0,18-10.46,26.1-23.36,26.1s-23.36-8.11-23.36-26.1,10.46-32.59,23.36-32.59S794.05,349.21,794.05,367.21Z"/><path class="cls-43" d="M782.11,397.29a214.39,214.39,0,0,1,3.61-34.71H757.05a297.53,297.53,0,0,1,3.61,34.71Z"/><path class="cls-44" d="M780.43,353.49H761.74c-3.29,1.35-8.75,3.67-8.48,4,1.35,4.9,1.55,13.46,9.45,16.49h16.81c8-2.79,8.13-11.65,9.48-16.56C789.06,357.17,783.65,354.85,780.43,353.49Z"/><path class="cls-43" d="M753.24,357.46c-2.34,1.11-2.91,5-5.3,9.25-1.41,2.51-4.61,12.25-5.42,12.29-10.79.54-11.1,9-6.29,9l10.83,0c5.07,0,7.74-17.28,11.78-16.28C755.37,368.42,753.24,357.46,753.24,357.46Z"/><path class="cls-45" d="M753.68,359.2c.59,7.52,3,10.79,3.35,11.51-2.47,2.05-4.71,9.47-6.09,11.39-.58.81-3.83,1.34-6.71.6-1.26.35-1.3,2.3-2.36,2.24l.08,3,4.67,0c5.33,0,6.78-12.58,10.76-15.77.07-.05,1-.77,1.56-.55C758.8,371.57,756.39,369.78,753.68,359.2Z"/><path class="cls-43" d="M789,357.43c2.35,1.11,2.92,5,5.3,9.25,2.59,4.61,14.82,16,6.06,20.34-7.37,3.64-12.92-16.32-17-15.33C786.88,368.38,789,357.43,789,357.43Z"/><path class="cls-45" d="M783.4,371.69c.15-.12,2.56-1.91,5.27-12.49-.6,7.52-3,10.79-3.35,11.51,2.47,2.05,5.36,7.53,6.74,9.45s10.11,10.77,11.31,1.22c.4,2.29-.3,4.3-3,5.64-6.26,3.1-11.41-11.59-15.39-14.78C784.9,372.19,784,371.47,783.4,371.69Z"/><path class="cls-29" d="M774.56,378.8c-1-.37-2.16-1.7-1.12-2.75.81-.81,2.72,1.66,4,2.46A3.59,3.59,0,0,1,774.56,378.8Z"/><path class="cls-31" d="M775.3,385.87a1.76,1.76,0,0,1-1.47-1.13,2,2,0,0,1-1.39-1.56,1.34,1.34,0,0,1-.85-1.51c.08-.72,0-1.73.73-2.2a25.9,25.9,0,0,1,3.52-2c.59-.16,2.28,1,4.65,1.74,2.16.67,2.71,3.22,4,3.65,4.35.11,8-4.6,11.6-5,4.5-.48,6.87,2.67,6.51,5.69-.38,3.18-4.49,4.28-7.33,3.87-10.74-1.57-7.29-.72-10.77-1.28a3.86,3.86,0,0,0-1.7-.09,2.71,2.71,0,0,1-2.85-.11,14.18,14.18,0,0,0-2.37-1.52,2.18,2.18,0,0,1-.86,0,1.14,1.14,0,0,1,0,.81l.86.79s-.48,1-1,.83S775.71,386.77,775.3,385.87Z"/><path class="cls-46" d="M772.44,383.18c.27-1.14.41-1.86.61-2.71.12-.51,1.92-1.4,2.63-1.87-.7.71-2.06,1.25-2.43,2.11S772.75,382.43,772.44,383.18Z"/><path class="cls-46" d="M773.83,384.71c-.67,0-.5-1.66-.15-2.54.19-.49,2.48-1.81,3.19-2.28-.7.72-2.69,1.66-3,2.55A4.67,4.67,0,0,0,773.83,384.71Z"/><path class="cls-46" d="M775.3,385.87a8.47,8.47,0,0,1-.28-2.29c.15-.46,2.1-1.93,2.17-2a8.67,8.67,0,0,0-2.43,1.92A4.4,4.4,0,0,0,775.3,385.87Z"/><path class="cls-29" d="M776.1,385.68a1.15,1.15,0,0,0,.11-1.39c1-.2,2-.62,2.75.08,2.83,2.74,4-.12,3.56-1.46-.93-3.14-5.79-5-6.4-5.47.76.14,2.31,1.11,4.37,1.74s2.64,2.93,3.79,3.56c1.85,1.54-2.94,2.59,7.84,2.39,12.45-.23,9.64-5,8.53-6.19a5.55,5.55,0,0,1,2,4.6c-.43,2.86-4.49,4.28-7.33,3.87-10.74-1.57-7.29-.72-10.77-1.28a3.86,3.86,0,0,0-1.7-.09,2.71,2.71,0,0,1-2.85-.11,14.18,14.18,0,0,0-2.37-1.52,2.18,2.18,0,0,1-.86,0,1.14,1.14,0,0,1,0,.81l.86.79-.15.26h0C777.1,385.8,776.77,385.45,776.1,385.68Z"/><path class="cls-29" d="M744.19,383c.45-2.25-1.23-4.07-3.74-4.07a5.54,5.54,0,0,0-5.37,4.07c-.44,2.24,1.23,4.06,3.75,4.06A5.54,5.54,0,0,0,744.19,383Z"/><path class="cls-33" d="M733.21,381.59c-1.38.64-2.69,1.48-2.84,2a14.53,14.53,0,0,0-.63,3.14c.13.32,1,.75,1.45.27.31-.32.31-1.2.35-1.24a1.73,1.73,0,0,0,.46-1.32c.76.08,4.06-1.45,4.06-1.45S734,381.21,733.21,381.59Z"/><path class="cls-31" d="M733.5,381.37c-.92.75-1.8,1.06-2.12,1.74a31.15,31.15,0,0,0-1.64,4.19.75.75,0,0,0,1.33.35,6.6,6.6,0,0,0,.75-1.65,3.65,3.65,0,0,0,.88-1.76c.71.11,4.44-1.93,4.44-1.93S734.37,380.65,733.5,381.37Z"/><path class="cls-29" d="M735.65,381.57c0-.23-1.55-1.28-3.22,1.41a3.75,3.75,0,0,1-1.23,2.22h0a7.4,7.4,0,0,1-1.05,2.65.76.76,0,0,0,.92-.21,6.6,6.6,0,0,0,.75-1.65,5,5,0,0,0,1.16-1.79c.71.12,4.16-1.9,4.16-1.9A11.34,11.34,0,0,0,735.65,381.57Z"/><path class="cls-14" d="M742.11,388a2.74,2.74,0,0,0,.11-.76c0-2.11-2.54-3.81-5.67-3.81s-5.66,1.7-5.66,3.81a2.74,2.74,0,0,0,.11.76Z"/><path class="cls-31" d="M743.23,383.6a11,11,0,0,0,.14-2.46c-.17-2.84-5.16-2.57-7.3-1.38s-2.61,1.72-2.75,2.63-.5,2.78-.55,3.55,1.44,1.14,2.2.34.51-2.58.74-2.8a4.74,4.74,0,0,1,1.64,0,13.82,13.82,0,0,0-.42,2.54c0,.83,2,1.34,2.67.1a4.22,4.22,0,0,0,.33-1.85,3.73,3.73,0,0,1,2,1.93c.42,1.51,2.73,1.66,2.79.06C744.78,385.66,743.13,384.79,743.23,383.6Z"/><path class="cls-29" d="M737.41,383.4a5,5,0,0,1,.46-2.31,13,13,0,0,1-2,1c-.64.21-.58.27-.58,1a10.55,10.55,0,0,1-.08,1.49,1.79,1.79,0,0,1-2.45,1.59c.16.62,1.49.92,2.19.18s.51-2.58.74-2.8A13.37,13.37,0,0,1,737.41,383.4Z"/><path class="cls-29" d="M743.08,386.64a3.24,3.24,0,0,1-1.25-1.84c-.33-1.14-1-1.59-.8-3.07-.42.57-1.45.65-1.42.9a5.56,5.56,0,0,1-.28,2.47,1.63,1.63,0,0,1-2.37,1,1.56,1.56,0,0,0,2.64,0,4.22,4.22,0,0,0,.33-1.85,3.73,3.73,0,0,1,2,1.93c.36,1.29,2.09,1.59,2.63.64A1.63,1.63,0,0,1,743.08,386.64Z"/><path class="cls-47" d="M781.66,397.35H760.29s-9.92,1.18-10.12,10.41a9.75,9.75,0,0,0,.7,4.17H789c.47-1.07,2.75-3,2.72-4.76C791.56,397.94,781.66,397.35,781.66,397.35Z"/><path class="cls-48" d="M750.3,409.87a8.22,8.22,0,0,0,.57,2.06H789a12.36,12.36,0,0,1,1.76-2.06L771,407.41Z"/><path class="cls-47" d="M767.47,437.07a27.12,27.12,0,0,0,2.22-2.73l6.68-24.21c1.49-5.59,5.17-11.33,9.78-10.44,5.27,1.3,6.57,5.64,4.77,11.26l-13.26,24.51a.59.59,0,0,1,.07.1c-1.14,2.18,0,3.84-.62,4.67l-2.89,2.16L772.49,447s-3,.51-6-2.4a31.34,31.34,0,0,1,1.62-5Z"/><path class="cls-49" d="M777.66,435.46s-7.7,4.31-1.55-24.38l-6.42,23.26a27.12,27.12,0,0,1-2.22,2.73l.59,2.5a31.34,31.34,0,0,0-1.62,5c3.1,2.91,6,2.4,6,2.4l1.73-4.57,2.89-2.16c.58-.83-.52-2.49.62-4.67A.59.59,0,0,0,777.66,435.46Z"/><path class="cls-50" d="M764.44,462.7c-.88,0,.42-1.42-.87-1.95-2.4-1-4.14-.5-4.46-1.59-.42-1.43,1.2-4.38,2.84-6.7l.32-.45a24.1,24.1,0,0,0,3.93-7.59l.13-.43.32.31a7.69,7.69,0,0,0,5.35,2.42,4.26,4.26,0,0,0,.45,0l.32-.05V447a39.67,39.67,0,0,1-1.34,7.56c-.07.28-.14.55-.2.81-.87,3.46-1.63,7.69-4.5,7.69Z"/><path class="cls-51" d="M771.16,454.47a38.6,38.6,0,0,0,1.33-7.51,7.57,7.57,0,0,1-6-2.47,24.25,24.25,0,0,1-4,7.67c-3,4.25-4.5,6,1.19,8.35S769.88,459.5,771.16,454.47Z"/><path class="cls-50" d="M767.81,457.49a29.07,29.07,0,0,0-5.64-2.13c-.49-.12-1-.26-1.58-.36-1.49,2.58-3.48,4.78,2.37,7.17,6,2.47,6-.83,7-3.51C769.28,458.25,768.56,457.85,767.81,457.49Z"/><path class="cls-6" d="M760.59,455c-1.49,2.58-1.2,3.75,3.08,5.51,4,1.62,5.32.83,6.32-1.85C767.62,454.21,761,454.57,760.59,455Z"/><path class="cls-50" d="M771.62,447.85c-2.1.11-4.75-1.78-4.75-1.78s-.27.46-.41.78c2.79,2.53,5.13,2,5.13,2Z"/><path class="cls-50" d="M771.39,449.86c-2.1.11-5.19-2.13-5.19-2.13s-.4.66-.55,1a7.83,7.83,0,0,0,5.71,2.19Z"/><path class="cls-50" d="M770.85,452.24c-2.09.11-5.79-2-5.79-2s-.4.66-.55,1a8.5,8.5,0,0,0,6.31,2.06Z"/><path class="cls-47" d="M774.16,437.84a28.37,28.37,0,0,1-2.26-2.71l-7-24.12c-1.56-5.57-5.31-11.27-9.91-10.32-5.25,1.37-6.5,5.72-4.63,11.32L764,436.35l-.07.1c1.17,2.17.09,3.85.68,4.67l2.92,2.12,1.78,4.55s3,.48,6-2.48a31.14,31.14,0,0,0-1.68-5Z"/><path class="cls-50" d="M779.87,453.16l-.33-.45a56,56,0,0,1-4.28-7.46c-1.76,1.64-3.42,2.77-6,2.54a29.07,29.07,0,0,0,1.16,7.56c.08.28.15.54.22.81.9,3.43,2,7.48,4.85,7.48.89,0,1.55-1.61,2.86-2.17,2.38-1,4.4-1,4.71-2.07C783.46,458,781.54,455.47,779.87,453.16Z"/><path class="cls-52" d="M770.68,455.28a39.84,39.84,0,0,1-1.42-7.49,7.59,7.59,0,0,0,6-2.54,24.29,24.29,0,0,0,4.07,7.62c3,4.21,4.58,6-1.09,8.36S772,460.3,770.68,455.28Z"/><path class="cls-50" d="M774.06,458.26a29.89,29.89,0,0,1,5.63-2.2c.48-.13,1-.27,1.57-.37,1.51,2.56,3.91,4.55-1.91,7-6,2.55-6.41-.57-7.44-3.24C772.61,459,773.33,458.64,774.06,458.26Z"/><path class="cls-6" d="M774.06,458.26a29.89,29.89,0,0,1,5.63-2.2c.48-.13,1-.27,1.57-.37,1.51,2.56,1.24,3.73-3,5.54-4,1.67-5.3.9-6.33-1.77C772.61,459,773.33,458.64,774.06,458.26Z"/><path class="cls-6" d="M770.14,448.67c2.1.09,4.73-1.84,4.73-1.84s.27.46.42.78c-2.76,2.56-5.11,2.09-5.11,2.09Z"/><path class="cls-6" d="M770.4,450.68c2.1.08,5.16-2.2,5.16-2.2s.41.66.56,1a7.84,7.84,0,0,1-5.68,2.26Z"/><path class="cls-6" d="M771,453.05c2.1.09,5.77-2.08,5.77-2.08s.41.66.56,1a8.54,8.54,0,0,1-6.29,2.14Z"/><polygon class="cls-31" points="766.34 346.35 765.14 351.71 761.74 353.49 770.94 360.86 780.43 353.49 776.76 351.73 775.55 346.35 766.34 346.35"/><polygon class="cls-33" points="766.34 346.35 765.14 351.71 761.74 353.49 770.94 360.86 770.99 354.29 776.29 349.64 775.55 346.35 766.34 346.35"/><path class="cls-31" d="M782.1,333.89a1.31,1.31,0,0,0-.92.22c-.18-6.56-1.54-13.22-10.48-13.22-8.52,0-10.34,6.7-10.48,13.3a1.34,1.34,0,0,0-1-.3c-1.08.2-1.64,2.07-1.25,4.18s1.58,3.66,2.66,3.46a1.3,1.3,0,0,0,.82-.6c0,5,5.26,10.9,9.28,10.9s9.24-5.71,9.24-10.8a1.25,1.25,0,0,0,.75.5c1.08.2,2.27-1.35,2.66-3.46S783.18,334.09,782.1,333.89Z"/><path class="cls-33" d="M779.94,341a1.25,1.25,0,0,0,.75.5c1,.19,2.18-1.23,2.61-3.22-.85,1.71-2.18,3-3,1.48-.06-.12.19-5,.06-5,0-.16.83-.53.87-.69-.11-4-.68-8.11-3.18-10.65a34.74,34.74,0,0,1,1.11,8.95c0,9.86-3.7,17.85-8.28,17.85s-8.28-8-8.28-17.85a34.57,34.57,0,0,1,1.15-9.06c-2.42,2.32-3.42,6.1-3.52,10.85l1,.74c-.12,0,.2,4.54.15,4.66-.43,1-1.65,1.74-2.92.13.55,1.2,1.38,1.95,2.15,1.81a1.27,1.27,0,0,0,.82-.6c0,5,5.25,10.91,9.28,10.91S779.94,346.12,779.94,341Z"/><path class="cls-33" d="M776.72,333.21c0,.26-.92-.06-2.06,0s-2.07.37-2.08.1c0-.48.81-1.3,1.95-1.33S776.73,332.68,776.72,333.21Z"/><path class="cls-33" d="M764.78,333.32c0,.26,1-.15,2.1-.15s2,.42,2,.15c0-.91-.89-1.49-2-1.49S764.63,332.49,764.78,333.32Z"/><path class="cls-53" d="M776.72,333c0,.53-1-.27-2.1-.24s-2,.85-2,.32.9-1.4,2-1.42S776.71,332.47,776.72,333Z"/><path class="cls-53" d="M764.77,333c0,.53,1-.27,2.11-.24s2,.85,2,.32-.91-1.4-2-1.42S764.78,332.47,764.77,333Z"/><circle class="cls-13" cx="767.53" cy="336.61" r="0.95"/><path class="cls-14" d="M768.29,336.32a.48.48,0,0,1-.48.48.48.48,0,1,1,.48-.48Z"/><path class="cls-13" d="M776,336.75a1,1,0,1,1-1-.95A1,1,0,0,1,776,336.75Z"/><path class="cls-14" d="M775.87,336.47a.48.48,0,0,1-.48.48.47.47,0,0,1-.48-.48.48.48,0,0,1,.48-.48A.49.49,0,0,1,775.87,336.47Z"/><path class="cls-33" d="M768.75,342.79c.17.4,1.07.7,2.16.7s2-.3,2.16-.7Z"/><path class="cls-34" d="M770.55,350.18c-4.26,0-8.16-6.74-9.06-13.72h-.13c-.07,1.38,0,4.61,0,4.61.48,6.63,5.63,10.9,9.43,10.9s9.53-4.61,9.53-11.08a42.71,42.71,0,0,0,.12-4.36.65.65,0,0,1-.14,0C779.87,340.3,777.2,350.18,770.55,350.18Z"/><path class="cls-54" d="M782.18,340.43c-.13.53-.55.89-.93.79s-.58-.6-.45-1.14.55-.89.93-.79S782.31,339.89,782.18,340.43Z"/><path class="cls-54" d="M759.44,340.43c.13.53.55.89.93.79s.58-.6.45-1.14-.55-.89-.93-.79S759.31,339.89,759.44,340.43Z"/><path class="cls-33" d="M767.55,344.81c1.31.13,2.39-.54,3.26-.18,1.09-.29,2.05.51,3.35.24A14.91,14.91,0,0,1,767.55,344.81Z"/><path class="cls-33" d="M768.17,345.5c.74.71,2.68,1.44,5.24.57C772.32,346,769.61,346.1,768.17,345.5Z"/><path class="cls-44" d="M783.07,332.75c0-.07,0-.15,0-.22,0-7.65-5.5-13.84-12.29-13.84s-12.29,6.19-12.29,13.84v.15h1c.89-6.57,5.59-11.58,11.27-11.58s10.41,5,11.28,11.65Z"/><path class="cls-6" d="M758.7,334a1.21,1.21,0,1,1,1.2-1.21A1.21,1.21,0,0,1,758.7,334ZM784,332.83a1.2,1.2,0,1,0-1.2,1.21A1.2,1.2,0,0,0,784,332.83Z"/><path class="cls-55" d="M761,338.94c0,1.77-.86,2.35-1.82,2.39h0a1.71,1.71,0,0,1-1.8-1.61l-.19-4.7a1.72,1.72,0,0,1,1.66-1.76h0a1.9,1.9,0,0,1,1.93,2.09Z"/><path class="cls-44" d="M758.39,339.1c0,.71-.29,1.3-.72,1.32h0c-.44,0-.81-.54-.84-1.26l-.14-3.59c0-.72.29-1.31.72-1.33h0c.44,0,.81.55.84,1.26Z"/><path class="cls-55" d="M780.54,338.87c0,1.77.79,2.38,1.75,2.45h0a1.72,1.72,0,0,0,1.85-1.56l.33-4.69a1.72,1.72,0,0,0-1.62-1.81h0a1.9,1.9,0,0,0-2,2Z"/><path class="cls-44" d="M782.85,339.1c-.05.72.26,1.32.69,1.35h0c.43,0,.82-.52.87-1.23l.25-3.6c.05-.71-.26-1.31-.69-1.34h0c-.43,0-.82.52-.87,1.23Z"/><path class="cls-6" d="M783.07,332.75c0-.07-.65-.15-.66-.22-.66-8.82-7-12.64-11.62-12.64-5.7,0-11.69,6.3-11.69,12.64,0,.05-.6.1-.6.15h1c.89-6.57,5.59-11.58,11.27-11.58s10.41,5,11.28,11.65Z"/><path class="cls-56" d="M760.8,397.35l10.29,4.6,11-4.55-.47,0H760.8Z"/><path class="cls-57" d="M665.73,400.66c14.6,3.19,37.25,12.51,38.37,16.25,1.28,4.28,3.32,6.23,4.69,10s5.26,18.87,9.47,30.62c.28.77,7.44,4.64,10.52,5.79,2.3.86,8.57,1.07,6.87,4-1.4,1.4-12.13.66-16.44-.29-3.87-.85-7.49.51-6-5.72.6-2.53-1.54-5.94-4.31-11.29-5.75-11.11-9.94-10.63-11.66-20.55-1.14-6.53-5.09-8-8.4-9-5.81-1.65-15.7-.73-31.67-6C660,409.84,662.77,405.18,665.73,400.66Z"/><path class="cls-48" d="M665.88,400.44c15.38,3.25,38,11.59,39.11,15.35,1.29,4.27,3,7.15,4.39,10.89.87,2.36,2.15,9.49,4.47,17.23a25.67,25.67,0,0,0,1.71,2.66,20.07,20.07,0,0,0,.22,3.49,12.09,12.09,0,0,0,1.71,2.82c.07.24.27,3.19.33,3.39a20,20,0,0,1-5,1.63,21.24,21.24,0,0,1-2.32-2.53c-.45-.64-.75-2.25-1.49-3,0,0-1.89-2.2-1.93-2.27a11.88,11.88,0,0,0-.85-3.26c-4.68-8-7.74-10.4-9-15.24a18.42,18.42,0,0,0-6.61-9.78c-12.52-4.11-18.66-1.91-33.46-7.34C660,409.8,662.84,405.05,665.88,400.44Z"/><path class="cls-49" d="M658.73,411.89c4.74.71,26.61,8.57,31.32,6.82,1.22-.45,3.72,6.27,4.88,5.67.65-.33,2.17-6,2.78-6.36s-.89,4.94-1,5.59c-.24,1.65,1.24.53,4.37,1-3.81,1.66-.45,2.22.13,3.95,1.3,3.91.61,8.27,8.65,22.05,1.43,2.46,6.15,4.08,6-.18a14.55,14.55,0,0,0,1.56,2.43c.07.24.27,3.19.33,3.39a20,20,0,0,1-5,1.63,21.24,21.24,0,0,1-2.32-2.53c-.45-.64-.75-2.25-1.49-3,0,0-1.89-2.2-1.93-2.27a11.88,11.88,0,0,0-.85-3.26c-4.68-8-7.74-10.4-9-15.24a17.19,17.19,0,0,0-7-9.6c-10.3-3.15-16.28.6-33.11-7.52Z"/><path class="cls-58" d="M712.63,464.75s-.78.62.27,3.08c.64,0,22.27.75,23.08.23s.3-1.6-.21-1.27c-.94.6-11.35-1.05-17.85-1.85A31.6,31.6,0,0,0,712.63,464.75Z"/><path class="cls-59" d="M720.39,456.65l-4,2.27-3.83,1a7.19,7.19,0,0,0,.07,4.9c5,.7,10.71,1.91,14.65,2.59,1.84.32,8.05,0,8.84-.48.09-.06.78-3.62-2.15-4C726.44,461.84,727.47,460.41,720.39,456.65Z"/><path class="cls-14" d="M723.17,457.9l-2.73,2.31-1.21-.7,2.42-2.55Zm.64.46-2.42,2.55,1.21.7,2.73-2.31ZM726,460l-2.41,2.54,1.21.7,2.73-2.3Z"/><path class="cls-57" d="M684.77,327.22c.17,2.14.39,6.29-.07,7.26-.41.79-1.56,1.11-1.5,2.25.14,2.84,1.19,5.33.3,5.45s-1.51-.06-1.74.31a7.08,7.08,0,0,0-.43,1.05c-.05.13.08.67-.42.85.3.33-.1.63-.41,1.33-.45,1.29-.9,2.33-1.72,2.7-1.51.68-6.54-2.46-6.72-1.74a50.85,50.85,0,0,0-1.88,5.17l1.65,4.47-12-8.32s2.92-6.87,2.09-10.59-2.1-7.73.88-11.59,5.89-9.28,13.5-6.36S684.67,325.85,684.77,327.22Z"/><path class="cls-60" d="M670.94,353.91l.89,2.41-12-8.32s.26-.56.72-1.93C662.54,347.62,668.67,352.48,670.94,353.91Z"/><path class="cls-60" d="M670.21,351.93l-1.33-2c-.55-.84.68-5.49.68-5.49,1.32-1.05,1.8-3.19,2.34-4.87a21.68,21.68,0,0,0,.85-6.11c0-.68.49.38.91,1.24a18.77,18.77,0,0,1,.28,5.85c-.31,1.52,4.27,5.45,6.53,5.22-.34.8-1.1,2.39-1.69,2.65-1.51.68-6.54-2.46-6.72-1.74a50.85,50.85,0,0,0-1.88,5.17Z"/><path class="cls-61" d="M681.1,333.59c-.05.24.82.16,1.82.42s1.73.76,1.8.54c.12-.42-.43-1.3-1.42-1.57S681.21,333.14,681.1,333.59Z"/><path class="cls-53" d="M681.29,333.27c-.39.34,1,.08,2,.39s1.16,1.1,1.55.76.22-1.16-.77-1.48A3.72,3.72,0,0,0,681.29,333.27Z"/><path class="cls-13" d="M681.41,336.42a.83.83,0,0,0,.57,1,.82.82,0,0,0,.89-.73.75.75,0,1,0-1.46-.28Z"/><path class="cls-14" d="M681.56,336.19a.4.4,0,0,0,.29.5.41.41,0,0,0,.45-.36.43.43,0,0,0-.29-.51A.41.41,0,0,0,681.56,336.19Z"/><path class="cls-61" d="M681.29,340.81c-.26,1.35,1.35.86,2.54,1.12a.39.39,0,0,1-.34.26c-.6.08-1.4,0-1.63.2C681.41,342.21,680.82,341.89,681.29,340.81Z"/><path class="cls-61" d="M670,331.83a3.59,3.59,0,0,0-1,2.84c.1,1.7,1.17,3,2.39,2.83a1.77,1.77,0,0,0,1.05-.51,2,2,0,0,1-1.57,1.28c-1.18.07-2.22-1.34-2.33-3.16A3.3,3.3,0,0,1,670,331.83Z"/><path class="cls-61" d="M671.9,336.34c-1.25-.12-2.11-1.12-1.38-2.12,1-1.4,1,.15.86.43C671,335.4,671.45,335.54,671.9,336.34Z"/><path class="cls-61" d="M681,344.75a10,10,0,0,1-.5.95s-.06.17-.11.32a1.44,1.44,0,0,1-.06-.7c0-.11-.89-.52-1.09-.92C679.42,344.52,680.58,345.06,681,344.75Z"/><path class="cls-53" d="M671.2,342.36a32.46,32.46,0,0,0,1.84-8.54,27.53,27.53,0,0,1,.57,6.5c-.06.83,1.79,3.56,3.95,4.9a10.42,10.42,0,0,0,.86-1.75c.51-1.3,2.73-.61,3.15-.54.19,0,0,.79-.29.73a7.6,7.6,0,0,0-2.38,0,7,7,0,0,0-1,1.71,3.68,3.68,0,0,0,2.55.53c.56.68-.28,3.17-2,3C673.74,348.54,670.5,344.55,671.2,342.36Z"/><path class="cls-7" d="M671.83,355.56s2.84,9.05,3,13.28-3.41,8.85-4.35,13.54.91,19.45.91,19.45l-22,6s-.69-14.52-1.06-34.23c-.3-15.48,5.16-19.08,11.76-26.81C662.87,348.32,671.83,355.56,671.83,355.56Z"/><path class="cls-5" d="M650.68,407.43c1.46-2.49,3.71-29.29,3.52-31.65-.17-2.08-.64-11.6-.07-13.63,1.16-4.19,7.75-5.5,10.23-1.31,1.65,2.79,2.7,9,4.16,11.89,1.17,2.29,4.47,2.87,4.47,2.87a34.8,34.8,0,0,0-2.52,6.78c-.94,4.7.91,19.45.91,19.45Z"/><path class="cls-60" d="M692.86,383.6a8.05,8.05,0,0,0,6.27-.67c1.07-.75,3.2-.81,3.57-.87s1.57-1.57-1.31-2.44S694.18,382.23,692.86,383.6Z"/><path class="cls-62" d="M699.1,380.66c.77-.81,1.48-.31,2-.16,1,.27,2,.48,3,.82a8.22,8.22,0,0,1,1.29,2.23c.44.88,1.42,1.2.32,1.56-.57.18-1.56-.82-1.68-1.28a3,3,0,0,1-1.25-1.13c-.14-.2-1.39-.32-1.63-.42C699.87,381.79,698.46,381.33,699.1,380.66Z"/><path class="cls-60" d="M693,380.26c4.81-2.14,4.89-2.43,6.23-2.17,2.08.91,3.12,1.25,4.17,1.76a14.09,14.09,0,0,1,2.35,2.5c.72.95,1.66,1.61.66,1.76a1.85,1.85,0,0,1-1.92-1.23,13.13,13.13,0,0,1-2-1.39s-1.73-.19-2.94-.47c-.53,0-.91.31-1.73.72-1.77.86-2.7,1.8-4.6,1.22a7.76,7.76,0,0,0-3.54.26,13,13,0,0,0-.34-1.52C691.47,382.14,691.85,380.76,693,380.26Z"/><path class="cls-57" d="M693.12,379.68c5-2,5.79-1.63,6.68-1.16a26.23,26.23,0,0,0,3.38,1.71c.32.16.47,1,1.28,2.06s1.7,1.61.68,1.76a1.72,1.72,0,0,1-1.72-1.32,2.67,2.67,0,0,1-1.17-1.24,6.37,6.37,0,0,1-2.27-.08c-.54,0-1.08.65-1.93,1-1.81.87-2.81,1.81-4.75,1.22-1.37-.41-6,1-6,1a16.34,16.34,0,0,1-1.76-3.78A15,15,0,0,0,693.12,379.68Z"/><path class="cls-57" d="M662.72,358.22c-3.2-2-6.46-1.7-8.34,2.56-.63,1.43-.08,4.47,1,8,1,9.48,5.31,13.57,6.94,18,7.35,2.5,18.46-.14,26.39-2.5-.58-2.25-1.15-3.31-2-3.34-6-.23-12.42-2-17.54-2.13-1.13.26.86.75-4.27-11.14C665.4,365.16,664.78,359.46,662.72,358.22Z"/><path class="cls-12" d="M690.41,384s0-3.48-.7-3.48-1.68.08-1.71.51a18.27,18.27,0,0,0,.46,3.42C688.85,384.52,690.3,384.33,690.41,384Z"/><path class="cls-12" d="M687.28,380.56a.52.52,0,0,0,.59.45l2.23-.3a.52.52,0,0,0,.45-.59h0a.52.52,0,0,0-.59-.45l-2.23.3a.52.52,0,0,0-.45.59Z"/><path class="cls-63" d="M690.55,380.12a.52.52,0,0,1-.45.59l-2.23.3a.52.52,0,0,1-.59-.45A27.62,27.62,0,0,1,690.55,380.12Z"/><path class="cls-64" d="M687.4,380.15a.49.49,0,0,1,.33-.18l2.23-.3a.48.48,0,0,1,.39.11C690.28,379.81,687.49,380.2,687.4,380.15Z"/><path class="cls-60" d="M658,368.78a20.68,20.68,0,0,0,6.23,14.44,8.77,8.77,0,0,0,1.25,2.21c4.17,3.26,17.91.16,22.89-1.61l.07.46c-7.93,2.36-18.74,5-26.09,2.49-1.63-4.42-5.92-8.51-6.94-18a30.86,30.86,0,0,1-1.19-5.22A49.65,49.65,0,0,0,658,368.78Z"/><path class="cls-57" d="M668.74,401.74a169.85,169.85,0,0,1,20,1.18c8.22,1.1,12.65,5.69,11.3,10.44-1.23,4.29-.57,7-1.44,10.92S692.84,443,690,455.17c-.18.79.62,4.73,2.6,7.36,1.47,2,8,1.8,6.23,5.58-6.57,0-9.14.07-13.15-4.44-2.63-3-6.58-3.62-2-8.05,1.87-1.81,1.91-5.84,2.46-11.84,1.16-12.46-2.63-14.31,1.27-23.59,2.57-6.11-.23-5.18-3.52-4.2-6.2,1.86-21,1.2-25.8,1.2s-9.91-1.46-8.76-10.67C664.2,403.4,668.74,401.74,668.74,401.74Z"/><path class="cls-47" d="M649,406.29c14.79-3.13,20.09-4.75,20.09-4.75a178.92,178.92,0,0,1,20,1.25c8.22,1.1,13.77,5.36,12.42,10.1-1.23,4.29-1.32,7.66-2.19,11.54-.55,2.45-3.31,9.14-5.53,16.92a25.18,25.18,0,0,0,0,3.15,18.69,18.69,0,0,0-1.69,3.07,11.78,11.78,0,0,0-.09,3.3c-.07.23-1.49,2.82-1.55,3a19.88,19.88,0,0,1-5.11-1.35,21,21,0,0,1-.58-3.37c0-.79.58-2.3.34-3.31,0,0-.4-2.87-.4-2.95a12,12,0,0,0,1-3.2c.36-9.23-.89-12.93.64-17.7,2-6.31.27-6.09.27-6.09-6.19,1.86-23.71,2.18-28.48,2.18S647.49,415.34,649,406.29Z"/><path class="cls-48" d="M649.5,406.19c1.79,9.12,9.2,6.22,12.9,5.73,2.12-.28,16.33,5.38,25.83-1.1,1.07-.73-1.06,3.75.24,3.88.72.07,5-3.85,5.77-3.85s-3.42,3.67-3.84,4.17c-1.09,1.26.76,1.11,3.13,3.22-4.11-.66-1.58,1.62-2,3.39-1,4-3.94,7.29-4.62,23.24-.12,2.84,3,6.74,5.2,3.1a14.24,14.24,0,0,0,0,2.9c-.07.23-1.49,2.82-1.55,3a19.88,19.88,0,0,1-5.11-1.35,21,21,0,0,1-.58-3.37c0-.79.58-2.3.34-3.31,0,0-.4-2.87-.4-2.95a12,12,0,0,0,1-3.2c.36-9.23-.89-12.93.64-17.7,2-6.31.27-6.09.27-6.09-6.19,1.86-23.71,2.18-28.48,2.18s-11-2.9-9.06-11.86Z"/><path class="cls-58" d="M683.12,457.7s-1.9-.24-2.35,2.41c-.11.84,2.87,3,4.27,4.44s5.37,4.55,7.28,4.55H699c1,0,1.24-1.27.64-1.27C698.08,467.83,683.12,457.7,683.12,457.7Z"/><path class="cls-59" d="M691.65,455.44l-2.17.25-4.94-1.17a5,5,0,0,0-2.71,3.57c-.11.82,3.16,3.93,4.29,5.55,1.58,2.29,4.72,4.58,6.59,4.58H700c.1,0,1-2.25-.5-3.45-1.2-1-3.89-1.7-4.27-2.08C693.56,462,691.65,455.44,691.65,455.44Z"/><path class="cls-14" d="M693.09,457.49l-3.56.26-.57-1.28,3.45-.64Zm.25.74-3.45.64.57,1.28,3.56-.26Zm.86,2.6-3.44.64.56,1.27,3.57-.26Z"/><path class="cls-65" d="M685.14,330.37a66.41,66.41,0,0,0-.31-8.26c-.05-.89-5.87-6.34-13.4-5.3s-11,4.67-11.17,6.7a52.69,52.69,0,0,0,.73,10A101.39,101.39,0,0,1,685.14,330.37Z"/><path class="cls-66" d="M677.1,322.67c-.24-2.1-5.28-5.9-5.28-5.9,7.34-.81,13,4.47,13,5.34a66.41,66.41,0,0,1,.31,8.26c-2.5,0-5,.12-7.38.33C677.76,330.56,677.23,323.74,677.1,322.67Z"/><path class="cls-66" d="M660.26,323.51c.2-2,3.41-5.42,10.43-6.59,0,.18-3.54,5.33-3.52,5.57.1,1.08.72,7.75.85,8.83-5.52,1.31-5.34,1-7.14,1.55A46.73,46.73,0,0,1,660.26,323.51Z"/><path class="cls-12" d="M673.51,331.15c-4.49,2.63-14.45,7.05-16.66,6.46s-6.08-1.23-4.81-1.82S668.09,330.05,673.51,331.15Z"/><path class="cls-41" d="M668.19,375c-1.65,1.14-10.3,4.83-11.06,4.83a105.55,105.55,0,0,1-2.8-11.31c-.51-2.17-2.54-10.43,3.69-11.83s7.63,3.94,7.63,7.12C666.66,367.28,668.19,375,668.19,375Z"/><path class="cls-65" d="M643.61,385.11v32.4a6.09,6.09,0,0,0,6.08,6.08h31s1.2,2.28-3.55,2.28H649.69a8.36,8.36,0,0,1-8.36-8.36V388.93C641.33,383.32,643.61,385.11,643.61,385.11Z"/><rect class="cls-43" x="649.82" y="417.63" width="36.25" height="6.46" rx="1.9"/><path class="cls-67" d="M679.74,431.38c-.19-2-2.47-3.67-5.08-3.67H653.37c-2.61,0-4.89,1.65-5.08,3.67l-3.6,36.71h-1.78l3.48-36.89c.29-3,3.41-5.39,7-5.39h21.29c3.57,0,6.69,2.38,7,5.39l3.48,36.89h-2Z"/><path class="cls-43" d="M645.71,413.5a1.77,1.77,0,0,0,2,1.57h0a1.78,1.78,0,0,0,1.57-2L644,366a1.78,1.78,0,0,0-2-1.57h0a1.79,1.79,0,0,0-1.57,2Z"/><path class="cls-57" d="M867.56,327.22c-.17,2.14-.38,6.29.07,7.26.41.79,1.56,1.11,1.51,2.25-.14,2.84-1.19,5.33-.3,5.45s1.51-.06,1.74.31a8.64,8.64,0,0,1,.42,1.05c0,.13-.08.67.42.85-.29.33.1.63.42,1.33.44,1.29.89,2.33,1.71,2.7,1.52.68,6.54-2.46,6.73-1.74.29.95,1.41,3.21,1.88,5.17l-2.53,6.66L892.48,348s-2.92-6.87-2.1-10.59,2.11-7.73-.87-11.59-5.9-9.28-13.51-6.36S867.67,325.85,867.56,327.22Z"/><path class="cls-60" d="M880.94,355.11l-1.4,3.69L892.48,348a18.91,18.91,0,0,1-.73-1.93C889.8,347.62,883.21,353.67,880.94,355.11Z"/><path class="cls-60" d="M882.12,351.93l1.33-2c.55-.84-.67-5.49-.67-5.49-1.32-1.05-1.81-3.19-2.35-4.87a22,22,0,0,1-.85-6.11c0-.68-.49.38-.9,1.24a66.19,66.19,0,0,0,.46,8.34c.31,1.52-5,7.11-7.27,2.73.34.8,1.09,2.39,1.68,2.65,1.52.68,6.54-2.46,6.73-1.74.29.95,1.41,3.21,1.88,5.17Z"/><path class="cls-61" d="M871.23,333.59c0,.24-.82.16-1.82.42s-1.73.76-1.8.54c-.12-.42.43-1.3,1.43-1.57S871.13,333.14,871.23,333.59Z"/><path class="cls-68" d="M871,333.27c.39.34-1,.08-2,.39s-1.16,1.1-1.55.76-.21-1.16.77-1.48A3.71,3.71,0,0,1,871,333.27Z"/><path class="cls-13" d="M870.92,336.42a.75.75,0,1,1-1.46.28.75.75,0,1,1,1.46-.28Z"/><path class="cls-14" d="M870.77,336.19a.38.38,0,1,1-.73.14.42.42,0,0,1,.28-.51A.41.41,0,0,1,870.77,336.19Z"/><path class="cls-61" d="M871,340.81c.27,1.35-1.35.86-2.54,1.12a.39.39,0,0,0,.34.26c.61.08,1.4,0,1.63.2C870.93,342.21,871.52,341.89,871,340.81Z"/><path class="cls-61" d="M882.3,331.83a3.62,3.62,0,0,1,1,2.84c-.1,1.7-1.17,3-2.39,2.83a1.8,1.8,0,0,1-1-.51,2,2,0,0,0,1.57,1.28c1.18.07,2.23-1.34,2.33-3.16A3.3,3.3,0,0,0,882.3,331.83Z"/><path class="cls-61" d="M880.43,336.34c1.25-.12,2.12-1.12,1.39-2.12-1-1.4-1,.15-.87.43C881.39,335.4,880.89,335.54,880.43,336.34Z"/><path class="cls-61" d="M871.34,344.75a10,10,0,0,0,.5.95s.06.17.11.32a1.33,1.33,0,0,0,.06-.7c0-.11.89-.52,1.09-.92C872.91,344.52,871.76,345.06,871.34,344.75Z"/><path class="cls-47" d="M879.63,358.51a48.88,48.88,0,0,0-2.12,10.33c-.16,4.23,3.41,8.85,4.35,13.54s-.91,19.45-.91,19.45l22,6s.68-14.52,1.06-34.23c.29-15.48-5.17-19.08-11.77-26.81C889.46,348.32,879.63,358.51,879.63,358.51Z"/><path class="cls-25" d="M902.61,406.54c-1.46-2.49-3.72-29.29-3.53-31.65.17-2.08.64-11.6.08-13.63-1.17-4.19-7.75-5.5-10.23-1.31-1.65,2.79-2.7,9-4.17,11.89-1.16,2.29-4.46,2.87-4.46,2.87a34.65,34.65,0,0,1,2.52,6.79c.94,4.69-.91,19.44-.91,19.44Z"/><path class="cls-60" d="M859.47,383.6a8.05,8.05,0,0,1-6.27-.67c-1.06-.75-3.19-.81-3.57-.87s-1.56-1.57,1.32-2.44S858.16,382.23,859.47,383.6Z"/><path class="cls-62" d="M853.23,380.66c-.76-.81-1.47-.31-2-.16-1,.27-2,.48-3,.82a8.22,8.22,0,0,0-1.29,2.23c-.43.88-1.42,1.2-.31,1.56.56.18,1.55-.82,1.68-1.28a3,3,0,0,0,1.24-1.13c.14-.2,1.39-.32,1.64-.42C852.47,381.79,853.87,381.33,853.23,380.66Z"/><path class="cls-60" d="M859.36,380.26c-4.8-2.14-4.89-2.43-6.22-2.17-2.09.91-3.13,1.25-4.17,1.76a14,14,0,0,0-2.36,2.5c-.71.95-1.65,1.61-.66,1.76a1.85,1.85,0,0,0,1.92-1.23,12.61,12.61,0,0,0,2-1.39s1.73-.19,2.94-.47c.54,0,.91.31,1.74.72,1.77.86,2.69,1.8,4.59,1.22a7.76,7.76,0,0,1,3.54.26s0,.07.34-1.52C860.87,382.14,860.49,380.76,859.36,380.26Z"/><path class="cls-57" d="M859.21,379.68c-5-2-5.79-1.63-6.68-1.16a26.23,26.23,0,0,1-3.38,1.71c-.32.16-.47,1-1.28,2.06s-1.69,1.61-.67,1.76a1.71,1.71,0,0,0,1.71-1.32,2.67,2.67,0,0,0,1.17-1.24,6.37,6.37,0,0,0,2.27-.08c.55,0,1.09.65,1.93,1,1.81.87,2.81,1.81,4.75,1.22,1.37-.41,6,1,6,1a16.65,16.65,0,0,0,1.77-3.78A15,15,0,0,1,859.21,379.68Z"/><path class="cls-57" d="M889.61,358.22c3.21-2,6.46-1.7,8.34,2.56.63,1.43.09,4.47-1,8-1,9.48-5.32,13.57-7,18-7.34,2.5-18.46-.14-26.39-2.5.59-2.25,1.16-3.31,2-3.34,6-.23,12.42-2,17.54-2.13,1.13.26-.86.75,4.28-11.14C886.93,365.16,887.55,359.46,889.61,358.22Z"/><path class="cls-12" d="M861.93,384s0-3.48.69-3.48,1.69.08,1.71.51a18.27,18.27,0,0,1-.46,3.42C863.49,384.52,862,384.33,861.93,384Z"/><path class="cls-12" d="M865.06,380.56a.53.53,0,0,1-.59.45l-2.24-.3a.52.52,0,0,1-.45-.59h0a.52.52,0,0,1,.59-.45l2.24.3a.53.53,0,0,1,.45.59Z"/><path class="cls-63" d="M861.78,380.12a.52.52,0,0,0,.45.59l2.24.3a.53.53,0,0,0,.59-.45A28.07,28.07,0,0,0,861.78,380.12Z"/><path class="cls-64" d="M864.94,380.15a.52.52,0,0,0-.33-.18l-2.24-.3a.5.5,0,0,0-.39.11C862.05,379.81,864.84,380.2,864.94,380.15Z"/><path class="cls-60" d="M894.38,368.78a20.73,20.73,0,0,1-6.23,14.44,8.56,8.56,0,0,1-1.26,2.21c-4.16,3.26-17.9.16-22.88-1.61l-.07.46c7.93,2.36,18.74,5,26.08,2.49,1.63-4.42,5.93-8.51,7-18a30.73,30.73,0,0,0,1.18-5.22A48.21,48.21,0,0,1,894.38,368.78Z"/><path class="cls-57" d="M883.61,401.73a174.88,174.88,0,0,0-19.86,1.14c-8.1,1.06-12,5.49-10.14,10.06,1.7,4.13,1.34,6.78,2.64,10.52s7.82,18.05,12,29.78c.27.76-.09,4.55-1.78,7.09-1.25,1.89-7.85,1.73-5.62,5.38,6.58,0,9.15.07,12.66-4.28,2.31-2.85,6.18-3.49,1.09-7.77-2.08-1.74-2.56-5.62-3.78-11.41-2.53-12,1.05-13.78-3.87-22.73-3.24-5.89-.34-5,3.06-4,6.4,1.79,21.12,1,25.89,1s9.31-1.54,7.14-10.42C887.86,403.06,883.61,401.73,883.61,401.73Z"/><path class="cls-69" d="M903.14,406c-15.14-3-19.92-4.44-19.92-4.44a183.18,183.18,0,0,0-19.91,1.2c-8.1,1.06-13.18,5.17-11.3,9.74,1.7,4.13,2.16,7.38,3.46,11.12.82,2.36,4.32,8.81,7.4,16.31a25.56,25.56,0,0,1,.35,3,21.21,21.21,0,0,1,2,2.95,11.43,11.43,0,0,1,.45,3.18c.09.23,1.8,2.72,1.88,2.92a18.93,18.93,0,0,0,5-1.3,19,19,0,0,0,.21-3.25c-.06-.76-.84-2.22-.71-3.19,0,0,.08-2.77.07-2.84a12.92,12.92,0,0,1-1.4-3.09c-1.37-8.89-.52-12.46-2.59-17.06-2.72-6.07-.94-5.86-.94-5.86,6.4,1.79,23.95,2.1,28.72,2.1S905.67,414.7,903.14,406Z"/><path class="cls-30" d="M902.42,405.83c-.79,8.79-7.59,6.19-11.34,5.71-2.15-.27-15.74,5.19-26-1.05-1.15-.71,1.48,3.61.19,3.73-.72.07-5.47-3.71-6.2-3.71s3.82,3.54,4.3,4c1.23,1.21-.63,1.07-2.77,3.1,4-.63,1.75,1.57,2.4,3.27,1.45,3.85,4.75,7,7.18,22.39.44,2.74-2.23,6.51-4.85,3a13.19,13.19,0,0,1,.32,2.79c.09.23,1.8,2.72,1.88,2.92a18.93,18.93,0,0,0,5-1.3,19,19,0,0,0,.21-3.25c-.06-.76-.84-2.22-.71-3.19,0,0,.08-2.77.07-2.84a12.92,12.92,0,0,1-1.4-3.09c-1.37-8.89-.52-12.46-2.59-17.06-2.72-6.07-.94-5.86-.94-5.86,6.4,1.79,23.95,2.1,28.72,2.1s10-2.93,7.13-11.55Z"/><path class="cls-58" d="M875.42,455.66s1.87-.22,2.61,2.32c.2.81-2.54,2.87-3.78,4.28s-4.87,4.39-6.78,4.39h-6.71c-1,0-1.39-1.23-.78-1.23C861.57,465.42,875.42,455.66,875.42,455.66Z"/><path class="cls-50" d="M866.64,453.48l2.19.25,4.81-1.13a5.73,5.73,0,0,1,3.11,3.44c.2.79-2.73,3.78-3.68,5.35-1.33,2.2-4.22,4.41-6.08,4.41H859.7c-.11,0-1.22-2.17.11-3.32,1.1-1,3.7-1.64,4-2C865.44,459.8,866.64,453.48,866.64,453.48Z"/><path class="cls-14" d="M865.92,453.86l3.52.62-.43,1.23-3.59-.25Zm-1.16,3.91,3.59.25.42-1.23-3.51-.61Zm-.59,2.5,3.6.25.42-1.23-3.52-.61Z"/><path class="cls-57" d="M883.59,401.74a169.85,169.85,0,0,0-20,1.18c-8.22,1.1-12.65,5.69-11.29,10.44,1.22,4.29.56,7,1.43,10.92s5.76,18.72,8.55,30.89c.18.79-.62,4.73-2.59,7.36-1.47,2-8.05,1.8-6.24,5.58,6.58,0,9.14.07,13.15-4.44,2.63-3,6.58-3.62,2-8.05-1.88-1.81-1.91-5.84-2.47-11.84-1.15-12.46,2.63-14.31-1.27-23.59-2.56-6.11.24-5.18,3.53-4.2,6.19,1.86,21,1.06,25.77,1.06s10.18-1.45,9-10.66C888.38,403.27,883.59,401.74,883.59,401.74Z"/><path class="cls-8" d="M903,406c-14.8-3.13-19.82-4.42-19.82-4.42a178.92,178.92,0,0,0-20,1.25c-8.23,1.1-13.78,5.36-12.42,10.1,1.22,4.29,1.31,7.66,2.18,11.54.55,2.45,3.32,9.14,5.54,16.92a24.9,24.9,0,0,1,0,3.15,19.34,19.34,0,0,1,1.7,3.07,12.2,12.2,0,0,1,.09,3.3c.06.23,1.49,2.82,1.54,3a19.88,19.88,0,0,0,5.11-1.35,20.56,20.56,0,0,0,.59-3.37c0-.79-.58-2.3-.35-3.31,0,0,.41-2.87.4-2.95a12,12,0,0,1-1-3.2c-.36-9.23.9-12.93-.64-17.7-2-6.31-.27-6.09-.27-6.09,6.2,1.86,23.71,2.18,28.48,2.18S904.57,415,903,406Z"/><path class="cls-9" d="M902.83,406.19c-1.79,9.12-9.2,6.22-12.9,5.73-2.11-.28-16.33,5.38-25.82-1.1-1.07-.73,1.06,3.75-.24,3.88-.73.07-5-3.85-5.78-3.85s3.42,3.67,3.85,4.17c1.09,1.26-.76,1.11-3.13,3.22,4.1-.66,1.57,1.62,2,3.39,1,4,3.95,7.29,4.62,23.24.12,2.84-3,6.74-5.2,3.1a14.55,14.55,0,0,1,0,2.9c.06.23,1.49,2.82,1.54,3a19.88,19.88,0,0,0,5.11-1.35,20.56,20.56,0,0,0,.59-3.37c0-.79-.58-2.3-.35-3.31,0,0,.41-2.87.4-2.95a12,12,0,0,1-1-3.2c-.36-9.23.9-12.93-.64-17.7-2-6.31-.27-6.09-.27-6.09,6.2,1.86,23.71,2.18,28.48,2.18s11-2.9,9.07-11.86Z"/><path class="cls-58" d="M869.22,457.7s1.89-.24,2.34,2.41c.11.84-2.87,3-4.27,4.44s-5.37,4.55-7.28,4.55H853.3c-1,0-1.25-1.27-.64-1.27C854.26,467.83,869.22,457.7,869.22,457.7Z"/><path class="cls-59" d="M860.69,455.44l2.16.25,4.94-1.17a5,5,0,0,1,2.72,3.57c.11.82-3.16,3.93-4.29,5.55-1.59,2.29-4.73,4.58-6.59,4.58h-7.29c-.11,0-1-2.25.49-3.45,1.21-1,3.89-1.7,4.27-2.08C858.77,462,860.69,455.44,860.69,455.44Z"/><path class="cls-14" d="M859.92,455.83l3.45.64-.56,1.28-3.57-.26Zm-1.61,4.06,3.57.26.56-1.28-3.44-.64Zm-.86,2.59,3.56.26.57-1.27-3.45-.64Z"/><path class="cls-47" d="M883.46,378.88c.37,1.17,1.42,7.4,2.65,9.16,2.08,0,5.6-.23,5.78-.72,2.16-7.25,5.6-16.61,6.11-18.77s2.54-10.43-3.69-11.83-7.62,3.94-7.62,7.12C884.69,373.89,883,377.29,883.46,378.88Z"/><path class="cls-65" d="M908.72,385.11v32.4a6.08,6.08,0,0,1-6.08,6.08H871.69s-1.21,2.28,3.54,2.28h27.41a8.36,8.36,0,0,0,8.37-8.36V388.93C911,383.32,908.72,385.11,908.72,385.11Z"/><rect class="cls-43" x="866.27" y="417.63" width="36.25" height="6.46" rx="1.9"/><path class="cls-67" d="M872.59,431.38c.2-2,2.47-3.67,5.08-3.67H899c2.61,0,4.88,1.65,5.08,3.67l3.6,36.71h1.77l-3.48-36.89c-.29-3-3.4-5.39-7-5.39h-21.3c-3.57,0-6.68,2.38-7,5.39l-3.48,36.89h2Z"/><path class="cls-43" d="M906.62,413.5a1.77,1.77,0,0,1-2,1.57h0a1.78,1.78,0,0,1-1.57-2l5.2-47.11a1.79,1.79,0,0,1,2-1.57h0a1.78,1.78,0,0,1,1.57,2Z"/><path class="cls-25" d="M883.42,378.65c0-.25-4.26.23-5.06.54.1,2.77,1.08,8.23,1.5,8.62a42.8,42.8,0,0,0,6.35.19C885.29,385.71,884,380.43,883.42,378.65Z"/><path class="cls-27" d="M867.48,328.34l5.3-1.7a3.61,3.61,0,0,0,1.31,3.13l2.46-.34s2.22,4.68,2.38,6.28a4.07,4.07,0,0,0,.65-2.25,2,2,0,0,1,1.8-1.91c1.78-.25,3.39,2.37,4,4.07s3.13,3.81,3.73,3.81l1.27-.25s1-6.68,1.52-9.35c.81-3.43,0-10.8-6.62-13.34-3.23-3.48-15.24-2.4-19.4,4.3s-5,5.08-5.25,5C860.87,327.06,864.09,329.87,867.48,328.34Z"/><path class="cls-68" d="M884.75,316.93c-.25-2.22-10.23-3.49-15.13,1.15s-6.86,9-8.7,8.13c2.28,2.16,7.31-1.71,10.1-4.58a14.56,14.56,0,0,1,13.16-4.06c-2.86.25-8.52-1-15,7.5,1.59-.83,3.81-2.16,10.23-1.21s8-2.23,6.93-4.45c1,.7,1,8.45,4.9,11.51C892.13,328.75,892.76,318.84,884.75,316.93Z"/><rect class="cls-70" x="880.14" y="327.9" width="1.97" height="2.26"/><circle class="cls-16" cx="881.31" cy="334.86" r="5.43"/><path class="cls-43" d="M877.13,334.76a4.18,4.18,0,1,1,4.18,4.18A4.18,4.18,0,0,1,877.13,334.76Z"/><rect class="cls-16" x="878.78" y="313.8" width="4.65" height="14.46" rx="1.27"/><path class="cls-43" d="M883.06,326.07a1.18,1.18,0,0,1-1.06,1.27h-1.78a1.18,1.18,0,0,1-1.06-1.27V314.15a1.18,1.18,0,0,1,1.06-1.27H882a1.18,1.18,0,0,1,1.06,1.27Z"/><path class="cls-11" d="M707.61,471h-2.77V389.92h2.77Z"/><path class="cls-11" d="M843,471h-2.76V389.92H843Z"/><rect class="cls-22" x="670.98" y="387.47" width="210.28" height="4.45"/><polygon class="cls-11" points="876.75 391.61 676.58 391.61 676.3 392.75 876.47 392.75 876.75 391.61"/><path class="cls-71" d="M688.22,385.9a.46.46,0,0,0,.46.46h33.93a.47.47,0,0,0,.46-.46h0a.47.47,0,0,0-.46-.46H688.68a.46.46,0,0,0-.46.46Z"/><path class="cls-40" d="M724.47,385.65a.47.47,0,0,0,.58-.33L736.13,351a.46.46,0,0,0-.28-.6h0a.47.47,0,0,0-.59.32L724.18,385a.48.48,0,0,0,.29.61Z"/><path class="cls-6" d="M724.16,385.84l11.55-35.54a2,2,0,0,1,.95,2.34l-10.48,32.25a57.64,57.64,0,0,1-3.64,2.58l-33.91,0a2,2,0,0,1-1.93-1.63Z"/><path class="cls-71" d="M718.88,386.62a.27.27,0,0,0,.27.26h3.07a.26.26,0,0,0,.26-.26h0a.26.26,0,0,0-.26-.26h-3.07a.26.26,0,0,0-.27.26Z"/><path class="cls-71" d="M714.37,386.62a.26.26,0,0,0,.26.26h3.08a.26.26,0,0,0,.26-.26h0a.26.26,0,0,0-.26-.26h-3.08a.26.26,0,0,0-.26.26Z"/><path class="cls-71" d="M689.26,386.62a.27.27,0,0,0,.27.26h3.07a.26.26,0,0,0,.26-.26h0a.26.26,0,0,0-.26-.26h-3.07a.26.26,0,0,0-.27.26Z"/><path class="cls-71" d="M863.44,385.85a.45.45,0,0,1-.46.45H829.05a.46.46,0,0,1-.46-.45h0a.46.46,0,0,1,.46-.46H863a.45.45,0,0,1,.46.46Z"/><path class="cls-40" d="M827.19,385.59a.46.46,0,0,1-.58-.32l-11.08-34.34a.47.47,0,0,1,.28-.61h0a.48.48,0,0,1,.59.33L827.48,385a.48.48,0,0,1-.29.6Z"/><path class="cls-6" d="M827.5,385.79,816,350.25a2,2,0,0,0-1,2.33l10.48,32.25a57.64,57.64,0,0,0,3.64,2.58l33.91,0a2,2,0,0,0,1.93-1.62Z"/><path class="cls-71" d="M832.78,386.56a.27.27,0,0,1-.27.27h-3.07a.27.27,0,0,1-.26-.27h0a.26.26,0,0,1,.26-.26h3.07a.27.27,0,0,1,.27.26Z"/><path class="cls-71" d="M837.29,386.56a.27.27,0,0,1-.26.27H834a.27.27,0,0,1-.26-.27h0a.26.26,0,0,1,.26-.26H837a.26.26,0,0,1,.26.26Z"/><path class="cls-71" d="M862.4,386.56a.27.27,0,0,1-.27.27h-3.07a.27.27,0,0,1-.26-.27h0a.26.26,0,0,1,.26-.26h3.07a.27.27,0,0,1,.27.26Z"/><path class="cls-14" d="M746.13,385.74a1.77,1.77,0,0,0,1.67,1.75h49.33a1.78,1.78,0,0,0,1.67-1.75Z"/><path class="cls-14" d="M796.25,384.89a2.58,2.58,0,0,1-2.53,1.73H752.18a2.46,2.46,0,0,1-2.47-1.73L745,360.21c-.28-1.46,1-2.39,2.47-2.39h52.57c1.49,0,2.15.93,1.81,2.39Z"/><path class="cls-6" d="M796.1,385.53a2.56,2.56,0,0,1-2.51,1.71H752.28a2.46,2.46,0,0,1-2.45-1.71l-4.61-24.37a2.14,2.14,0,0,1,2.18-2.64h52.2a2.06,2.06,0,0,1,2.08,2.64Z"/><path class="cls-14" d="M778,374.88c.15-2.48-2-4.57-4.9-4.57S768,372.4,768,374.88a4.66,4.66,0,0,0,4.9,4.25A4.87,4.87,0,0,0,778,374.88Z"/><path class="cls-28" d="M835.83,371.93l2.51,13.39a2.1,2.1,0,0,0,1.93,1.75h4.18a2.1,2.1,0,0,0,1.94-1.75L847,382a3.82,3.82,0,0,0,1.08.1,5.83,5.83,0,0,0,5.09-4.76c.43-2.52-1.14-4.46-3.52-4.34a4.26,4.26,0,0,0-1,.16l.24-1.27Zm11.46,8.59,1.08-5.79a3.36,3.36,0,0,1,1-.24,2.34,2.34,0,0,1,2.39,2.95,4,4,0,0,1-3.46,3.25A2.67,2.67,0,0,1,847.29,380.52Z"/><path class="cls-25" d="M840.26,372.25h-4l2.44,13a1.79,1.79,0,0,0,1.62,1.49h1.37Z"/><path class="cls-25" d="M848.51,372.25h-1.57l-2.27,14.47a1.79,1.79,0,0,0,1.4-1.46Z"/><path class="cls-25" d="M848.77,373.64a2.86,2.86,0,0,1,4.16,3.12A3.65,3.65,0,0,0,848.77,373.64Z"/><path class="cls-28" d="M832.25,385.66c.32.67,2.11,1.25,4.69,1.61h11.52c2.58-.36,4.37-.94,4.69-1.61Z"/><path class="cls-25" d="M835.75,385.66h-3c.31.67,2,1.25,4.47,1.61h1.22S836.23,386.7,835.75,385.66Z"/><path class="cls-25" d="M851.65,385.66a14.12,14.12,0,0,1-4.08,1.61h.61c2.46-.36,4.16-.94,4.47-1.61Z"/><path class="cls-14" d="M832.49,386h20.43a1.17,1.17,0,0,0,.23-.29h-20.9A1,1,0,0,0,832.49,386Z"/><path class="cls-8" d="M725.29,371.13l-2.3,16c0,.26-.45.46-.9.46h-5.46c-.45,0-.85-.2-.9-.46l-2.3-16Z"/><path class="cls-72" d="M725.29,370.48l-2.3-3.11a2.74,2.74,0,0,0-.9-.09h-5.46a2.74,2.74,0,0,0-.9.09l-2.3,3.11Z"/><path class="cls-8" d="M720.26,370.18H714l1.88-2.55a4.94,4.94,0,0,1,.71,0h3.63Z"/><path class="cls-6" d="M712.77,370.85a.58.58,0,0,0,.57.58h12.22a.57.57,0,0,0,.57-.58h0a.57.57,0,0,0-.57-.58H713.34a.58.58,0,0,0-.57.58Z"/><path class="cls-14" d="M713.94,370.54h6.37v.62h-6.37a.31.31,0,1,1,0-.62Z"/><path class="cls-72" d="M722.68,371.89h2.17l-2.13,14.84c0,.24-.41.43-.83.43h-.44Z"/><path class="cls-73" d="M718.38,371.89l.46,15.27h-2c-.42,0-.79-.19-.83-.43l-2.13-14.84Z"/><polygon class="cls-34" points="715.06 382.47 714.15 376.13 724.57 376.13 723.66 382.47 715.06 382.47"/><polygon class="cls-24" points="722.29 376.13 724.21 376.13 723.29 382.47 721.81 382.47 722.29 376.13"/><polygon class="cls-38" points="718.44 376.13 718.76 382.47 715.38 382.47 714.53 376.13 718.44 376.13"/><path class="cls-50" d="M724.91,355.14c.26-.11.65.37.26.59-1.24.68-5.53,2.84-5.53,2.84v8.72h-.82V358S723.22,355.88,724.91,355.14Z"/><path class="cls-8" d="M794.89,371.13l-2.3,16c-.05.26-.45.46-.9.46h-5.46c-.45,0-.85-.2-.9-.46l-2.3-16Z"/><path class="cls-72" d="M794.89,370.48l-2.3-3.11a2.74,2.74,0,0,0-.9-.09h-5.46a2.74,2.74,0,0,0-.9.09l-2.3,3.11Z"/><path class="cls-8" d="M789.86,370.18h-6.22l1.88-2.55a4.73,4.73,0,0,1,.71,0h3.63Z"/><path class="cls-6" d="M782.37,370.85a.57.57,0,0,0,.57.58h12.21a.58.58,0,0,0,.58-.58h0a.58.58,0,0,0-.58-.58H782.94a.57.57,0,0,0-.57.58Z"/><path class="cls-14" d="M783.53,370.54h6.38v.62h-6.38a.31.31,0,0,1,0-.62Z"/><path class="cls-72" d="M792.27,371.89h2.18l-2.13,14.84c0,.24-.41.43-.83.43h-.44Z"/><path class="cls-73" d="M788,371.89l.46,15.27h-2c-.42,0-.79-.19-.83-.43l-2.13-14.84Z"/><polygon class="cls-34" points="784.66 382.47 783.75 376.13 794.17 376.13 793.26 382.47 784.66 382.47"/><polygon class="cls-24" points="791.89 376.13 793.81 376.13 792.89 382.47 791.41 382.47 791.89 376.13"/><polygon class="cls-38" points="788.03 376.13 788.36 382.47 784.98 382.47 784.13 376.13 788.03 376.13"/><path class="cls-16" d="M783.24,355.14c-.26-.11-.66.37-.26.59,1.24.68,5.53,2.84,5.53,2.84v8.72h.82V358S784.93,355.88,783.24,355.14Z"/><path class="cls-74" d="M867.53,268.74a2.06,2.06,0,0,1,.85-2.19,10.41,10.41,0,0,0-1.65-2.48,2.06,2.06,0,0,1-3.11-2.29,9.86,9.86,0,0,0-2.85-.83,2.06,2.06,0,0,1-3.86.24,9.9,9.9,0,0,0-2.72,1.19,2.07,2.07,0,0,1-.48,2.3,2.05,2.05,0,0,1-2.31.37,10,10,0,0,0-1.33,2.66,2.06,2.06,0,0,1-.42,3.84,9.56,9.56,0,0,0,.7,2.89,2.06,2.06,0,0,1,2.13,3.21,9.68,9.68,0,0,0,2.4,1.77,2.06,2.06,0,0,1,3.7,1.09,10.69,10.69,0,0,0,1.5,0,11.82,11.82,0,0,0,1.47-.21,2.06,2.06,0,0,1,3.54-1.55,10,10,0,0,0,2.15-2,2.06,2.06,0,0,1,1.72-3.46,9.68,9.68,0,0,0,.32-3A2.06,2.06,0,0,1,867.53,268.74ZM859.79,276a5.19,5.19,0,1,1,4.84-5.5A5.18,5.18,0,0,1,859.79,276Z"/><path class="cls-74" d="M871.18,283.48a.6.6,0,0,1-.45-.5l-.07-.36a.61.61,0,0,1,.24-.63l.3-.18a3.81,3.81,0,0,0-.49-.8l-.33.2a.61.61,0,0,1-.66-.11l-.29-.23a.6.6,0,0,1-.22-.63l.12-.34a3.86,3.86,0,0,0-.89-.29l-.13.36a.62.62,0,0,1-.58.35h-.36a.6.6,0,0,1-.58-.34l-.13-.33a3.84,3.84,0,0,0-.87.34l.14.36a.61.61,0,0,1-.22.64l-.28.24a.63.63,0,0,1-.66.12l-.31-.18a4.07,4.07,0,0,0-.45.82l.34.19a.63.63,0,0,1,.25.63l-.06.36a.65.65,0,0,1-.44.52l-.35.06a4,4,0,0,0,.18.92l.39-.08a.62.62,0,0,1,.59.33l.18.31a.62.62,0,0,1,0,.68l-.23.27a3.79,3.79,0,0,0,.74.58l.24-.3a.64.64,0,0,1,.66-.13l.35.12a.62.62,0,0,1,.43.52v.36h.4a4.9,4.9,0,0,0,.54,0v-.38a.63.63,0,0,1,.42-.53l.35-.13a.62.62,0,0,1,.66.12l.22.27a4.21,4.21,0,0,0,.71-.62l-.25-.29a.62.62,0,0,1,0-.67l.18-.32a.64.64,0,0,1,.59-.34l.34.06a4,4,0,0,0,.14-.93Zm-1.63,0a1.77,1.77,0,0,1-.13.69l-.75-.37a1.55,1.55,0,0,0,0-.31.13.13,0,0,0,0-.06l.83-.2A2.11,2.11,0,0,1,869.55,283.46Zm-3.81,0v0l.83.09a1.06,1.06,0,0,0,.09.36l-.69.47A1.93,1.93,0,0,1,865.74,283.5Zm1.42,0a.48.48,0,0,1,1,0,.48.48,0,1,1-1,0Zm2.28-.63-.82.2a1.06,1.06,0,0,0-.21-.31l.51-.68A1.92,1.92,0,0,1,869.44,282.85Zm-.82-1-.5.68a1.5,1.5,0,0,0-.36-.11l-.06-.83A1.89,1.89,0,0,1,868.62,281.84Zm-1.29-.24,0,.84a1,1,0,0,0-.34.15l-.58-.6A2,2,0,0,1,867.33,281.6Zm-1.13.65.57.6a1.06,1.06,0,0,0-.16.34l-.83-.09A1.8,1.8,0,0,1,866.2,282.25Zm0,2.44.69-.46a1,1,0,0,0,.31.21l-.24.81A1.84,1.84,0,0,1,866.18,284.69Zm1.48.69-.36,0,.23-.81h.12a1.07,1.07,0,0,0,.25,0l.34.77A1.85,1.85,0,0,1,867.66,285.38Zm.92-.24-.34-.78a.88.88,0,0,0,.26-.25l.76.38A1.93,1.93,0,0,1,868.58,285.14Z"/><path class="cls-74" d="M782.48,272.8c7.16,0,13,3.87,13,8.64,0,2.35-1.42,4.48-3.71,6l5.33,11-8.73-9.37a18.51,18.51,0,0,1-5.86.93c-7.16,0-13-3.86-13-8.63S775.32,272.8,782.48,272.8Z"/><path class="cls-74" d="M910.23,290.2c-7.16,0-13,3.87-13,8.64,0,2.35,1.42,4.48,3.71,6l-5.33,11,8.73-9.37a18.51,18.51,0,0,0,5.86.93c7.16,0,13-3.87,13-8.63S917.39,290.2,910.23,290.2Z"/><path class="cls-74" d="M677.19,282.64a1.28,1.28,0,0,1-.64-.17,1.26,1.26,0,0,1-.57-.76,1.24,1.24,0,0,1,.12-.94l2.35-4a6.39,6.39,0,0,1-1.3-7.94,6.3,6.3,0,0,1,3.87-2.95,6.39,6.39,0,0,1,4.83.65,6.34,6.34,0,0,1-1.57,11.62,6,6,0,0,1-1.63.22h0a6.47,6.47,0,0,1-2-.34l-2.35,4a1.17,1.17,0,0,1-.76.58A1.1,1.1,0,0,1,677.19,282.64Zm5.47-16.32a5.57,5.57,0,0,0-1.46.19,5.66,5.66,0,0,0-2.11,9.9l.23.19-2.63,4.51a.54.54,0,0,0-.06.43.62.62,0,0,0,.27.35.56.56,0,0,0,.78-.21l2.63-4.5.27.1a5.69,5.69,0,0,0,3.53.2,5.67,5.67,0,0,0,1.4-10.39A5.75,5.75,0,0,0,682.66,266.32Zm0,10.21a4.55,4.55,0,0,1-2.27-.62,4.51,4.51,0,0,1-1.64-6.19,4.41,4.41,0,0,1,2.75-2.09,4.53,4.53,0,1,1,2.33,8.75A4.69,4.69,0,0,1,682.65,276.53Zm0-8.38a3.83,3.83,0,0,0-1,.13,3.85,3.85,0,0,0-2.74,4.7,3.86,3.86,0,1,0,5.67-4.31A3.82,3.82,0,0,0,682.67,268.15Z"/><path class="cls-74" d="M679.53,271.17a.68.68,0,0,1-.27-.07.54.54,0,0,1-.27-.32.5.5,0,0,1,0-.43,4,4,0,0,1,2.44-1.93,4.49,4.49,0,0,1,3.42.25.58.58,0,0,1,.28.31.55.55,0,0,1,0,.45.57.57,0,0,1-.75.24,3.49,3.49,0,0,0-2.57-.18,3,3,0,0,0-1.78,1.37.61.61,0,0,1-.33.28Z"/><path class="cls-74" d="M646.73,306.75,642.05,311l-.28-.23a14.85,14.85,0,0,0-5.89-2.78c-2.8-.55-4.88-1.2-6.2-4.61-1.67-4.31,1.65-7.66,2.33-8.29s4.31-3.65,8.46-1.61c3.29,1.61,3.75,3.75,4,6.59a15,15,0,0,0,2.27,6.1l.2.3ZM642,309.94l3.89-3.57a15.5,15.5,0,0,1-2.22-6.19c-.28-2.65-.68-4.49-3.59-5.92-3.67-1.8-6.91.92-7.53,1.48s-3.59,3.56-2.11,7.37c1.16,3,3,3.58,5.58,4.09A15.51,15.51,0,0,1,642,309.94Z"/><path class="cls-74" d="M647.33,308l-3.73,3.42a.93.93,0,1,1-1.23-1.34l3.73-3.42a1,1,0,0,1,1.41-.07A1,1,0,0,1,647.33,308ZM642.8,311a.54.54,0,0,0,.23-.13l3.73-3.42a.3.3,0,0,0,.13-.25.5.5,0,0,0-.23.14l-3.73,3.42a.32.32,0,0,0-.13.24Z"/><path class="cls-74" d="M647.81,309.25l-3.06,2.81a.91.91,0,1,1-1.23-1.34l3.06-2.81a.91.91,0,1,1,1.23,1.34Zm-3.73,2.08c-.06.06-.07.13,0,.16a.18.18,0,0,0,.15,0l3.06-2.81c.06-.06.07-.13,0-.15s-.09,0-.16,0Z"/><path class="cls-74" d="M648.34,310.43l-2.46,2.26a.9.9,0,0,1-1.26-.09.89.89,0,0,1,0-1.26l2.46-2.26a.91.91,0,0,1,1.23,1.35Zm-.67-.73L645.21,312l.11.11,2.45-2.25Z"/><path class="cls-74" d="M648.72,311.52l-1.82,1.66a.83.83,0,0,1-1.12-1.22l1.81-1.67a.78.78,0,0,1,1.11.12A.79.79,0,0,1,648.72,311.52Z"/><path class="cls-74" d="M884.33,247.35l-3.4,2.33-.16-.17a9.77,9.77,0,0,0-3.54-2.34c-1.75-.61-3-1.22-3.56-3.54-.68-2.92,1.76-4.77,2.26-5.11s3.11-2,5.59-.26c2,1.34,2.07,2.76,2,4.61a9.73,9.73,0,0,0,.9,4.14l.1.21ZM881,249l2.83-1.93a10.29,10.29,0,0,1-.85-4.19c.07-1.73,0-2.95-1.77-4.14-2.19-1.5-4.53-.05-5,.26s-2.65,2-2,4.54c.48,2.06,1.58,2.58,3.22,3.15A10.18,10.18,0,0,1,881,249Z"/><path class="cls-74" d="M884.59,248.25l-2.71,1.85a.6.6,0,1,1-.67-1l2.72-1.86a.64.64,0,0,1,.92.09A.66.66,0,0,1,884.59,248.25Zm-3.18,1.47a.54.54,0,0,0,.16-.06l2.72-1.86c.08-.06.11-.13.1-.15a.37.37,0,0,0-.16.07l-2.71,1.85a.22.22,0,0,0-.11.15Z"/><path class="cls-74" d="M884.79,249.07l-2.22,1.52a.62.62,0,0,1-.86-.13.62.62,0,0,1,.19-.85l2.23-1.52a.62.62,0,0,1,.86.13A.63.63,0,0,1,884.79,249.07Zm-2.59,1a.1.1,0,0,0,0,.1.09.09,0,0,0,.1,0l2.23-1.53s.06-.08,0-.09-.06,0-.11,0Z"/><path class="cls-74" d="M885,249.87l-1.8,1.23a.59.59,0,0,1-.66-1l1.79-1.23a.59.59,0,0,1,.67,1Zm-.37-.53-1.79,1.23.06.08,1.79-1.22Z"/><path class="cls-74" d="M885.17,250.61l-1.32.9a.54.54,0,0,1-.61-.89l1.32-.9a.51.51,0,0,1,.7.17A.51.51,0,0,1,885.17,250.61Z"/><path class="cls-74" d="M732.05,261.28h-.5a.82.82,0,0,1-.6-.29.8.8,0,0,1-.21-.59l0-.31-.25,0-.07.29a.85.85,0,0,1-1,.62,10.06,10.06,0,0,1-1.24-.4.85.85,0,0,1-.49-.49.83.83,0,0,1,0-.62l.12-.28a2.39,2.39,0,0,1-.22-.12l-.16.26a.87.87,0,0,1-1.18.25,12.42,12.42,0,0,1-1-.77.85.85,0,0,1-.31-.62.77.77,0,0,1,.22-.6l.2-.22-.18-.18-.23.19a.86.86,0,0,1-1.2-.15,12.36,12.36,0,0,1-.72-1.06.89.89,0,0,1-.1-.66.84.84,0,0,1,.41-.52l.26-.14c0-.07-.07-.15-.1-.23l-.29.11a.86.86,0,0,1-1.08-.54,11.73,11.73,0,0,1-.34-1.23.82.82,0,0,1,.15-.68.76.76,0,0,1,.52-.33l.31,0a2.29,2.29,0,0,1,0-.25h-.32a.85.85,0,0,1-.85-.86,9.18,9.18,0,0,1,.09-1.28.84.84,0,0,1,.82-.75h.13l.32.06.06-.25-.31-.1a.76.76,0,0,1-.48-.4.83.83,0,0,1,0-.69,10.12,10.12,0,0,1,.49-1.18.89.89,0,0,1,1.14-.39l.3.16.13-.21-.26-.19a.77.77,0,0,1-.33-.55.85.85,0,0,1,.18-.65,11.37,11.37,0,0,1,.85-1,.91.91,0,0,1,1.22,0l.22.24.19-.15-.19-.28a.8.8,0,0,1-.13-.61.89.89,0,0,1,.39-.58,9.54,9.54,0,0,1,1.11-.61.87.87,0,0,1,1.15.39l.13.31L729,242l-.09-.32a.8.8,0,0,1,.08-.64.93.93,0,0,1,.56-.41,12,12,0,0,1,1.24-.23h.12a.82.82,0,0,1,.83.77l0,.32H732l0-.34a.83.83,0,0,1,.85-.78,9.38,9.38,0,0,1,1.34.19.88.88,0,0,1,.56.4.77.77,0,0,1,.09.63l-.08.32.24.08.13-.32a.87.87,0,0,1,1.14-.43,9.3,9.3,0,0,1,1.12.58.94.94,0,0,1,.41.56.83.83,0,0,1-.13.64l-.17.27.2.14.22-.25a.87.87,0,0,1,1.21,0,8.58,8.58,0,0,1,.88.93.84.84,0,0,1,.2.65.88.88,0,0,1-.31.56l-.26.2c.05.06.09.13.14.2l.29-.17a.9.9,0,0,1,1.16.35,9.34,9.34,0,0,1,.53,1.18.83.83,0,0,1,0,.67.81.81,0,0,1-.47.42l-.31.11.06.24.48-.08a.85.85,0,0,1,.83.72,9.84,9.84,0,0,1,.12,1.28.83.83,0,0,1-.24.64.78.78,0,0,1-.57.24h-.33c0,.09,0,.17,0,.25l.32,0a.86.86,0,0,1,.7,1,9.67,9.67,0,0,1-.3,1.26.86.86,0,0,1-1.07.57l-.3-.1-.09.23.28.14a.84.84,0,0,1,.41.49.9.9,0,0,1-.07.68,9.71,9.71,0,0,1-.68,1.07.87.87,0,0,1-1.2.2l-.24-.19-.17.19.21.22a.78.78,0,0,1,.24.59.86.86,0,0,1-.3.62,9.59,9.59,0,0,1-1,.8.87.87,0,0,1-1.2-.21l-.17-.25-.22.12.13.27a.81.81,0,0,1,0,.63.89.89,0,0,1-.47.5,10.6,10.6,0,0,1-1.21.44.86.86,0,0,1-1.07-.57l-.07-.31-.25,0,0,.3a.77.77,0,0,1-.15.58.91.91,0,0,1-.62.34Zm-2.16-2.2.4.08a7,7,0,0,0,1,.14l.41,0-.09,1.11a8,8,0,0,0,1.22,0l-.1-1.1.4-.05c.33,0,.66-.11,1-.18l.4-.1.27,1.08a10.58,10.58,0,0,0,1.14-.4l-.44-1,.36-.18a7.57,7.57,0,0,0,.84-.47l.35-.23.61.94a9.3,9.3,0,0,0,.95-.76l-.76-.82.29-.29a7.46,7.46,0,0,0,.64-.72l.25-.32.88.68a8.29,8.29,0,0,0,.66-1l-1-.55.17-.36a6.65,6.65,0,0,0,.35-.83,8.47,8.47,0,1,1,.51-2.88,8.39,8.39,0,0,1-.06,1c0-.31,0-.62.06-.94v-.41h1.13c0-.41-.06-.8-.12-1.21l-1.12.19-.09-.4a7.63,7.63,0,0,0-.25-.93l-.13-.38,1.07-.37a8.49,8.49,0,0,0-.49-1.11l-1,.55-.21-.35a7,7,0,0,0-.54-.8l-.25-.33.9-.7a10,10,0,0,0-.82-.88l-.79.83-.31-.25a6.2,6.2,0,0,0-.77-.58l-.34-.23.63-1A7.61,7.61,0,0,0,736,242l-.47,1-.38-.14a8.78,8.78,0,0,0-.91-.3l-.4-.1.28-1.11a7,7,0,0,0-1.19-.19l-.1,1.14h-.73l-.64,0-.4,0-.1-1.13a7.17,7.17,0,0,0-1.19.2l.27,1.11-.38.12a7.18,7.18,0,0,0-.92.33l-.37.16-.45-1.05a9.35,9.35,0,0,0-1.07.59l.62,1-.33.23a7,7,0,0,0-.75.6l-.3.27-.76-.83a7.42,7.42,0,0,0-.83.9l.9.69-.23.33c-.19.27-.37.54-.53.82l-.2.36-1-.55a9.56,9.56,0,0,0-.47,1.12L724,248l-.11.39c-.09.31-.16.62-.22.94l-.07.41-1.11-.19a8.74,8.74,0,0,0-.09,1.21l.72,0,.4,0,0,.41a6.39,6.39,0,0,0,.1,1l.06.4-1.1.19a8.4,8.4,0,0,0,.3,1.17l1.06-.36.15.38a7.85,7.85,0,0,0,.4.88l.19.35-1,.54a8.43,8.43,0,0,0,.67,1l.88-.68.26.31c.2.24.43.47.67.71l.29.27-.74.81a8.6,8.6,0,0,0,1,.74l.62-.93.34.21c.29.17.59.32.87.45l.37.17-.45,1a10.54,10.54,0,0,0,1.16.39ZM732,243.17a7.67,7.67,0,1,0,7.68,7.68A7.69,7.69,0,0,0,732,243.17Zm8.14,10.11,1.07.37a9,9,0,0,0,.29-1.19l-1.12-.18,0-.23a9.1,9.1,0,0,1-.29,1.3Z"/><path class="cls-74" d="M739.67,263.3h-.34a.76.76,0,0,1-.53-.25.83.83,0,0,1-.16-.29.74.74,0,0,1-.63.34l-.17,0a8.1,8.1,0,0,1-.87-.28.77.77,0,0,1-.42-.43.59.59,0,0,1,0-.32.77.77,0,0,1-.88,0,7.68,7.68,0,0,1-.71-.53.76.76,0,0,1-.27-.53.61.61,0,0,1,.06-.33.78.78,0,0,1-.84-.24q-.27-.36-.51-.75a.82.82,0,0,1-.08-.59.83.83,0,0,1,.16-.29h0a.74.74,0,0,1-.71-.51,6.25,6.25,0,0,1-.23-.87.75.75,0,0,1,.11-.58.86.86,0,0,1,.25-.22.74.74,0,0,1-.51-.71,6.92,6.92,0,0,1,.06-.9.74.74,0,0,1,.6-.64.68.68,0,0,1-.22-.26.77.77,0,0,1,0-.58,7.13,7.13,0,0,1,.36-.83.75.75,0,0,1,.77-.41.69.69,0,0,1-.12-.32.76.76,0,0,1,.16-.56,6.86,6.86,0,0,1,.6-.67.49.49,0,0,0,.85-.47.75.75,0,0,1,.33-.48,8.24,8.24,0,0,1,.79-.44.77.77,0,0,1,.86.16.73.73,0,0,1,.09-.32.74.74,0,0,1,.5-.36,7.63,7.63,0,0,1,.85-.16.76.76,0,0,1,.77.43.73.73,0,0,1,.69-.45,6,6,0,0,1,1,.13.76.76,0,0,1,.49.35.88.88,0,0,1,.1.3.78.78,0,0,1,.86-.18,6.85,6.85,0,0,1,.79.42.7.7,0,0,1,.35.49.49.49,0,0,0,.88.43,7.74,7.74,0,0,1,.61.65.78.78,0,0,1,.17.57.68.68,0,0,1-.11.3.78.78,0,0,1,.79.39,6,6,0,0,1,.38.82.76.76,0,0,1,0,.59.67.67,0,0,1-.2.25.74.74,0,0,1,.62.62,6.86,6.86,0,0,1,.09.9.75.75,0,0,1-.21.55.84.84,0,0,1-.28.18.66.66,0,0,1,.24.2.77.77,0,0,1,.15.59,6.87,6.87,0,0,1-.21.87.76.76,0,0,1-.7.53.64.64,0,0,1,.17.3.75.75,0,0,1-.06.58,6,6,0,0,1-.48.75.78.78,0,0,1-.83.28.88.88,0,0,1,.07.32.82.82,0,0,1-.24.54c-.26.22-.49.4-.71.56a.78.78,0,0,1-.88,0,.85.85,0,0,1,0,.32.78.78,0,0,1-.43.44,7.25,7.25,0,0,1-.83.3l-.21,0a.74.74,0,0,1-.62-.32,1,1,0,0,1-.13.28.74.74,0,0,1-.53.29Zm-.23-.83h.64l-.06-.57h-.52Zm-2.1-.41.61.19.13-.56a4.16,4.16,0,0,1-.5-.16Zm4.09-.42.14.56c.2-.07.41-.14.6-.22l-.25-.52A4.09,4.09,0,0,1,741.43,261.64ZM735.5,261c.17.14.34.27.5.38l.31-.49a4.56,4.56,0,0,1-.42-.31Zm7.67-.22.33.49.49-.4-.41-.42A4.23,4.23,0,0,1,743.17,260.75Zm-3.51-9.88a5.11,5.11,0,1,0,5.11,5.11A5.12,5.12,0,0,0,739.66,250.87Zm-5.56,8.48a6.18,6.18,0,0,0,.36.53l.44-.37c-.1-.14-.2-.29-.29-.44Zm10.44,0,.45.36a4.42,4.42,0,0,0,.34-.54l-.51-.27A4.92,4.92,0,0,1,744.54,259.35Zm-11.23-2a5,5,0,0,0,.16.61l.54-.21a4.07,4.07,0,0,1-.13-.5Zm12.06.23.55.19c.06-.21.11-.42.15-.62l-.58-.08A4.7,4.7,0,0,1,745.37,257.59Zm-12.17-2.37a4.44,4.44,0,0,0,0,.63l.58,0a4.53,4.53,0,0,1,0-.52Zm12.38.43h.59c0-.22,0-.43-.07-.64l-.57.12C745.55,255.3,745.57,255.47,745.58,255.65Zm-12-1.9.56.17c.06-.17.13-.33.2-.48l-.51-.28A4,4,0,0,0,733.55,253.75Zm11.38-.48a4.16,4.16,0,0,1,.22.48l.56-.2a4.8,4.8,0,0,0-.26-.57Zm-10.33-1.39.48.35a4.4,4.4,0,0,1,.35-.39l-.41-.44Zm9.16-.17c.13.12.25.25.37.38l.47-.37c-.14-.16-.29-.32-.44-.46Zm-7.56-1.26.34.49.46-.25-.24-.55C736.57,250.24,736.38,250.34,736.2,250.45Zm6,.16a4,4,0,0,1,.46.24l.33-.5c-.2-.12-.39-.21-.57-.3Zm-4-1,.16.57a4.34,4.34,0,0,1,.52-.09l-.05-.59Zm2.11.46.51.07.15-.57c-.21,0-.42-.08-.63-.1Z"/><text class="cls-75" transform="translate(660.43 505.95)">工作即是學習<tspan class="cls-76" x="112.38" y="-1.93">‧</tspan><tspan class="cls-77" x="119.98" y="0">學習即是工作</tspan></text></svg>