<?xml version="1.0" encoding="utf-8"?>
<!-- Generator: Adobe Illustrator 23.1.1, SVG Export Plug-In . SVG Version: 6.00 Build 0)  -->
<svg version="1.1" id="圖層_1" xmlns="http://www.w3.org/2000/svg" xmlns:xlink="http://www.w3.org/1999/xlink" x="0px" y="0px"
	 viewBox="0 0 50 50" style="enable-background:new 0 0 50 50;" xml:space="preserve">
<style type="text/css">
	.st0{fill:#2F6E35;}
</style>
<title>圖稿</title>
<path class="st0" d="M40.5,31.6c-1.2-1.6-3.4-2.5-6.5-2.5c-3.4-3.2-11.6-11-13-12.4c0.3-1.9-0.1-3.8-1.2-5.3
	c-1.3-1.6-3.5-2.4-6.4-2.3c-0.3,0-0.5,0.2-0.5,0.5c0,0.1,0.1,0.3,0.2,0.4l3.2,3.2l-2.9,2.9l-3.7-3.3c-0.2-0.2-0.6-0.2-0.8,0.1
	c-0.1,0.1-0.1,0.2-0.1,0.3c0,0.2-0.4,3.8,1.8,6.1c1.3,1.3,3.2,1.9,5.7,1.6l12.3,11.9c-0.1,1-0.4,4.3,1.6,6.3
	c1.2,1.1,2.8,1.7,4.5,1.6c0.7,0,1.3-0.1,2-0.2c0.2,0,0.4-0.2,0.4-0.4c0.1-0.2,0-0.4-0.1-0.5c-1.5-1.5-2.3-2.3-2.7-2.8l2.9-2.8
	l3.1,2.8c0.2,0.2,0.6,0.2,0.8,0c0-0.1,0.1-0.1,0.1-0.2C41.6,35.1,41.4,33.2,40.5,31.6z M40.2,35.6l-2.8-2.5c-0.2-0.2-0.5-0.2-0.7,0
	l-3.6,3.4c-0.2,0.2-0.2,0.5,0,0.7c0.7,0.9,1.5,1.7,2.3,2.5c-1.6,0.3-3.2-0.2-4.5-1.3c-2-2-1.3-5.7-1.3-5.7c0-0.2,0-0.4-0.2-0.5
	L16.7,20c-0.1-0.1-0.2-0.2-0.4-0.1h-0.1c-2.2,0.3-3.9-0.2-5-1.3c-1-1.1-1.5-2.6-1.5-4.1l3.2,2.9c0.2,0.2,0.5,0.2,0.7,0l3.6-3.6
	c0.2-0.2,0.2-0.5,0-0.8l-2.6-2.6c1.6,0,3.1,0.7,4.2,1.9c0.9,1.4,1.3,3.1,0.9,4.7c0,0.2,0,0.4,0.1,0.5c0.1,0.1,9.9,9.3,13.4,12.7
	c0.1,0.1,0.2,0.2,0.4,0.1c2.9,0,4.9,0.7,5.9,2C40.3,33.2,40.5,34.4,40.2,35.6L40.2,35.6z"/>
<path class="st0" d="M22.7,30.7l-8.1,7.9l-0.4,0.1L11.4,36l0.6-1.8l7.4-6.9c0.2-0.2,0.2-0.5,0-0.8c-0.2-0.2-0.5-0.2-0.8,0l-7.5,7
	c-0.1,0.1-0.1,0.1-0.1,0.2l-2.4,6.7c-0.1,0.2,0,0.4,0.1,0.5c0.1,0.1,0.2,0.2,0.4,0.2h0.1l5.7-1.6c0.1,0,0.2-0.1,0.2-0.1l8.2-8
	c0.2-0.2,0.2-0.6-0.1-0.8C23.2,30.6,22.9,30.6,22.7,30.7L22.7,30.7z M10.1,39.8L10.1,39.8L10.1,39.8L10.1,39.8z"/>
<path class="st0" d="M13.1,37.3c0.1,0.1,0.2,0.2,0.4,0.2c0.1,0,0.3-0.1,0.4-0.2l8-8.1c0.2-0.2,0.3-0.5,0.1-0.8
	c-0.2-0.2-0.5-0.3-0.8-0.1c0,0-0.1,0-0.1,0.1l-8,8.1C12.8,36.7,12.8,37,13.1,37.3C13,37.3,13,37.3,13.1,37.3z"/>
<path class="st0" d="M26.6,20.3l5.4-5.1l1.9,1.8l-5.4,5.3c-0.2,0.2-0.2,0.6,0,0.8c0.1,0.1,0.2,0.2,0.4,0.2c0.1,0,0.3-0.1,0.4-0.1
	l5.4-5.3l0.6,0.5l-4.9,5.1c-0.2,0.2-0.2,0.5,0,0.7c0.1,0.1,0.2,0.2,0.4,0.2c0.1,0,0.3-0.1,0.4-0.2l5.3-5.4c0.1-0.1,0.2-0.2,0.2-0.4
	c0-0.1-0.1-0.3-0.2-0.4L32.4,14c-0.2-0.2-0.5-0.2-0.7,0l-5.8,5.5c-0.2,0.2-0.2,0.5,0,0.8C26,20.5,26.3,20.5,26.6,20.3z"/>
<path class="st0" d="M37.5,17.3c0.1,0.1,0.2,0.2,0.4,0.2c0.1,0,0.3-0.1,0.4-0.2c0.2-0.2,0.2-0.5,0-0.8L33.8,12
	c-0.2-0.2-0.6-0.2-0.8,0.1c-0.2,0.2-0.2,0.5,0,0.7L37.5,17.3z"/>
<path class="st0" d="M38.6,15.5c0.1,0.1,0.2,0.2,0.4,0.2l0,0c0.1,0,0.3-0.1,0.4-0.2l1.9-2.1c0.2-0.2,0.2-0.5,0-0.7l-3.7-3.7
	c-0.1-0.1-0.2-0.2-0.4-0.2l0,0c-0.1,0-0.3,0.1-0.4,0.2l-1.9,2c-0.2,0.2-0.2,0.5,0,0.8L38.6,15.5z M37.2,10.1l2.9,2.9l-1.2,1.3l-3-3
	L37.2,10.1z"/>
</svg>
