<?xml version="1.0" encoding="utf-8"?>
<!-- Generator: Adobe Illustrator 23.1.1, SVG Export Plug-In . SVG Version: 6.00 Build 0)  -->
<svg version="1.1" id="圖層_1" xmlns="http://www.w3.org/2000/svg" xmlns:xlink="http://www.w3.org/1999/xlink" x="0px" y="0px"
	 viewBox="0 0 833 614" style="enable-background:new 0 0 833 614;" xml:space="preserve">
<style type="text/css">
	.st0{fill:#EEEEEE;}
	.st1{fill:#898989;}
</style>
<rect x="0.9" y="-0.5" class="st0" width="833" height="614"/>
<path class="st1" d="M384.4,293.3L337.6,227v66.3h-22.8v-97h25.8l46.5,65.9v-65.9h22.8v97H384.4z"/>
<g>
	<path class="st1" d="M211.5,344.4v-18.8h24.1v18.8H211.5z M211.5,422.7v-70.5h24.1v70.5H211.5z"/>
	<path class="st1" d="M338.5,422.7v-51.4c0-1.8-0.4-3.3-1.3-4.5c-0.8-1.2-1.9-2.2-3.1-2.8c-2.6-1.1-5.6-1-9.1,0.4
		c-1.8,0.7-3.4,1.8-5,3.2c-1.6,1.5-2.8,3.3-3.8,5.6v49.5h-23.6v-52.2c0-2.2-0.8-4.1-2.3-5.6c-2.1-1.6-4.8-2-8.1-1.3
		c-1.5,0.4-2.9,0.9-4.3,1.7c-1.4,0.8-2.7,1.8-4,3.1c-2.8,3.1-4.2,6.5-4.2,10.3v44h-23.2v-70.5h23.2v8.7c2.6-3.6,5.7-6.2,9.2-7.7
		c2.3-1,4.7-1.6,7.1-2s4.9-0.5,7.4-0.4c2.4,0.1,4.6,0.4,6.6,0.9s4,1.3,5.9,2.6c1.5,0.9,2.8,1.9,3.9,3.1s2,2.5,2.5,4
		c1.8-2.4,3.9-4.3,6.3-5.8s5.1-2.6,8.1-3.3c2.7-0.7,5.5-1.1,8.4-1.2s5.9,0.1,8.9,0.5c2.7,0.4,5.2,1.3,7.4,2.7
		c2.2,1.3,4.1,2.9,5.6,4.8c3.2,3.8,4.8,8.1,4.8,13v50.6L338.5,422.7L338.5,422.7z"/>
	<path class="st1" d="M426,422.7c-0.4-0.7-0.8-1.6-1-2.6c-0.3-1-0.5-1.9-0.7-2.7c-2.7,1.8-5.7,3.2-8.9,4.2c-3.2,1-6.7,1.7-10.3,2.2
		c-4,0.4-8,0.4-12-0.1s-7.7-1.6-11-3.2c-5-2.5-8.4-6-10.2-10.6c-0.9-2.3-1.4-4.8-1.3-7.5s0.7-5.2,1.7-7.6c1-2.5,2.5-4.6,4.3-6.2
		c1.8-1.7,3.9-3,6.2-4.1c3-1.5,6.3-2.5,9.8-3s7-0.9,10.4-1.2c3.3-0.2,6.8-0.5,10.2-0.9c3.5-0.4,6.6-1,9.3-1.7
		c-0.1-1-0.2-1.9-0.2-2.9s-0.1-1.9-0.2-2.9c-0.3-3.1-2-5.6-5.2-7.4c-1.9-1.1-4.1-1.6-6.6-1.5c-2.6,0-4.8,0.4-6.8,1.1
		c-2.4,0.9-4.2,2.3-5.4,4.1c-1.2,1.9-2,3.8-2.3,5.8h-25.2c0.9-2.9,2.2-5.8,3.8-8.6c1.6-2.8,4-5.2,7.4-7.2c3.4-2.1,7.3-3.8,11.7-4.9
		c4.3-1.1,8.8-1.8,13.5-2c4.8-0.2,9.6,0.1,14.3,0.9c4.7,0.8,9,2.2,12.9,4.2c3.4,1.9,6.3,4.3,8.4,7.2c2.2,3,3.3,6.6,3.3,10.8
		c0,2.2,0,4.8,0.1,7.8s0.1,6,0.2,9.1s0.2,6.1,0.2,8.9c0.1,2.8,0.1,5.2,0.2,7c0.3,5.7,1.6,10.9,3.9,15.6L426,422.7L426,422.7z
		 M422.5,407c0-1.1,0-2.3,0-3.8s0-3.1,0-4.7s0-3.3,0-4.9s0-3,0-4.2c-1.8,0.4-3.8,0.9-6.2,1.3c-2.3,0.4-4.6,0.7-6.6,0.9
		c-1.5,0.2-2.9,0.4-4.4,0.7c-1.5,0.3-2.8,0.7-3.9,1.3c-1.1,0.6-2.1,1.3-2.9,2.1c-0.8,0.8-1.4,1.8-2,3c-0.8,2.2-1,4.1-0.5,5.8
		c0.5,1.6,1.5,3,3,4.2c2.7,2.3,6.3,3,10.8,2.3c2-0.4,4.1-0.9,6.5-1.7C418.7,408.5,420.7,407.7,422.5,407z"/>
	<path class="st1" d="M528.3,439.5c-2.4,2.4-5.2,4.3-8.3,5.7c-3.1,1.4-6.5,2.5-10,3.3c-4.1,0.9-8.3,1.4-12.7,1.5
		c-4.4,0.1-8.8-0.1-13.1-0.7c-4-0.5-7.6-1.5-11-2.8c-3.3-1.3-6.4-3.3-9.2-5.8c-2.3-2.1-4-4.5-5.2-7.2c-1.1-2.7-1.8-5.4-2-8.2H482
		c0.2,1.3,0.5,2.9,0.9,4.7c0.4,1.8,1.3,3.5,2.7,5c1.6,1.8,3.7,2.8,6.4,3c5.1,0.5,9.3-0.2,12.7-2.1c4-2.4,5.9-5.9,5.9-10.5v-9.1
		c-5.1,3.3-10.9,5.2-17.4,5.7c-4.5,0.4-8.8,0-13.1-1.1c-4.2-1.1-8.1-2.8-11.7-5.3c-4.2-3-7.4-6.7-9.7-11c-2.3-4.3-3.6-8.8-3.9-13.5
		c-0.3-4.4-0.1-8.7,0.8-12.9c0.8-4.2,2.4-8,4.7-11.7c1.7-2.7,3.8-5.1,6.3-7.3c2.5-2.2,5.4-4.1,8.8-5.6c3-1.3,6.4-2.2,10-2.7
		c3.6-0.4,7.3-0.4,11,0.3c5.3,0.8,10.1,2.6,14.2,5.4V352h24.1v72.3C534.7,430,532.6,435.1,528.3,439.5z M510.6,369.4
		c-2-2.4-4.4-4.2-7.4-5.3c-2.7-1.1-5.9-1.2-9.5-0.5c-2.4,0.4-4.3,1.2-5.8,2.4c-1.5,1.1-2.7,2.6-3.6,4.2c-0.9,1.8-1.7,4-2.3,6.7
		c-0.6,2.7-1,5.5-1.2,8.4s-0.2,5.7,0.1,8.4c0.3,2.7,0.7,5,1.3,6.8c0.7,1.9,1.8,3.5,3.2,5c1.4,1.5,3.4,2.6,5.9,3.4
		c2.9,0.9,5.9,1,9.1,0.3c2-0.4,3.8-1.1,5.5-1.9s3.2-1.9,4.7-3.1L510.6,369.4L510.6,369.4z"/>
	<path class="st1" d="M620,408.7c-2.3,3.7-5.3,6.8-9,9.3c-3.8,2.5-8.1,4.1-12.9,5c-4.8,0.8-9.6,1.2-14.2,1.1
		c-6.4-0.1-12.5-1.1-18.3-3.1s-10.6-5.3-14.4-9.9c-2.7-3.2-4.7-6.8-5.9-10.8c-1.3-4-1.8-8.2-1.7-12.4c0-4,0.6-7.9,1.8-11.8
		s3.1-7.5,5.6-10.9c3-3.9,6.7-7,11.1-9.3c4.4-2.3,9.2-3.8,14.5-4.6c4.4-0.7,8.9-0.8,13.7-0.3c4.7,0.5,9.2,1.6,13.2,3.2
		c3.6,1.5,6.9,3.5,9.9,6c2.9,2.5,5.2,5.3,6.9,8.6c2.6,4.9,3.5,10,2.7,15.5c-0.2,2-1.1,3.6-2.6,4.7s-3.5,1.7-5.9,1.7H569
		c0,2.8,0.3,5.7,1,8.7s2.1,5.6,4.1,8c1.5,1.7,3.1,2.9,5,3.8c1.9,0.8,3.9,1.3,5.9,1.3c2.1-0.1,4.1-0.6,6.1-1.5s3.5-2.3,4.7-4
		c1.8-2.7,2.8-5.7,3.1-9.3h25C623.7,401.3,622.3,405,620,408.7z M596.6,373.8c-0.2-1.8-0.7-3.5-1.6-5c-1.8-3.3-4.6-5.2-8.4-5.7
		c-2.1-0.3-4.2-0.1-6.3,0.5s-3.9,1.7-5.4,3.3c-1.5,1.7-2.6,3.6-3.3,5.7s-1.3,4.2-1.6,6.2h26.6C596.8,377.3,596.8,375.6,596.6,373.8z
		"/>
</g>
<g>
	<g>
		<path class="st1" d="M526.6,287.3c-6.7-6.1-15.1-13.7-17.8-16.2c-2.5,5-6.8,8.9-12.1,10.9l16,18.3c1.8,2,4.3,3.2,6.9,3.3
			c2.7,0.1,5.3-0.9,7.2-2.8c1.8-1.8,2.8-4.2,2.8-6.8C529.6,291.4,528.5,289,526.6,287.3z"/>
	</g>
	<path class="st1" d="M514,245.4l-1.3,0.2c-3.7,0.5-7.6-0.7-10.4-3.3l-1.1-1.1l-0.3,1.5c-3.6,16.1-18.1,27.7-34.6,27.7
		c-19.6,0-35.5-15.9-35.5-35.5c0-19.6,15.9-35.5,35.5-35.5c14.5,0,27.8,9.1,33.1,22.7l0.1,0.3l2.9,1.6l0.5-0.4
		c2.5-2.1,5.7-3.2,8.9-3l1.3,0.1l-0.4-1.2c-6.7-20-25.3-33.4-46.4-33.4c-27,0-48.9,21.9-48.9,48.9c0,27,21.9,48.9,48.9,48.9
		c7.6,0,15.2-1.8,22-5.2l0.1,0.1c0.1,0.1,3.6,2.9,10.3-1.5c4.8-3.2,6.9-6.4,6.9-6.4c1.4-1.6,3.3-5.2,1.1-8.3
		c3.3-4.8,5.7-10.1,7.1-15.8L514,245.4z"/>
	<path class="st1" d="M528.7,196.6c-5.5,0-10,4.5-10,10c0,2.2,0.7,4.3,2.1,6.1l-6.9,9.3l-0.1,0.2c-4.1-1.1-8.4,0.2-11.3,3.3
		l-12.8-6.9c0-0.4,0.1-0.8,0.1-1.2c0-7.1-5.7-12.8-12.8-12.8c-7.1,0-12.8,5.7-12.8,12.8c0,2.8,0.9,5.5,2.6,7.7l-4.2,6.7l0.8,0.5
		c0.7,0.5,1.3,1,1.8,1.5c-1.4-0.6-2.5-0.9-2.5-0.9c-1.4-0.4-2.9-0.6-4.4-0.6c-9.6,0-17.5,7.8-17.5,17.5c0,9.6,7.8,17.5,17.5,17.5
		c9.6,0,17.5-7.8,17.5-17.5c0-4.6-1.7-8.8-4.9-12.1l4.3-7.6c4.1,0.6,8-0.8,10.8-3.6l13.4,7.2c0.2,6.2,5.3,11.2,11.5,11.2
		c6.2,0,11.3-5,11.5-11.5c0.1-1.9-0.3-3.6-1-5.3l7.3-11.5c0,0,0,0,0.1,0c5.5,0,10-4.5,10-9.9S534.2,196.6,528.7,196.6z"/>
</g>
</svg>
