<?xml version="1.0" encoding="utf-8"?>
<!-- Generator: Adobe Illustrator 23.1.1, SVG Export Plug-In . SVG Version: 6.00 Build 0)  -->
<svg version="1.1" id="圖層_1" xmlns="http://www.w3.org/2000/svg" xmlns:xlink="http://www.w3.org/1999/xlink" x="0px" y="0px"
	 viewBox="0 0 50 50" style="enable-background:new 0 0 50 50;" xml:space="preserve">
<style type="text/css">
	.st0{fill:#2F6E35;}
</style>
<title>圖稿</title>
<path class="st0" d="M17.3,21.9h16c1,0,1.9-0.8,1.9-1.9c0,0,0,0,0,0v-7.4l0,0v-0.8l0,0v-1.1c0-1-0.8-1.9-1.9-1.9l0,0h-16
	c-1,0-1.9,0.8-1.9,1.9l0,0V20C15.4,21,16.2,21.9,17.3,21.9z M16.2,10.7c0-0.6,0.5-1.1,1.1-1.1h16c0.6,0,1.1,0.5,1.1,1.1v1.1H16.2
	V10.7z M34.4,12.6V20c0,0.6-0.5,1.1-1.1,1.1h-16c-0.6,0-1.1-0.4-1.1-1c0,0,0,0,0,0v-7.4H34.4z"/>
<path class="st0" d="M23.5,30c0-1-0.8-1.9-1.9-1.9h-16c-1,0-1.9,0.8-1.9,1.8c0,0,0,0,0,0v9.3c0,1,0.9,1.9,1.9,1.9h16
	c1,0,1.9-0.8,1.9-1.9l0,0V32l0,0v-0.8l0,0L23.5,30z M4.5,30c0-0.6,0.5-1.1,1.1-1.1h16c0.6,0,1.1,0.4,1.1,1c0,0,0,0,0,0.1v1.2H4.5
	L4.5,30z M22.6,39.3c0,0.6-0.5,1.1-1.1,1.1h-16c-0.6,0-1.1-0.5-1.1-1.1V32h18.1L22.6,39.3z"/>
<path class="st0" d="M46.3,31.2L46.3,31.2V30c0-1-0.8-1.9-1.9-1.9h-16c-1,0-1.9,0.8-1.9,1.9c0,0,0,0,0,0v9.3c0,1,0.8,1.9,1.9,1.9
	l0,0h16c1,0,1.9-0.8,1.9-1.9V32l0,0L46.3,31.2z M27.4,30c0-0.6,0.5-1.1,1.1-1.1h16c0.6,0,1.1,0.4,1.1,1c0,0,0,0,0,0v1.2H27.4V30z
	 M45.5,39.3c0,0.6-0.5,1.1-1.1,1.1h-16c-0.6,0-1.1-0.5-1.1-1.1V32h18.1V39.3z"/>
<path class="st0" d="M7.2,35.6c0.6,0,1-0.4,1-1s-0.4-1-1-1s-1,0.4-1,1S6.7,35.6,7.2,35.6z"/>
<path class="st0" d="M7.2,38.7c0.5-0.1,0.9-0.7,0.7-1.2c-0.1-0.4-0.4-0.6-0.7-0.7c-0.5,0.1-0.9,0.7-0.7,1.2
	C6.6,38.4,6.9,38.7,7.2,38.7z"/>
<rect x="9.4" y="34.2" class="st0" width="10.3" height="0.8"/>
<rect x="9.4" y="37.4" class="st0" width="10.3" height="0.8"/>
<path class="st0" d="M30.3,35.6c0.5-0.1,0.9-0.7,0.7-1.2c-0.1-0.4-0.4-0.6-0.7-0.7c-0.5,0.1-0.9,0.7-0.7,1.2
	C29.6,35.3,29.9,35.5,30.3,35.6z"/>
<path class="st0" d="M30.3,38.7c0.6,0,1-0.4,1-1s-0.4-1-1-1s-1,0.4-1,1S29.7,38.7,30.3,38.7z"/>
<rect x="32.4" y="34.2" class="st0" width="10.3" height="0.8"/>
<rect x="32.4" y="37.4" class="st0" width="10.3" height="0.8"/>
<path class="st0" d="M19,16.1c0.6,0,1-0.4,1-1s-0.4-1-1-1s-1,0.4-1,1S18.5,16.1,19,16.1z"/>
<path class="st0" d="M19,19.2c0.6,0,1-0.4,1-1s-0.4-1-1-1s-1,0.4-1,1S18.5,19.2,19,19.2z"/>
<rect x="21.2" y="14.7" class="st0" width="10.3" height="0.8"/>
<rect x="21.2" y="17.8" class="st0" width="10.3" height="0.8"/>
<path class="st0" d="M36.5,28.1h0.8c0-2.3-0.1-3.5-2.1-3.5h-9.5v-2.7h-0.8v2.6h-8.4c-0.9-0.1-1.7,0.2-2.4,0.8
	c-0.6,0.7-0.8,1.6-0.7,2.5c0,0.1,0,0.2,0,0.2h0.8c0-0.1,0-0.2,0-0.3c-0.1-0.7,0-1.3,0.4-1.9c0.5-0.4,1.1-0.6,1.8-0.5h18.8
	C36.3,25.4,36.5,25.5,36.5,28.1z"/>
</svg>
