<?xml version="1.0" encoding="utf-8"?>
<!-- Generator: Adobe Illustrator 23.1.1, SVG Export Plug-In . SVG Version: 6.00 Build 0)  -->
<svg version="1.1" id="圖層_1" xmlns="http://www.w3.org/2000/svg" xmlns:xlink="http://www.w3.org/1999/xlink" x="0px" y="0px"
	 viewBox="0 0 50 50" style="enable-background:new 0 0 50 50;" xml:space="preserve">
<style type="text/css">
	.st0{fill:#2F6E35;}
</style>
<title>圖稿</title>
<g>
	<path class="st0" d="M43.1,10.9H24.6c-0.6,0-1.1,0.5-1.1,1.1v2.7c0,0.6,0.5,1.1,1.1,1.1h18.5c0.6,0,1.1-0.5,1.1-1.1V12
		C44.2,11.4,43.7,10.9,43.1,10.9z M24.6,14.7L24.6,14.7V12h9.8l1.5,2.7H24.6L24.6,14.7z M43.1,14.7h-5.9L35.7,12h7.4L43.1,14.7
		L43.1,14.7z"/>
	<path class="st0" d="M43.1,17H24.6c-0.6,0-1.1,0.5-1.1,1.1v2.7c0,0.6,0.5,1.1,1.1,1.2l0,0h18.5c0.6,0,1.1-0.5,1.1-1.1v-2.7
		C44.2,17.5,43.7,17,43.1,17L43.1,17z M24.6,20.8L24.6,20.8v-2.7H30l1.5,2.7H24.6z M43.1,20.8H32.8l-1.5-2.7h11.8V20.8L43.1,20.8z"
		/>
</g>
<g>
	<path class="st0" d="M43.1,27.9H24.6c-0.6,0-1.1,0.5-1.1,1.1v2.7c0,0.6,0.5,1.1,1.1,1.1h18.5c0.6,0,1.1-0.5,1.1-1.1V29
		C44.2,28.4,43.7,27.9,43.1,27.9z M24.6,31.7L24.6,31.7V29h7.1l1.5,2.7H24.6L24.6,31.7z M43.1,31.7h-8.6L33,29h10L43.1,31.7
		L43.1,31.7z"/>
	<path class="st0" d="M43.1,34H24.6c-0.6,0-1.1,0.5-1.1,1.1v2.7c0,0.6,0.5,1.2,1.1,1.2l0,0h18.5c0.6,0,1.1-0.5,1.1-1.1v-2.7
		C44.2,34.5,43.7,34,43.1,34L43.1,34z M24.6,37.8L24.6,37.8v-2.7h5.9l1.5,2.7H24.6z M43.1,37.8h-9.8l-1.5-2.7h11.3V37.8z"/>
</g>
<path class="st0" d="M13.7,8.6c-4.4,0-7.9,3.5-7.9,7.9c0,4.4,3.5,7.9,7.9,7.9s7.9-3.5,7.9-7.9C21.6,12.1,18,8.6,13.7,8.6z M9.4,21.9
	l0.1-0.2c0.6-1.4,1.4-2.6,2.3-3.4l0.1-0.1l0.1,0.1c0.5,0.3,1.1,0.5,1.7,0.5c0.3,0,0.9,0,1.5-0.4l0.2-0.1l0.1,0.1
	c1,1,1.8,2.2,2.2,3.4l0.1,0.2l-0.1,0.1c-1.1,0.8-2.4,1.2-3.8,1.2c-1.4,0-2.8-0.4-4.1-1.3L9.4,21.9z M12,15.3c0-0.9,0.8-1.7,1.7-1.7
	s1.7,0.8,1.7,1.7c0,1-0.8,1.7-1.7,1.7C12.8,17,12,16.2,12,15.3z M18.8,20.4c-0.5-1.1-1.2-2.2-2.2-3.1l-0.1-0.1l0.1-0.1
	c0.3-0.6,0.5-1.2,0.5-1.7c0-1.9-1.5-3.4-3.4-3.4s-3.4,1.5-3.4,3.4c0,0.6,0.1,1.1,0.4,1.6l0.1,0.2l-0.1,0.1c-0.9,0.8-1.6,1.8-2.2,3
	l-0.2,0.4L8,20.2c-0.8-1.2-1.1-2.4-1.1-3.7c0-3.7,3.1-6.8,6.8-6.8c3.7,0,6.8,3.1,6.8,6.8c-0.1,1.5-0.6,2.8-1.3,3.9l-0.2,0.3
	L18.8,20.4z"/>
<path class="st0" d="M13.7,25.6c-4.4,0-7.9,3.5-7.9,7.9c0,4.4,3.5,7.9,7.9,7.9s7.9-3.5,7.9-7.9C21.6,29.1,18,25.6,13.7,25.6z
	 M9.4,38.9l0.1-0.2c0.6-1.4,1.4-2.6,2.3-3.4l0.1-0.1l0.1,0.1c0.5,0.3,1.1,0.5,1.7,0.5c0.3,0,0.9,0,1.5-0.4l0.2-0.1l0.1,0.1
	c1,1,1.8,2.2,2.2,3.4l0.1,0.2l-0.1,0.1c-1.1,0.8-2.4,1.2-3.8,1.2c-1.4,0-2.8-0.4-4.1-1.3L9.4,38.9z M12,32.3c0-0.9,0.8-1.7,1.7-1.7
	s1.7,0.8,1.7,1.7c0,1-0.8,1.7-1.7,1.7C12.8,34,12,33.2,12,32.3z M18.8,37.4c-0.5-1.1-1.2-2.2-2.2-3.1l-0.1-0.1l0.1-0.1
	c0.3-0.6,0.5-1.2,0.5-1.7c0-1.9-1.5-3.4-3.4-3.4s-3.4,1.5-3.4,3.4c0,0.6,0.1,1.1,0.4,1.6l0.1,0.2l-0.1,0.1c-0.9,0.8-1.6,1.8-2.2,3
	l-0.2,0.4L8,37.2c-0.8-1.2-1.1-2.4-1.1-3.7c0-3.7,3.1-6.8,6.8-6.8c3.7,0,6.8,3.1,6.8,6.8c-0.1,1.5-0.6,2.8-1.3,3.9l-0.2,0.3
	L18.8,37.4z"/>
</svg>
