<svg id="圖層_1" data-name="圖層 1" xmlns="http://www.w3.org/2000/svg" viewBox="0 0 310 59"><defs><style>.cls-1{fill:#2f6e35;}.cls-2{fill:#74da64;}</style></defs><title>FOIS_Web</title><polygon class="cls-1" points="20.5 18.57 20.5 14.74 3.5 14.74 3.5 44.53 8.07 44.53 8.07 31.88 19.98 31.88 19.98 28.05 8.07 28.05 8.07 18.57 20.5 18.57"/><path class="cls-1" d="M57.12,42.33c-2-1.85-4.55-4.14-5.37-4.9a6.86,6.86,0,0,1-3.65,3.3l4.82,5.52a3,3,0,0,0,4.27.17,2.81,2.81,0,0,0-.07-4.09Z"/><path class="cls-1" d="M53.33,29.67l-.39,0a3.78,3.78,0,0,1-3.14-1l-.35-.32-.1.46a10.71,10.71,0,1,1-.46-6.21l0,.1.88.47.14-.12a3.85,3.85,0,0,1,2.69-.9l.4,0-.13-.38a14.79,14.79,0,1,0-7.38,17.87l0,0c.05,0,1.09.88,3.11-.46a7.67,7.67,0,0,0,2.1-1.94,2.07,2.07,0,0,0,.34-2.52,14.78,14.78,0,0,0,2.13-4.78Z"/><path class="cls-2" d="M57.77,14.91a3,3,0,0,0-2.37,4.85l-2.09,2.81,0,.05a3.51,3.51,0,0,0-3.41,1L46,21.53c0-.12,0-.24,0-.37a3.88,3.88,0,1,0-7,2.34l-1.25,2,.23.14a2.23,2.23,0,0,1,.54.45,4.68,4.68,0,0,0-.76-.27,5.29,5.29,0,1,0,4,5.12,5.22,5.22,0,0,0-1.47-3.65L41.6,25a3.8,3.8,0,0,0,3.27-1.1l4.05,2.17A3.48,3.48,0,0,0,55.87,26a3.38,3.38,0,0,0-.31-1.59l2.2-3.48h0a3,3,0,1,0,0-6Z"/><rect class="cls-1" x="65.45" y="14.74" width="4.58" height="29.78"/><path class="cls-1" d="M94.3,30.37a16.09,16.09,0,0,0-3-2l-3-1.52c-.93-.46-1.73-.88-2.39-1.25a7.19,7.19,0,0,1-1.52-1.09,3.6,3.6,0,0,1-.79-1.18,4,4,0,0,1-.25-1.51c0-2.6,1.65-3.86,5-3.86a13.94,13.94,0,0,1,3.57.47,15.44,15.44,0,0,1,3.15,1.21l.31.16.87-3.74-.18-.1a15.65,15.65,0,0,0-3.55-1.3,16.72,16.72,0,0,0-8,0,8.81,8.81,0,0,0-3,1.49,6.8,6.8,0,0,0-2,2.52,8,8,0,0,0-.71,3.45,6.55,6.55,0,0,0,.67,3,8.26,8.26,0,0,0,1.74,2.31,12.91,12.91,0,0,0,2.49,1.8c.93.51,1.91,1,2.9,1.48s1.7.8,2.47,1.18a10.12,10.12,0,0,1,2,1.26,5.48,5.48,0,0,1,1.32,1.55,4.09,4.09,0,0,1,.47,2.05,3.68,3.68,0,0,1-1.64,3.27,7.77,7.77,0,0,1-4.46,1.16A15.82,15.82,0,0,1,83,40.79a19.35,19.35,0,0,1-3.54-1.21l-.29-.14-.92,3.74.2.09a17.77,17.77,0,0,0,4.12,1.34,23.07,23.07,0,0,0,4.38.44,14,14,0,0,0,4.1-.58,10.52,10.52,0,0,0,3.33-1.67,8.28,8.28,0,0,0,2.27-2.63,7.26,7.26,0,0,0,.84-3.51,7,7,0,0,0-.91-3.6A10.78,10.78,0,0,0,94.3,30.37Z"/><path class="cls-1" d="M105.5,33.4H107a.73.73,0,0,0,.82-.75l.24-2.8H131l-.24,2.73a.74.74,0,0,0,.15.61.75.75,0,0,0,.59.21h1.49a.73.73,0,0,0,.85-.75.92.92,0,0,0,0-.18c0-.23,0-.78.16-2.56L134,29a6.79,6.79,0,0,1,.12-.82c0-.14,0-.24.05-.33a.7.7,0,0,0-.16-.57.78.78,0,0,0-.62-.21h-.28l-1,0,1-7.15c.17-1.22.35-2.47.64-3.79a.83.83,0,0,0-.17-.63.79.79,0,0,0-.61-.22h-.25c-.28,0-.86.05-2.19.05h-1.93c-1.35,0-1.91,0-2.18-.05h-.22a.74.74,0,0,0-.85.75l-.11,1.21a.68.68,0,0,0,.78.82h.23c.28,0,.85-.06,2.18-.06h2.16l-.21,1.31h-2.26c-1.07,0-1.53,0-1.77-.05h-.22a.73.73,0,0,0-.82.78l-.1,1.08a.72.72,0,0,0,.16.58.79.79,0,0,0,.59.2h.24c.25,0,.71-.05,1.76-.05h2.06l-.21,1.31h-2.06c-1.08,0-1.53,0-1.77-.06h-.22a.73.73,0,0,0-.82.75l-.1,1.12a.7.7,0,0,0,.16.57.76.76,0,0,0,.59.21l.23,0c.25,0,.72-.05,1.77-.05h1.83l-.21,1.45h-5.92l.2-.19.66-.65a.87.87,0,0,0,.32-.64.68.68,0,0,0-.34-.52c-.43-.32-.92-.67-1.51-1.08.26-.19.53-.4.79-.62a1.47,1.47,0,0,1,.54-.28.86.86,0,0,0,.66-.76,1,1,0,0,0-.38-.76,7.25,7.25,0,0,0-.75-.55,1.52,1.52,0,0,0,.61-.42l.54-.53a1,1,0,0,0,.38-.67.74.74,0,0,0-.33-.56c-.46-.35-.95-.7-1.48-1.07l.78-.59a2.31,2.31,0,0,1,.51-.31.85.85,0,0,0,.66-.73.89.89,0,0,0-.38-.76,7,7,0,0,0-1.29-.91l-.4-.22-.27.38a6.73,6.73,0,0,1-1.13,1.21l-.69.52c-.73-.46-1.54-.91-2.47-1.4a.88.88,0,0,0-1.07.22l-.6.52a.93.93,0,0,0-.38.73.68.68,0,0,0,.44.54l.49.26,1.14.62a21.18,21.18,0,0,1-3.22,1.29l-.35.11-.11,0-.14-.1,0,.09a1.33,1.33,0,0,0-.27,0c-.23,0-.7.05-1.78.05h-2l0-.78c1.12-.28,2.23-.63,3.56-1.1a3.44,3.44,0,0,1,1.07-.24.87.87,0,0,0,.91-.75,1,1,0,0,0-.29-.76,10.45,10.45,0,0,0-1.4-1.28l-.32-.23-.3.26a4.85,4.85,0,0,1-1.26.73c-.88.36-1.68.65-2.72,1a5.31,5.31,0,0,0-1.61-.5l-.74-.12.14.73a15.12,15.12,0,0,1,0,3.47l-.33,7.37-1.15,0H106a.72.72,0,0,0-.81.72,2.93,2.93,0,0,0,0,.33,9,9,0,0,1,0,1l-.07.74c-.15,1.75-.24,2.28-.28,2.55,0,.09,0,.14,0,.19a.78.78,0,0,0,.16.61A.74.74,0,0,0,105.5,33.4Zm9.9-12.15.08-.9a3,3,0,0,1,.39.41l0,.06a1,1,0,0,0,.82.53,2,2,0,0,0,.72-.2,25.58,25.58,0,0,0,3.44-1.73c.56.4,1.11.81,1.63,1.23l-.21.32a5,5,0,0,1-1.1,1.18c-.23.19-.47.38-.74.58-.81-.51-1.65-1-2.51-1.44a.86.86,0,0,0-1.09.27l-.57.56a.85.85,0,0,0-.29.69.69.69,0,0,0,.45.52c.51.28,1,.57,1.55.87a21.16,21.16,0,0,1-3.09,1.23.91.91,0,0,0,.14-.43l.1-1.11a.75.75,0,0,0-.16-.61.74.74,0,0,0-.59-.21l-.25,0c-.24,0-.69.05-1.71.05h-2l.07-1.24h2c1.06,0,1.52,0,1.77.05h.26A.72.72,0,0,0,115.4,21.25Zm-5.11,5.92.07-1.52h1.94c1,0,1.46,0,1.7.05h.06l-.34.1,1,.59a2.15,2.15,0,0,1,.67.61l0,.06.08.1Zm7.17,0a19.8,19.8,0,0,0,2.89-1.48c.59.42,1.3.93,1.92,1.45l0,0Z"/><path class="cls-1" d="M133.48,36.2h-.23c-.43,0-1.6.06-4.14.06h-7.53a34.62,34.62,0,0,0,4.15-2l.08,0a5.41,5.41,0,0,1,1.19-.59,1,1,0,0,0,.76-.86c0-.42-.19-.74-.71-1.39-.41-.49-.78-.82-1.2-.82a1.17,1.17,0,0,0-.52.13H115.21c-2.66,0-3.79,0-4.16,0h-.2a.72.72,0,0,0-.82.71l-.1,1.22a.75.75,0,0,0,.15.61.78.78,0,0,0,.59.2h.22c.43,0,1.57-.06,4.15-.06h7c-.79.38-1.64.74-2.48,1.05L117.4,34l.07.69a10.3,10.3,0,0,1,0,1.56h-8.83c-2.54,0-3.71-.05-4.16-.06h-.2a.73.73,0,0,0-.82.75l-.12,1.39a.73.73,0,0,0,.16.6.72.72,0,0,0,.58.21h.23c.44,0,1.6-.06,4.15-.06h8.79l-.23,2.63c-.06.62-.17.77-1.08.77a28.35,28.35,0,0,1-3.38-.16l-1-.11.48.87a4.07,4.07,0,0,1,.47,1.23c.16.89.36,1.06,1.28,1.06,3.1,0,4.05-.12,4.86-.62a2.92,2.92,0,0,0,1.35-2.6c0-.36.07-.84.1-1.33l0-.35c0-.41.06-.8.08-1.1l0-.29h8.65c2.54,0,3.72,0,4.16.06h.2a.72.72,0,0,0,.82-.75l.12-1.38a.66.66,0,0,0-.74-.82Z"/><path class="cls-1" d="M166.67,18.48a12.79,12.79,0,0,1,1.83,3.93h0v0a.7.7,0,0,0,.66.58,1.64,1.64,0,0,0,.65-.22l.86-.41c.54-.29.66-.6.47-1.13A15.25,15.25,0,0,0,169,17.07a.74.74,0,0,0-1.14-.2l-.71.37a1.18,1.18,0,0,0-.63.61A.71.71,0,0,0,166.67,18.48Z"/><path class="cls-1" d="M171,24.9h-.2c-.42,0-1.69,0-4.54,0h-.66c.08-1.77.22-3.74.43-6.16a9.24,9.24,0,0,1,.39-2.74c0-.06.05-.12.07-.17a1.58,1.58,0,0,0,.18-.6c0-.47-.4-.78-.87-.85a19.2,19.2,0,0,0-2.06-.2l-.6,0,.05.59a25.47,25.47,0,0,1-.05,4.05c-.16,2.13-.28,4.18-.38,6.11h-2.82c.4-.82.78-1.67,1-2.29a1.41,1.41,0,0,1,.26-.48l.06-.07a.92.92,0,0,0,.31-.64c0-.39-.19-.67-.66-.82l-.11,0,1.11.05h.19a.72.72,0,0,0,.82-.75l.11-1.18a.79.79,0,0,0-.16-.61.77.77,0,0,0-.59-.21h-.21c-.34,0-1.13.06-3,.06h-.3l.06-.77a4.4,4.4,0,0,1,.27-1.5l.08-.17a1.21,1.21,0,0,0,.18-.47.84.84,0,0,0-.82-.87l-.1,0c-.56-.06-1.13-.12-1.95-.16l-.64,0,.1.63a10.36,10.36,0,0,1,0,2.48l-.07.87h-.17c-1.8,0-2.61,0-2.95-.06h-.05l.53-.77-.68.52.09-1a.78.78,0,0,0-.15-.61.71.71,0,0,0-.56-.2h-.22c-.36,0-1.2.06-3.1.06h-3.48c-1.94,0-2.76,0-3.16-.06h-.19a.72.72,0,0,0-.78.75l-.12,1.35a.78.78,0,0,0,.15.61.71.71,0,0,0,.56.2h.16l.82,0-1.67,19.09c-.54.09-1.05.17-1.71.23l-.57,0,.09.56c.13.79.25,1.38.38,1.88s.41.8.8.8a1.33,1.33,0,0,0,.75-.29,4.57,4.57,0,0,1,1.21-.43c1.19-.33,2.84-.84,4.48-1.39l-.17,1.94c-.16,1.85-.3,2.89-.35,3.34a2.14,2.14,0,0,0,0,.25.75.75,0,0,0,.15.61.78.78,0,0,0,.59.2h1.35a.74.74,0,0,0,.86-.75s0-.11,0-.26c0-.39.07-1.43.23-3.32l1.21-13.77a.57.57,0,0,0,.08.13.72.72,0,0,0,.56.21h.27c.51,0,1.73-.06,4.2-.06h7.4a45,45,0,0,0,.44,9.24,23.73,23.73,0,0,1-3,3.07c0-.39.07-1.52.37-5l.22-2.47c.13-1.48.24-2.3.3-2.76a2.32,2.32,0,0,0,0-.29.72.72,0,0,0-.15-.6.74.74,0,0,0-.59-.21H160c-.33,0-1,.06-2.51.06h-2.4c-1.48,0-2.17,0-2.53-.06h-.24a.73.73,0,0,0-.82.75v.26c0,.38-.06,1.37-.25,3.53L151,36c-.34,3.9-.49,5.09-.54,5.48v.14a.75.75,0,0,0,.15.61.77.77,0,0,0,.59.21h1.18a.73.73,0,0,0,.82-.75L153.3,40h4v.13a.92.92,0,0,0,.17.7.76.76,0,0,0,.57.22h.71a26.24,26.24,0,0,1-3.2,2.08l-.85.47.84.44a1.7,1.7,0,0,1,.65.63c.22.36.43.71.89.71a1.24,1.24,0,0,0,.59-.21l.18-.11a28.81,28.81,0,0,0,6-5c.89,3.06,2.14,4.54,3.82,4.54s2.84-1.62,3.6-5.57c.17-.71.23-1.07-.48-1.47a3,3,0,0,1-.89-.72l-.72-1.33-.24,1.51c-.55,3.43-1,4.15-1.11,4.29-.42-.07-1-.87-1.7-4.08a33.7,33.7,0,0,0,2.85-4.8,8.87,8.87,0,0,1,.67-1.26,1.63,1.63,0,0,0,.57-.95.9.9,0,0,0-.55-.89,11.46,11.46,0,0,0-1.71-.78l-.56-.19-.12.59a12.86,12.86,0,0,1-.92,2.67c-.23.53-.5,1.07-.8,1.63a50.51,50.51,0,0,1-.06-5.6h.61c2.8,0,4,.05,4.51.06h.22a.74.74,0,0,0,.82-.78l.11-1.29a.7.7,0,0,0-.15-.58A.76.76,0,0,0,171,24.9Zm-13,6.44L157.89,33h-4l.15-1.68Zm-.37,4.19-.17,1.92h-4l.17-1.92Zm.93-14.89a6.82,6.82,0,0,1-.3,1.29c-.34,1-.73,2-1.18,3h-1.19a.78.78,0,0,0,.12-.64,14.22,14.22,0,0,0-.91-3.56.71.71,0,0,0-.08-.15h3.55ZM146.89,32.32l-.34,3.91c-1.1.35-2,.63-2.81.85l.42-4.76Zm.6-6.84-.36,4.09H144.4l.36-4.09Zm.59-6.83-.35,4.08H145l.35-4.08Zm2.82,0,.63,0-.31.52.43-.31-.08.91a.72.72,0,0,0,.15.6.75.75,0,0,0,.59.21h.57a.67.67,0,0,0-.31.31.78.78,0,0,0,0,.64,15.66,15.66,0,0,1,.8,3.24s0,.08,0,.12l-2.17,0H151a.73.73,0,0,0-.63.28Z"/><path class="cls-1" d="M206.68,16.74h-.23c-.46,0-1.69.06-4.27.06H193.7a3.69,3.69,0,0,1,.22-1.12l.08-.15a1.59,1.59,0,0,0,.23-.65c0-.34-.16-.76-.8-.85l-.28,0c-.6-.06-1.18-.11-1.9-.14l-.63,0,.1.63a12,12,0,0,1,0,2.34H183c-2.52,0-3.71,0-4.23-.06h-.26a.73.73,0,0,0-.82.75l-.11,1.29a.66.66,0,0,0,.75.81h.25c.51,0,1.68-.06,4.25-.06h7.65l-.1,1.07h-3.65c-2.76,0-4.1,0-4.54-.06H182a.73.73,0,0,0-.81.76,1.64,1.64,0,0,0,0,.26c0,.3,0,1-.17,2.51L180.71,27c-.13,1.46-.23,2.17-.28,2.48a1.7,1.7,0,0,0,0,.26.77.77,0,0,0,.15.61.79.79,0,0,0,.59.21h.29c.5,0,1.84-.06,4.52-.06h3.59l-.13,1.43c-2.68.11-5.69.18-8.93.22-1.07,0-2.15,0-3.3,0l-.6,0,0,.6a15.5,15.5,0,0,0,.26,1.85,1,1,0,0,0,.85.88,1.88,1.88,0,0,0,.73-.21l.09,0a7.87,7.87,0,0,1,2.35-.2c4.69-.15,9.53-.38,14.46-.7v.05a10.35,10.35,0,0,1,0,1.69H180.64c-2.57,0-3.72,0-4.15-.06h-.21a.73.73,0,0,0-.82.75L175.34,38a.75.75,0,0,0,.15.58.77.77,0,0,0,.6.2h.23c.45,0,1.63,0,4.14,0h2.91l-.83.5a.91.91,0,0,0-.53.68.79.79,0,0,0,.39.68,14.63,14.63,0,0,1,3.1,3,.77.77,0,0,0,.6.34,1.27,1.27,0,0,0,.68-.27l1.06-.76a1.08,1.08,0,0,0,.53-.67.75.75,0,0,0-.22-.61,18.2,18.2,0,0,0-3.23-2.94h10.26l-.23,2.6c0,.59-.17.81-1.22.81-.39,0-1.45,0-2.85-.14l-1-.08.5.86a4.77,4.77,0,0,1,.46,1.31c.17.78.41,1,1.23,1h.52c2.46,0,3.37-.25,4-.62A2.87,2.87,0,0,0,198,41.89c0-.5.08-1,.13-1.59s.07-1,.11-1.55H201c2.47,0,3.62,0,4.15,0h.24a.67.67,0,0,0,.78-.72l.12-1.31a.76.76,0,0,0-.15-.62.72.72,0,0,0-.56-.2h-.26c-.43,0-1.58.06-4.15.06H198.5a1.5,1.5,0,0,1,.14-.45l.08-.15a1.45,1.45,0,0,0,.23-.65.75.75,0,0,0-.39-.71l2.61-.18a15.6,15.6,0,0,1,1.18,1.38.77.77,0,0,0,.61.37,1.33,1.33,0,0,0,.68-.29l.86-.55a1,1,0,0,0,.52-.62.76.76,0,0,0-.23-.66,19.06,19.06,0,0,0-3.19-2.93h0a.73.73,0,0,0,.82-.76,1,1,0,0,0,0-.23c0-.34,0-1,.16-2.5l.26-2.95c.13-1.49.23-2.2.28-2.54a1.76,1.76,0,0,0,0-.23.78.78,0,0,0-.15-.61.79.79,0,0,0-.59-.21h-.27c-.49,0-1.8.06-4.51.06h-4.29l.09-1.07H202c2.62,0,3.86,0,4.27.06h.22a.73.73,0,0,0,.82-.75l.11-1.28a.79.79,0,0,0-.16-.61A.77.77,0,0,0,206.68,16.74ZM193,24.29l.11-1.18H200l-.1,1.18Zm5.38,7.2c-2.12.14-4.14.25-6,.32l.11-1.32h5.94a.66.66,0,0,0-.24.44A.69.69,0,0,0,198.41,31.49ZM192.71,28l.11-1.28h6.89L199.6,28Zm-2.84-1.28L189.75,28h-6.21l.11-1.28Zm.31-3.62-.1,1.18h-6.22l.11-1.18Z"/><path class="cls-1" d="M240.61,17.05h-.26c-.49,0-1.78.06-4.41.06h-7.51a5.22,5.22,0,0,1,.27-1.56,1.62,1.62,0,0,1,.1-.18,1.86,1.86,0,0,0,.21-.63c0-.42-.28-.73-.82-.81s-1.44-.14-2.26-.17l-.64,0,.1.63a11,11,0,0,1,0,2.75h-7.1c-2.63,0-3.91-.05-4.4-.06h-.26a.73.73,0,0,0-.82.74c0,.06,0,.15,0,.31s0,.71-.07,1.46l-.09,1.05c-.21,2.29-.31,3-.35,3.31a1,1,0,0,0,0,.2.72.72,0,0,0,.16.58.75.75,0,0,0,.59.21h1.55a.72.72,0,0,0,.82-.72l.37-4.26h22.32l-.36,4.2a.73.73,0,0,0,.15.57.76.76,0,0,0,.59.21H240a.73.73,0,0,0,.82-.73V24c0-.32,0-1.07.24-3.3l.11-1.28c.05-.59.12-1,.15-1.2s0-.25.05-.33a.77.77,0,0,0-.16-.6A.74.74,0,0,0,240.61,17.05Z"/><path class="cls-1" d="M233,32.9a41.34,41.34,0,0,0,3.87-3.17,7.39,7.39,0,0,1,1.57-1.27,1.15,1.15,0,0,0,.67-.85,1,1,0,0,0-.37-.84,11,11,0,0,0-1.62-1.27l-.43-.3-.3.44a9.88,9.88,0,0,1-1.12,1.46,28.35,28.35,0,0,1-3.48,3.21A26.55,26.55,0,0,1,230.4,25h1c2.79,0,4,.05,4.45.06h.22a.74.74,0,0,0,.82-.78l.11-1.26a.85.85,0,0,0-.16-.64.76.76,0,0,0-.59-.2H236c-.47,0-1.72.06-4.46.06h-9.81c-2.67,0-3.94,0-4.42-.06h-.25c-.51,0-.77.24-.82.78l-.11,1.25a.81.81,0,0,0,.16.64.74.74,0,0,0,.59.21h.25c.47,0,1.73-.06,4.42-.06h1.24a35.66,35.66,0,0,1-9.87,3.7l-1,.25.78.64a2.7,2.7,0,0,1,.79,1c.42.81.76.8,1.52.55a43.16,43.16,0,0,0,7.44-2.95,14.86,14.86,0,0,1,1.09,1.5,39.22,39.22,0,0,1-12.17,5.11l-1.09.28.9.63a2.2,2.2,0,0,1,.73.9c.17.34.38.75.88.75a1.59,1.59,0,0,0,.58-.14l.14-.06A44.54,44.54,0,0,0,224.73,32a14.75,14.75,0,0,1,.54,1.68c-4.39,3.49-8.9,5.65-15.53,7.45l-.92.25.7.63a3.41,3.41,0,0,1,.83,1c.16.36.36.8.88.8a1.8,1.8,0,0,0,.69-.19,46,46,0,0,0,13.74-6.82,15.17,15.17,0,0,1,0,1.63c-.34,3.78-1.47,3.78-2.29,3.78a22.77,22.77,0,0,1-3.39-.23l-1.07-.15.54.92a3.73,3.73,0,0,1,.42,1.27c.11.85.3,1,1.13,1.08a18.86,18.86,0,0,0,2,.1c3.78,0,5.2-1.68,5.63-6.64A16,16,0,0,0,225,26.74c.72-.46,1.48-1,2.42-1.68,1.39,8.24,4.41,13.42,10.4,17.81l.11.1a1,1,0,0,0,.64.28c.41,0,.62-.31.92-.74a4.54,4.54,0,0,1,1.17-1.19l.62-.46-.64-.39A20.55,20.55,0,0,1,233,32.9Z"/><path class="cls-1" d="M274,30.25h-.25c-.5,0-1.65.06-4.19.06h-8.62l1-11.36H269c2.73,0,3.95.05,4.41.06v-.26h0l.06.26h.15a.74.74,0,0,0,.82-.75l.13-1.56a.76.76,0,0,0-.15-.6.75.75,0,0,0-.59-.21h-.22c-.4,0-1.63.07-4.43.07H252.43c-2.81,0-4-.05-4.45-.07h-.21a.73.73,0,0,0-.82.75l-.13,1.55a.74.74,0,0,0,.15.61.75.75,0,0,0,.59.21h.16v-.26h0l.07.26c.47,0,1.69-.06,4.46-.06h6.46l-1,11.36h-8.41c-2.61,0-3.79,0-4.18-.06h-.22a.72.72,0,0,0-.81.75l-.14,1.58a.66.66,0,0,0,.74.82h.24c.39,0,1.6-.06,4.17-.06h8.35l-.67,7.61c-.16,1.92-.3,2.93-.34,3.31l0,.09c0,.09,0,.15,0,.19a.8.8,0,0,0,.16.61.77.77,0,0,0,.59.21h1.79a.74.74,0,0,0,.82-.76s0-.11,0-.27c0-.44.07-1.46.23-3.31l.68-7.68h8.69c2.54,0,3.68,0,4.17.06h.25a.73.73,0,0,0,.82-.75l.14-1.59a.8.8,0,0,0-.16-.61A.76.76,0,0,0,274,30.25Z"/><path class="cls-1" d="M269.49,19.55l-.54-.2-.14.57a7.32,7.32,0,0,1-.62,1.58,33.49,33.49,0,0,1-4.5,6.49l-.52.6.75.22a3.1,3.1,0,0,1,1,.51l.14.09a1.1,1.1,0,0,0,.63.27c.37,0,.58-.25.91-.64a44.68,44.68,0,0,0,4.28-6.23,2.46,2.46,0,0,1,.55-.75,1.17,1.17,0,0,0,.55-.78.84.84,0,0,0-.53-.85A15.39,15.39,0,0,0,269.49,19.55Z"/><path class="cls-1" d="M252.22,29.39h0a.66.66,0,0,0,.27.06,1.79,1.79,0,0,0,.63-.18l1.18-.47a.82.82,0,0,0,.63-1,29.94,29.94,0,0,0-3.36-7.59.73.73,0,0,0-1.13-.26l-1,.51c-.3.14-.6.28-.69.6a.62.62,0,0,0,.11.59,29.29,29.29,0,0,1,3,7.22A.77.77,0,0,0,252.22,29.39Z"/><path class="cls-1" d="M306.34,27.06v0a47.48,47.48,0,0,0-7.63-8.5.93.93,0,0,0-1.24.08l-.8.52a1.08,1.08,0,0,0-.56.71.73.73,0,0,0,.28.63,45.46,45.46,0,0,1,3.32,3.34c-3.68.38-8.14.75-12.15,1,1.59-2.38,3-4.87,4.32-7.22a6.82,6.82,0,0,1,.9-1.35,1.32,1.32,0,0,0,.48-.85c0-.23-.05-.68-.77-1a13.77,13.77,0,0,0-2.21-.6l-.51-.11-.1.52a9.74,9.74,0,0,1-.76,2.17,78.7,78.7,0,0,1-5,8.59l-2.15.09c-1.1,0-2.23,0-3.44,0l-.6,0,.06.61a22,22,0,0,0,.32,2.28.88.88,0,0,0,.86.81,1.67,1.67,0,0,0,.84-.27,3.92,3.92,0,0,1,1.46-.21c5.9-.3,14.13-1,20.52-1.83.61.82,1.18,1.65,1.69,2.48a.76.76,0,0,0,.63.41,1.32,1.32,0,0,0,.71-.29l1.06-.66C306.23,28.11,306.77,27.74,306.34,27.06Z"/><path class="cls-1" d="M301.29,30.65h-.23c-.47,0-1.72.06-4.42.06H287c-2.64,0-3.92,0-4.4-.06h-.26a.73.73,0,0,0-.82.75v.07h0v.18c0,.44-.07,1.46-.27,3.73l-.26,3c-.38,4.31-.53,5.5-.58,5.9l0,.15a.78.78,0,0,0,.16.61.74.74,0,0,0,.59.21h1.59a.74.74,0,0,0,.82-.75l.11-1.25h14.2l-.1,1a.79.79,0,0,0,.16.61.71.71,0,0,0,.56.2h1.62a.74.74,0,0,0,.85-.75v-.16c.05-1,.2-3,.45-5.86l.29-3.28c.18-2,.31-3,.35-3.32,0-.12,0-.2,0-.23a.78.78,0,0,0-.15-.61A.83.83,0,0,0,301.29,30.65Zm-2.61,3-.58,6.66H283.9l.58-6.66Z"/></svg>