<?xml version="1.0" encoding="utf-8"?>
<!-- Generator: Adobe Illustrator 23.1.1, SVG Export Plug-In . SVG Version: 6.00 Build 0)  -->
<svg version="1.1" id="圖層_1" xmlns="http://www.w3.org/2000/svg" xmlns:xlink="http://www.w3.org/1999/xlink" x="0px" y="0px"
	 viewBox="0 0 50 50" style="enable-background:new 0 0 50 50;" xml:space="preserve">
<style type="text/css">
	.st0{fill:#2F6E35;}
</style>
<title>圖稿</title>
<path class="st0" d="M44.9,29h-4.4v-3.1c0-0.8,0-2.3-2.3-2.3H25.2v-2.8H30c1,0,1.9-0.8,1.9-1.8c0,0,0,0,0,0v-4.7l0,0v-0.9l0,0v-1.5
	c0-1-0.8-1.9-1.9-1.9c0,0,0,0,0,0H20c-1,0-1.9,0.8-1.9,1.9V19c0,1,0.8,1.8,1.9,1.8h4.3v2.8H12.9c-2.9,0-3.2,1.1-3.2,2.3V29H5.1
	c-1,0-1.9,0.8-1.9,1.8c0,0,0,0,0,0V38c0,1,0.8,1.9,1.8,1.9c0,0,0,0,0,0h10c1,0,1.9-0.8,1.9-1.8c0,0,0,0,0,0v-7.1
	c0-1-0.8-1.9-1.8-1.9c0,0,0,0,0,0h-4.6v-3.1c0-0.8,0-1.4,2.3-1.4h11.4V29H20c-1,0-1.9,0.8-1.9,1.8c0,0,0,0,0,0V38
	c0,1,0.8,1.8,1.9,1.8h10c1,0,1.9-0.8,1.9-1.8c0,0,0,0,0,0v-7.1c0-1-0.8-1.9-1.8-1.9c0,0,0,0,0,0h-4.8v-4.5h13.1
	c1.4,0,1.4,0.5,1.4,1.4V29h-4.8c-1,0-1.9,0.8-1.9,1.8c0,0,0,0,0,0V38c0,1,0.8,1.9,1.8,1.9c0,0,0,0,0,0h10c1,0,1.9-0.8,1.9-1.8
	c0,0,0,0,0-0.1v-7.1C46.8,29.8,45.9,29,44.9,29C44.9,29,44.9,29,44.9,29z M20,10.9h10c0.6,0,1,0.4,1,1v1.5H19v-1.5
	C19,11.3,19.4,10.9,20,10.9z M19,19v-4.7h12V19c0,0.6-0.4,1-1,1H20C19.4,20,19,19.6,19,19z M15.1,39h-10c-0.6,0-1-0.4-1-1v-5h12v5
	C16.1,38.6,15.7,39,15.1,39z M16.1,30.9v1.2h-12v-1.2c0-0.6,0.4-1,1-1h10C15.7,29.9,16.1,30.3,16.1,30.9L16.1,30.9z M30,39H20
	c-0.6,0-1-0.4-1-1v-5h12v5C31,38.6,30.6,39,30,39z M31,30.9v1.2H19v-1.2c0-0.6,0.4-1,1-1h10C30.5,29.9,31,30.3,31,30.9L31,30.9z
	 M34.9,29.9h10c0.6,0,1,0.4,1,1v1.2h-12v-1.2C33.9,30.4,34.3,29.9,34.9,29.9C34.8,29.9,34.8,29.9,34.9,29.9L34.9,29.9z M44.9,39h-10
	c-0.6,0-1-0.4-1-1v-5h12v5C45.9,38.5,45.4,39,44.9,39L44.9,39z"/>
</svg>
