<svg id="圖層_1" data-name="圖層 1" xmlns="http://www.w3.org/2000/svg" xmlns:xlink="http://www.w3.org/1999/xlink" viewBox="0 0 2113.88 296.09"><defs><style>.cls-1{fill:url(#未命名漸層_147);}.cls-2{fill:url(#未命名漸層_147-2);}.cls-3{fill:url(#未命名漸層_147-3);}.cls-4{fill:#ffb115;}.cls-5{fill:#00b391;}</style><linearGradient id="未命名漸層_147" x1="77.84" y1="317.23" x2="227.1" y2="112.15" gradientUnits="userSpaceOnUse"><stop offset="0.41" stop-color="#e66e00"/><stop offset="0.78" stop-color="#fa8b00"/></linearGradient><linearGradient id="未命名漸層_147-2" x1="62.54" y1="306.09" x2="211.8" y2="101.01" xlink:href="#未命名漸層_147"/><linearGradient id="未命名漸層_147-3" x1="90.81" y1="326.67" x2="240.07" y2="121.59" xlink:href="#未命名漸層_147"/></defs><title>就業計畫Icon</title><path class="cls-1" d="M264.94,235.38c-30.83-53.13-81.48-142.87-112.31-196l-1-1.73c-3.35,5.71-6.52,11.09-9.67,16.48L111.7,105.73q-13.19,22.53-26.37,45.05c-10,17.14-6.63,11.81-16.67,29Q59,196.3,49.27,212.87c-.45.78-.93,1.45-.34,2.45,3.94,6.72,7.83,13.46,11.86,20.4a6.36,6.36,0,0,0,.61-.65q6.75-11.23,13.48-22.47c12-20,10.42-17.45,22.36-37.41l30.32-50.67q10.29-17.19,20.6-34.36c1.55-2.57,4.18-2.68,6.06-.3a16.43,16.43,0,0,1,1.18,1.94c20.87,36,61.41,107.9,82.24,143.88a3.26,3.26,0,0,0,3.38,1.95c7.49-.29,15.16.2,22.66,0C266.19,237.56,266.19,237.53,264.94,235.38Z"/><path class="cls-2" d="M178.06,94.52c-4.07-7-8.1-13.92-12.3-21.17l-98,163c1.14,0,1.82.07,2.5.08l67.09.24q20.13.06,40.25.15c.89,0,1.72.11,2.24-1,3.65-7.47,7.34-14.91,11.14-22.62-.81,0-1.29-.07-1.77-.07l-68.35-1c-4.5-.06-5.7-2.09-3.63-6.07.16-.3.3-.62.46-.92,13.9-26.29,28.64-52.1,43.06-78.1,5.61-10.1,11.27-20.18,16.89-30.28C178,96.08,178.63,95.48,178.06,94.52Z"/><path class="cls-3" d="M302,237.63C264.56,173.17,223,99.68,185.65,35.2a2.72,2.72,0,0,0-2.85-1.45c-4.67.1-9.35.1-14,.16-3.68.05-7.37.15-11.39.23l1.39,2.4,72.56,125.05L274,237.53Z"/><path class="cls-4" d="M142.59,190.31c17.83.25,35.43.49,53,.76,1.22,0,1.59-.14.86-1.37-3.29-5.56-8.23-14.88-11.45-20.48a1.71,1.71,0,0,0-1.73-1.05c-10.53.22-15.26.57-25.78.71a1.84,1.84,0,0,0-1.82,1.2C152.73,175.59,145.65,184.67,142.59,190.31Z"/><path class="cls-5" d="M324.52,144.16A186.74,186.74,0,0,0,363.82,96l14,7.64c-1,1.58-1.76,2.91-2.37,4q-2.37,4-5.64,9.1l-7.64,11.64V222.4H346V147.62l-7.1,7.64-7.64,7.64Zm47.85-78a217.24,217.24,0,0,1-38.21,39.3l-8.73-15.65Q347.26,72.84,358.36,57ZM455.7,170.18H373.28V155.44H455.7V143.8H376.92V130.33H488.45V143.8H471.89v11.64h20.2v14.74h-20.2v32.39q0,9.27-3.36,13.92t-13.92,4.64H431.5l-4-16.38,22.2.73c4,0,6-1.89,6-5.64ZM383.1,60.83H483.54v59.5H383.1Zm25.48,148.1-8-14.55A124.29,124.29,0,0,0,392,181.64l14.55-7.46,8.92,12.92q3.09,4.54,5.82,9.46c.61,1.22,1.46,2.79,2.55,4.73ZM399.3,84.3h68V73.2h-68Zm0,23.65h68V96h-68Z"/><path class="cls-5" d="M547.27,163.45q-2.37,33.3-11.46,58.58l-14.56-12.91a150.76,150.76,0,0,0,9.83-53.31q0-14.75.27-25.66t.27-12.55V61.19h47.31V202.75q0,8.91-3.09,12.64c-2.07,2.49-5.7,3.73-10.92,3.73H552l-3.45-16.37,10.91.54q3.82,0,3.82-3.82v-36Zm16-59.68V76.3h-16v27.47Zm0,44.76V118.69h-16v29.84ZM671,159.81q-.19,6.56-.46,18.47a117.91,117.91,0,0,1-2.46,22.1q-2.18,10.19-6.73,14.29T641,218.76a54.13,54.13,0,0,1-6.37-.18l-4.19-15.65a82.36,82.36,0,0,0,12.56.73c3.88,0,6.51-1.16,7.91-3.46s2.64-11.89,3.73-28.75H634.24q-4.54,18.93-14.64,30.66T592.94,222.4l-9.64-14q13.28-6.19,21.29-14t13.28-22.93H597.31v-11.1l-8.92,6.92-9.46-14.92q16-8,28.39-25.29H584V112.14h30.2a24.67,24.67,0,0,0,2.73-6.73l1.82-6.19H585.85V84.3h13.46l-3.82-9.46a51.39,51.39,0,0,0-4.91-8.92l-1.46-2.18L604.22,59Q609.68,68.3,615,84.3h6.91a137.33,137.33,0,0,0,2.55-15.1L625.69,55l15.65,1.45-1.64,14a129.18,129.18,0,0,1-2.18,13.83h10q5.44-7.81,9.64-21.47c.24-1,.6-2.24,1.09-3.82l14.37,6a25.59,25.59,0,0,0-1.27,3.28q-1.64,4.36-2.91,7.1l-4.37,8.91h16.74V99.22H634.61L633,105.59l-2,6.55h54.95v14.92H661.53q7.28,11.64,24.2,22.56c.85.49,1.88,1.15,3.1,2l-8.37,15.65Zm-26.93-32.75H624.78q-7.63,16.74-23.29,29.66h19.83l1.46-11.65,1.09-8,15.1,1.27-.72,8.37-1.1,10h30.21Q652.25,142.71,644.07,127.06Z"/><path class="cls-5" d="M822.61,108.86q26.75-20,44.58-42.57l12.92,9.28a197.45,197.45,0,0,1-32.75,33.29H885.2v15.29h-57a19,19,0,0,0-2,1.27A194.64,194.64,0,0,1,803,138.7h63.68v83.7H849.18v-8.92H772v8.92H754.38V161.81a133.37,133.37,0,0,1-12.73,5.28l-15.83,5.64-8-16.2q44.94-12,80.78-32.38H720.54V108.86h67V89.58H736V74.29h51.49V55H805V74.29h40V89.58H805v19.28ZM772,168h77.15V153.08H772Zm0,31.11h77.15V182.19H772Z"/><path class="cls-5" d="M1005.16,89.76h65.5v12.92h-65.5v10h76.6v14H914.18v-14h74.06v-10H926.56V89.76h61.68V80.3H920.37V66.47h67.87V55h16.92V66.47h70.05V80.3h-70.05ZM1063.56,200v2.18q0,9.11-3.37,13.74t-13.73,4.64h-27.11l-3.64-14.19,25.29.72c4.12,0,6.19-1.39,6.19-4.18v-6.55H947.84v25.84H931.47V136h132.09ZM947.84,160.17h99.35V149.8H947.84Zm0,23.84h99.35V172.55H947.84Z"/><path class="cls-5" d="M1215.18,116.51h53.31v16h-53.31v35.29H1278v16.38h-62.77V222.4H1197V184.19h-86.24V167.81h30.57v-51.3H1197V90.85h-40.39q-1.46,1.64-2.37,2.73-10.18,12-28.56,28.38l-15.1-12.73A140.08,140.08,0,0,0,1157.32,55L1175,59.37c-.61,1.22-1.1,2.25-1.46,3.1-1.45,3-2.61,5.34-3.46,6.91l-3.27,5.46H1273v16h-57.85Zm-56,16v35.29H1197V132.52Z"/><path class="cls-5" d="M1335,159.63q-.73,4.55-1.09,7.64a226.76,226.76,0,0,1-10.55,43.85l-15.47-5.46q7.28-18.56,11.65-44.94c.24-1.21.54-2.73.91-4.55ZM1308,88.12V73.2h36.21l-2.73-6.91a32.8,32.8,0,0,0-4.37-8.19l16.56-2.91q2.91,3.47,8.73,18h31.66V88.12Zm6.37,59.5V100.13h72.78v47.49h-25.65v57.49q0,15.1-16.2,15.1h-13.83l-4-16,12,.37q5.46,0,5.46-3.1l-.18-.18V147.62Zm56.22-33.48H1331v19.65h39.66Zm6.19,79.15-3.64-18a162.31,162.31,0,0,0-4-16.37l13.46-3.64c.24,1,.48,1.82.73,2.55q3.09,9.27,4,12.92l4.37,17.46Zm39.48-79.15h-22.74V98.31h22.92V55h16.2v43.3h41.12v15.83h-41.49Q1431,156,1413.37,189.28a152,152,0,0,1-14.47,22.66q-8.09,10.45-9,10.46L1377,208.57q2.37,0,12.83-14a130.24,130.24,0,0,0,17.37-32.48Q1414.09,143.62,1416.28,114.14Zm15.28,20.38h16v61.13q0,7.65,5.27,7.64t5.28-8.91l-.55-25.47,16.38,6.55v25.47q0,18.56-20.38,18.56-12.55,0-17.29-4.1t-4.73-13.92Zm24.2-39.85-8.37-11.28a77.15,77.15,0,0,0-10.19-11.46l12.2-8L1459,74.11q4.18,4.56,9.1,10.74Z"/><path class="cls-5" d="M1621.93,83.39q6.55-8,14-23.47a20,20,0,0,1,1.09-2.18l15.65,8-5.27,9.46q-2.37,3.83-5.64,8.19h29.65V98H1503.85V83.39H1535l-4-7.82a92.28,92.28,0,0,0-7.1-10.37L1539,58.46a131.84,131.84,0,0,1,8.91,13.65l5.64,11.28h10.74V55h16.37V83.39h14.56V55h16.37V83.39Zm-42.39,67.69h-65.68V137.79h65.68v-10h-69.68V114h44l-3.46-6-4.55-6.18L1562.8,98a50.53,50.53,0,0,1,5.28,7.82l4.55,8.19h29.65a35.57,35.57,0,0,0,6.55-8.19L1613.2,98l17.47,3.82-.55,1.09a76.28,76.28,0,0,1-7.64,11.1h42v13.83H1596.1v10h64v13.29h-64v11.28H1670v14.37h-56.41q21.11,17.84,57.86,24.56l-7.27,15.29q-44.76-10.74-68.05-39.67V222.4h-16.56V177.09q-15.46,17.11-32.3,25.48a214.94,214.94,0,0,1-35.57,13.82L1504,200.93q37.67-7.45,58-24.2h-56.76V162.36h74.23Z"/><path class="cls-5" d="M1780.83,91.58h-80.42V76.11h31.29l-3.27-9.28a106.46,106.46,0,0,0-4.55-9.64L1741.53,55q4,6.54,7.46,19.1c.12.49.3,1.16.54,2h31.3Zm-74.6,11.64H1775v14.56h-68.77Zm0,26.75H1775v14.37h-68.77Zm.54,28.38h67.51v62.23h-17.47v-7.83h-32.75v9.65h-17.29Zm50,14.2h-32.75v26h32.75ZM1835.59,55v51.85H1868v16.56h-32.39v99h-18v-99H1783V106.86h34.57V55Z"/><path class="cls-5" d="M1986.66,128.88V136h76.78v12h-163.2V136h69.86v-7.09h-61.49V118h61.49v-6.37h-58.22V100.31h58.22V92.67h-69.86V81.94h69.86V74.66h-58.22V63.38h58.22V54.83h16.56v8.55h60.59V81.94h15.83V92.67h-15.83v18.92h-60.59V118h67v10.92ZM2062,206.57v12.37H1901V206.57Zm-146.65-6.73V154.17h132.09v45.67Zm57.68-28v-6.55H1931.9v6.55Zm0,16.92v-7.46H1931.9v7.46Zm13.64-106.8h44.94V74.66h-44.94Zm0,18.37h44.94V92.67h-44.94Zm44.21,71.51v-6.55h-41.3v6.55Zm0,16.92v-7.46h-41.3v7.46Z"/></svg>